Pretension2-Thin.ufo
<glyph name="exclam" format="2">
  <advance width="586"/>
  <unicode hex="0021"/>
  <outline>
    <contour>
      <point x="270" y="442" type="line"/>
      <point x="270" y="1490" type="line"/>
      <point x="316" y="1490" type="line"/>
      <point x="316" y="442" type="line"/>
    </contour>
    <contour>
      <point x="293" y="-9" type="qcurve" smooth="yes"/>
      <point x="271" y="-9"/>
      <point x="240" y="22"/>
      <point x="240" y="44" type="qcurve" smooth="yes"/>
      <point x="240" y="66"/>
      <point x="271" y="97"/>
      <point x="293" y="97" type="qcurve" smooth="yes"/>
      <point x="315" y="97"/>
      <point x="346" y="66"/>
      <point x="346" y="44" type="qcurve" smooth="yes"/>
      <point x="346" y="22"/>
      <point x="315" y="-9"/>
    </contour>
  </outline>
</glyph>
<glyph name="exclam.ss07" format="2">
  <advance width="538"/>
  <unicode hex="0021"/>
  <unicode hex="E2AF"/>
  <outline>
    <contour>
      <point x="246" y="434" type="line"/>
      <point x="246" y="1490" type="line"/>
      <point x="292" y="1490" type="line"/>
      <point x="292" y="434" type="line"/>
    </contour>
    <contour>
      <point x="224" y="0" type="line"/>
      <point x="224" y="90" type="line"/>
      <point x="314" y="90" type="line"/>
      <point x="314" y="0" type="line"/>
    </contour>
  </outline>
</glyph>
<glyph name="ampersand" format="2">
  <advance width="1196"/>
  <unicode hex="0026"/>
  <outline>
    <contour>
      <point x="550" y="-20" type="curve" smooth="yes"/>
      <point x="471" y="-20"/>
      <point x="400" y="-3"/>
      <point x="337" y="33" type="curve" smooth="yes"/>
      <point x="274" y="68"/>
      <point x="223" y="115"/>
      <point x="186" y="174" type="curve" smooth="yes"/>
      <point x="149" y="233"/>
      <point x="130" y="299"/>
      <point x="130" y="372" type="curve" smooth="yes"/>
      <point x="130" y="417"/>
      <point x="138" y="459"/>
      <point x="155" y="499" type="curve" smooth="yes"/>
      <point x="187" y="578"/>
      <point x="259" y="655"/>
      <point x="386" y="750" type="curve" smooth="yes"/>
      <point x="606" y="915" type="line" smooth="yes"/>
      <point x="675" y="967"/>
      <point x="725" y="1016"/>
      <point x="755" y="1061" type="curve" smooth="yes"/>
      <point x="785" y="1106"/>
      <point x="800" y="1156"/>
      <point x="800" y="1209" type="curve" smooth="yes"/>
      <point x="800" y="1283"/>
      <point x="777" y="1344"/>
      <point x="730" y="1392" type="curve" smooth="yes"/>
      <point x="683" y="1440"/>
      <point x="623" y="1464"/>
      <point x="552" y="1464" type="curve" smooth="yes"/>
      <point x="502" y="1464"/>
      <point x="457" y="1452"/>
      <point x="416" y="1428" type="curve" smooth="yes"/>
      <point x="335" y="1380"/>
      <point x="282" y="1296"/>
      <point x="282" y="1196" type="curve" smooth="yes"/>
      <point x="282" y="1159"/>
      <point x="289" y="1126"/>
      <point x="304" y="1096" type="curve" smooth="yes"/>
      <point x="333" y="1035"/>
      <point x="392" y="967"/>
      <point x="483" y="852" type="curve" smooth="yes"/>
      <point x="1156" y="0" type="line"/>
      <point x="1097" y="0" type="line"/>
      <point x="446" y="824" type="line" smooth="yes"/>
      <point x="401" y="882"/>
      <point x="362" y="931"/>
      <point x="331" y="970" type="curve" smooth="yes"/>
      <point x="300" y="1009"/>
      <point x="276" y="1046"/>
      <point x="260" y="1081" type="curve" smooth="yes"/>
      <point x="244" y="1115"/>
      <point x="236" y="1153"/>
      <point x="236" y="1196" type="curve" smooth="yes"/>
      <point x="236" y="1255"/>
      <point x="250" y="1308"/>
      <point x="279" y="1355" type="curve"/>
      <point x="335" y="1450"/>
      <point x="435" y="1510"/>
      <point x="552" y="1510" type="curve" smooth="yes"/>
      <point x="609" y="1510"/>
      <point x="659" y="1497"/>
      <point x="703" y="1471" type="curve" smooth="yes"/>
      <point x="791" y="1418"/>
      <point x="846" y="1324"/>
      <point x="846" y="1208" type="curve" smooth="yes"/>
      <point x="846" y="1148"/>
      <point x="830" y="1093"/>
      <point x="798" y="1042" type="curve" smooth="yes"/>
      <point x="765" y="991"/>
      <point x="710" y="936"/>
      <point x="633" y="878" type="curve" smooth="yes"/>
      <point x="415" y="714" type="line" smooth="yes"/>
      <point x="326" y="647"/>
      <point x="264" y="589"/>
      <point x="229" y="538" type="curve" smooth="yes"/>
      <point x="194" y="487"/>
      <point x="176" y="432"/>
      <point x="176" y="372" type="curve" smooth="yes"/>
      <point x="176" y="308"/>
      <point x="193" y="250"/>
      <point x="226" y="198" type="curve" smooth="yes"/>
      <point x="293" y="93"/>
      <point x="410" y="26"/>
      <point x="550" y="26" type="curve" smooth="yes"/>
      <point x="695" y="26"/>
      <point x="812" y="79"/>
      <point x="899" y="171" type="curve" smooth="yes"/>
      <point x="986" y="263"/>
      <point x="1043" y="391"/>
      <point x="1068" y="542" type="curve"/>
      <point x="1114" y="536" type="line"/>
      <point x="1107" y="494"/>
      <point x="1098" y="452"/>
      <point x="1085" y="411" type="curve" smooth="yes"/>
      <point x="1072" y="370"/>
      <point x="1056" y="331"/>
      <point x="1038" y="294" type="curve" smooth="yes"/>
      <point x="1020" y="257"/>
      <point x="1000" y="223"/>
      <point x="978" y="192" type="curve"/>
      <point x="974" y="187"/>
      <point x="969" y="182"/>
      <point x="965" y="175" type="curve"/>
      <point x="927" y="126"/>
      <point x="873" y="82"/>
      <point x="804" y="41" type="curve" smooth="yes"/>
      <point x="735" y="0"/>
      <point x="650" y="-20"/>
    </contour>
  </outline>
</glyph>
<glyph name="parenleft" format="2">
  <advance width="646"/>
  <unicode hex="0028"/>
  <outline>
    <contour>
      <point x="238" y="650" type="curve" smooth="yes"/>
      <point x="239" y="755"/>
      <point x="247" y="861"/>
      <point x="264" y="966" type="curve" smooth="yes"/>
      <point x="280" y="1071"/>
      <point x="304" y="1176"/>
      <point x="336" y="1279" type="curve" smooth="yes"/>
      <point x="368" y="1382"/>
      <point x="407" y="1483"/>
      <point x="454" y="1582" type="curve"/>
      <point x="504" y="1582" type="line"/>
      <point x="456" y="1481"/>
      <point x="416" y="1379"/>
      <point x="384" y="1276" type="curve" smooth="yes"/>
      <point x="319" y="1068"/>
      <point x="286" y="858"/>
      <point x="286" y="650" type="curve" smooth="yes"/>
      <point x="286" y="545"/>
      <point x="294" y="441"/>
      <point x="311" y="336" type="curve" smooth="yes"/>
      <point x="327" y="231"/>
      <point x="351" y="128"/>
      <point x="384" y="25" type="curve" smooth="yes"/>
      <point x="416" y="-79"/>
      <point x="456" y="-180"/>
      <point x="504" y="-280" type="curve"/>
      <point x="454" y="-280" type="line"/>
      <point x="314" y="19"/>
      <point x="239" y="339"/>
    </contour>
  </outline>
</glyph>
<glyph name="parenright" format="2">
  <advance width="646"/>
  <unicode hex="0029"/>
  <outline>
    <contour>
      <point x="142" y="-279" type="line"/>
      <point x="190" y="-179"/>
      <point x="230" y="-78"/>
      <point x="263" y="26" type="curve" smooth="yes"/>
      <point x="295" y="129"/>
      <point x="319" y="232"/>
      <point x="336" y="337" type="curve" smooth="yes"/>
      <point x="352" y="442"/>
      <point x="360" y="546"/>
      <point x="360" y="651" type="curve" smooth="yes"/>
      <point x="360" y="755"/>
      <point x="352" y="859"/>
      <point x="336" y="964" type="curve" smooth="yes"/>
      <point x="303" y="1173"/>
      <point x="239" y="1382"/>
      <point x="142" y="1583" type="curve"/>
      <point x="192" y="1583" type="line"/>
      <point x="239" y="1484"/>
      <point x="278" y="1383"/>
      <point x="310" y="1280" type="curve" smooth="yes"/>
      <point x="342" y="1177"/>
      <point x="366" y="1072"/>
      <point x="383" y="967" type="curve" smooth="yes"/>
      <point x="400" y="862"/>
      <point x="408" y="756"/>
      <point x="408" y="651" type="curve" smooth="yes"/>
      <point x="408" y="340"/>
      <point x="332" y="20"/>
      <point x="192" y="-279" type="curve"/>
    </contour>
  </outline>
</glyph>
<glyph name="comma.ss07" format="2">
  <advance width="554"/>
  <unicode hex="002C"/>
  <unicode hex="E2AB"/>
  <outline>
    <contour>
      <point x="202" y="-273" type="line"/>
      <point x="202" y="-233" type="line"/>
      <point x="210" y="-232" type="line" smooth="yes"/>
      <point x="245" y="-227"/>
      <point x="286" y="-140"/>
      <point x="286" y="-55" type="qcurve" smooth="yes"/>
      <point x="286" y="18" type="line"/>
      <point x="301" y="0" type="line"/>
      <point x="232" y="0" type="line"/>
      <point x="232" y="90" type="line"/>
      <point x="322" y="90" type="line"/>
      <point x="322" y="-47" type="line" smooth="yes"/>
      <point x="322" y="-153"/>
      <point x="269" y="-265"/>
      <point x="211" y="-272" type="qcurve" smooth="yes"/>
    </contour>
  </outline>
</glyph>
<glyph name="zero" format="2">
  <advance width="1210"/>
  <unicode hex="0030"/>
  <outline>
    <contour>
      <point x="606" y="-20" type="qcurve" smooth="yes"/>
      <point x="464" y="-20"/>
      <point x="258" y="165"/>
      <point x="148" y="508"/>
      <point x="148" y="744" type="qcurve" smooth="yes"/>
      <point x="148" y="982"/>
      <point x="258" y="1325"/>
      <point x="464" y="1510"/>
      <point x="606" y="1510" type="qcurve" smooth="yes"/>
      <point x="748" y="1510"/>
      <point x="952" y="1325"/>
      <point x="1062" y="982"/>
      <point x="1062" y="744" type="qcurve" smooth="yes"/>
      <point x="1062" y="508"/>
      <point x="952" y="165"/>
      <point x="748" y="-20"/>
    </contour>
    <contour>
      <point x="606" y="26" type="qcurve" smooth="yes"/>
      <point x="733" y="26"/>
      <point x="916" y="199"/>
      <point x="1016" y="521"/>
      <point x="1016" y="744" type="qcurve" smooth="yes"/>
      <point x="1016" y="969"/>
      <point x="916" y="1291"/>
      <point x="733" y="1464"/>
      <point x="606" y="1464" type="qcurve" smooth="yes"/>
      <point x="415" y="1464"/>
      <point x="194" y="1081"/>
      <point x="194" y="744" type="qcurve" smooth="yes"/>
      <point x="194" y="521"/>
      <point x="294" y="199"/>
      <point x="479" y="26"/>
    </contour>
  </outline>
</glyph>
<glyph name="one" format="2">
  <advance width="752"/>
  <unicode hex="0031"/>
  <outline>
    <contour>
      <point x="520" y="1490" type="line"/>
      <point x="520" y="0" type="line"/>
      <point x="474" y="0" type="line"/>
      <point x="474" y="1440" type="line"/>
      <point x="466" y="1440" type="line"/>
      <point x="146" y="1202" type="line"/>
      <point x="146" y="1258" type="line"/>
      <point x="456" y="1490" type="line"/>
    </contour>
  </outline>
</glyph>
<glyph name="one.ss01" format="2">
  <advance width="744"/>
  <unicode hex="0031"/>
  <unicode hex="E06C"/>
  <outline>
    <contour>
      <point x="466" y="0" type="line"/>
      <point x="466" y="1361" type="line"/>
      <point x="469" y="1359" type="line"/>
      <point x="430" y="1298"/>
      <point x="316" y="1228"/>
      <point x="192" y="1198"/>
      <point x="78" y="1198" type="qcurve"/>
      <point x="78" y="1244" type="line"/>
      <point x="140" y="1244" type="line" smooth="yes"/>
      <point x="205" y="1244"/>
      <point x="344" y="1290"/>
      <point x="454" y="1397"/>
      <point x="472" y="1490" type="qcurve"/>
      <point x="512" y="1490" type="line"/>
      <point x="512" y="0" type="line"/>
    </contour>
  </outline>
</glyph>
<glyph name="two" format="2">
  <advance width="1272"/>
  <unicode hex="0032"/>
  <anchor x="876" y="1490" name="m.uni030F_1"/>
  <outline>
    <contour>
      <point x="190" y="0" type="line"/>
      <point x="190" y="38" type="line"/>
      <point x="666" y="602" type="line" smooth="yes"/>
      <point x="778" y="735"/>
      <point x="903" y="912"/>
      <point x="954" y="1052"/>
      <point x="954" y="1126" type="qcurve" smooth="yes"/>
      <point x="954" y="1224"/>
      <point x="865" y="1376"/>
      <point x="710" y="1464"/>
      <point x="610" y="1464" type="qcurve" smooth="yes"/>
      <point x="507" y="1464"/>
      <point x="350" y="1370"/>
      <point x="262" y="1213"/>
      <point x="262" y="1118" type="qcurve"/>
      <point x="216" y="1118" type="line"/>
      <point x="216" y="1226"/>
      <point x="316" y="1404"/>
      <point x="494" y="1510"/>
      <point x="610" y="1510" type="qcurve" smooth="yes"/>
      <point x="723" y="1510"/>
      <point x="899" y="1410"/>
      <point x="1000" y="1237"/>
      <point x="1000" y="1126" type="qcurve" smooth="yes"/>
      <point x="1000" y="1044"/>
      <point x="946" y="894"/>
      <point x="816" y="709"/>
      <point x="702" y="574" type="qcurve" smooth="yes"/>
      <point x="262" y="52" type="line"/>
      <point x="262" y="46" type="line"/>
      <point x="1088" y="46" type="line"/>
      <point x="1088" y="0" type="line"/>
    </contour>
  </outline>
</glyph>
<glyph name="three.1" format="2">
  <advance width="1194"/>
  <unicode hex="0033"/>
  <unicode hex="E06D"/>
  <anchor x="597" y="1490" name="t.uni030F_1"/>
  <outline>
    <contour>
      <point x="604" y="-20" type="qcurve" smooth="yes"/>
      <point x="478" y="-20"/>
      <point x="277" y="81"/>
      <point x="160" y="259"/>
      <point x="160" y="372" type="qcurve"/>
      <point x="206" y="372" type="line"/>
      <point x="206" y="272"/>
      <point x="311" y="116"/>
      <point x="491" y="26"/>
      <point x="604" y="26" type="qcurve" smooth="yes"/>
      <point x="730" y="26"/>
      <point x="907" y="134"/>
      <point x="1000" y="311"/>
      <point x="1000" y="414" type="qcurve" smooth="yes"/>
      <point x="1000" y="537"/>
      <point x="876" y="712"/>
      <point x="662" y="805"/>
      <point x="526" y="805" type="qcurve" smooth="yes"/>
      <point x="470" y="805" type="line"/>
      <point x="470" y="850" type="line"/>
      <point x="943" y="1443" type="line"/>
      <point x="943" y="1444" type="line"/>
      <point x="222" y="1444" type="line"/>
      <point x="222" y="1490" type="line"/>
      <point x="1008" y="1490" type="line"/>
      <point x="1008" y="1452" type="line"/>
      <point x="501" y="817" type="line"/>
      <point x="501" y="839" type="line"/>
      <point x="665" y="850"/>
      <point x="910" y="746"/>
      <point x="1046" y="547"/>
      <point x="1046" y="414" type="qcurve" smooth="yes"/>
      <point x="1046" y="296"/>
      <point x="939" y="98"/>
      <point x="741" y="-20"/>
    </contour>
  </outline>
</glyph>
<glyph name="three.ss01" format="2">
  <advance width="1258"/>
  <unicode hex="0033"/>
  <unicode hex="E06D"/>
  <anchor x="761" y="1490" name="m.uni030F_1"/>
  <outline>
    <contour>
      <point x="636" y="-20" type="curve" smooth="yes"/>
      <point x="552" y="-20"/>
      <point x="477" y="-3"/>
      <point x="410" y="31" type="curve" smooth="yes"/>
      <point x="276" y="98"/>
      <point x="192" y="221"/>
      <point x="192" y="372" type="curve"/>
      <point x="238" y="372" type="line"/>
      <point x="238" y="305"/>
      <point x="256" y="246"/>
      <point x="291" y="194" type="curve" smooth="yes"/>
      <point x="361" y="90"/>
      <point x="485" y="26"/>
      <point x="636" y="26" type="curve" smooth="yes"/>
      <point x="720" y="26"/>
      <point x="792" y="44"/>
      <point x="851" y="80" type="curve" smooth="yes"/>
      <point x="969" y="152"/>
      <point x="1032" y="277"/>
      <point x="1032" y="414" type="curve" smooth="yes"/>
      <point x="1032" y="496"/>
      <point x="1011" y="566"/>
      <point x="970" y="625" type="curve" smooth="yes"/>
      <point x="887" y="741"/>
      <point x="739" y="805"/>
      <point x="558" y="805" type="curve" smooth="yes"/>
      <point x="502" y="805" type="line"/>
      <point x="502" y="850" type="line"/>
      <point x="975" y="1443" type="line"/>
      <point x="975" y="1444" type="line"/>
      <point x="254" y="1444" type="line"/>
      <point x="254" y="1490" type="line"/>
      <point x="1040" y="1490" type="line"/>
      <point x="1040" y="1452" type="line"/>
      <point x="533" y="817" type="line"/>
      <point x="533" y="839" type="line"/>
      <point x="642" y="846"/>
      <point x="738" y="833"/>
      <point x="820" y="798" type="curve" smooth="yes"/>
      <point x="901" y="763"/>
      <point x="965" y="713"/>
      <point x="1010" y="647" type="curve" smooth="yes"/>
      <point x="1055" y="580"/>
      <point x="1078" y="503"/>
      <point x="1078" y="414" type="curve" smooth="yes"/>
      <point x="1078" y="335"/>
      <point x="1060" y="263"/>
      <point x="1025" y="197" type="curve" smooth="yes"/>
      <point x="989" y="131"/>
      <point x="938" y="78"/>
      <point x="872" y="39" type="curve" smooth="yes"/>
      <point x="806" y="0"/>
      <point x="727" y="-20"/>
    </contour>
  </outline>
</glyph>
<glyph name="four" format="2">
  <advance width="1218"/>
  <unicode hex="0034"/>
  <outline>
    <contour>
      <point x="152" y="350" type="line"/>
      <point x="152" y="384" type="line"/>
      <point x="834" y="1490" type="line"/>
      <point x="864" y="1490" type="line"/>
      <point x="864" y="1394" type="line"/>
      <point x="830" y="1394" type="line"/>
      <point x="218" y="402" type="line"/>
      <point x="218" y="396" type="line"/>
      <point x="1068" y="396" type="line"/>
      <point x="1068" y="350" type="line"/>
    </contour>
    <contour>
      <point x="834" y="0" type="line"/>
      <point x="834" y="364" type="line"/>
      <point x="834" y="378" type="line"/>
      <point x="834" y="1490" type="line"/>
      <point x="882" y="1490" type="line"/>
      <point x="882" y="0" type="line"/>
    </contour>
  </outline>
</glyph>
<glyph name="five" format="2">
  <advance width="1169"/>
  <unicode hex="0035"/>
  <outline>
    <contour>
      <point x="564.364" y="-20.3636" type="qcurve" smooth="yes"/>
      <point x="448.727" y="-20.3636"/>
      <point x="271.273" y="80"/>
      <point x="170.909" y="257.455"/>
      <point x="171.636" y="372.364" type="qcurve"/>
      <point x="218.182" y="372.364" type="line"/>
      <point x="217.455" y="219.636"/>
      <point x="408.727" y="26.1818"/>
      <point x="564.364" y="26.1818" type="qcurve" smooth="yes"/>
      <point x="681.455" y="26.1818"/>
      <point x="860.364" y="141.091"/>
      <point x="960.727" y="338.909"/>
      <point x="960" y="462.545" type="qcurve" smooth="yes"/>
      <point x="959.273" y="594.909"/>
      <point x="849.455" y="788.364"/>
      <point x="668.364" y="893.091"/>
      <point x="561.455" y="893.091" type="qcurve" smooth="yes"/>
      <point x="473.455" y="893.091"/>
      <point x="330.909" y="826.182"/>
      <point x="252.364" y="744.727" type="qcurve"/>
      <point x="202.182" y="744.727" type="line"/>
      <point x="296.727" y="1489.45" type="line"/>
      <point x="957.091" y="1489.45" type="line"/>
      <point x="957.091" y="1442.91" type="line"/>
      <point x="337.455" y="1442.91" type="line"/>
      <point x="261.818" y="826.182" type="line"/>
      <point x="267.636" y="826.182" type="line"/>
      <point x="323.636" y="877.818"/>
      <point x="472" y="939.636"/>
      <point x="561.455" y="939.636" type="qcurve" smooth="yes"/>
      <point x="681.455" y="939.636"/>
      <point x="884.364" y="821.091"/>
      <point x="1007.27" y="606.545"/>
      <point x="1006.55" y="462.545" type="qcurve" smooth="yes"/>
      <point x="1005.82" y="324.364"/>
      <point x="892.364" y="106.182"/>
      <point x="693.091" y="-20.3636"/>
    </contour>
  </outline>
</glyph>
<glyph name="six.ss01" format="2">
  <advance width="1156"/>
  <unicode hex="0036"/>
  <unicode hex="E06F"/>
  <outline>
    <contour>
      <point x="578" y="-20" type="qcurve" smooth="yes"/>
      <point x="459" y="-20"/>
      <point x="264" y="106"/>
      <point x="148" y="317"/>
      <point x="148" y="446" type="qcurve" smooth="yes"/>
      <point x="148" y="502"/>
      <point x="173" y="606"/>
      <point x="217" y="700"/>
      <point x="246" y="742" type="qcurve" smooth="yes"/>
      <point x="762" y="1490" type="line"/>
      <point x="818" y="1490" type="line"/>
      <point x="346" y="808" type="line"/>
      <point x="336" y="808" type="line"/>
      <point x="350" y="830"/>
      <point x="415" y="877"/>
      <point x="514" y="910"/>
      <point x="578" y="910" type="qcurve" smooth="yes"/>
      <point x="697" y="910"/>
      <point x="892" y="785"/>
      <point x="1008" y="574"/>
      <point x="1008" y="446" type="qcurve" smooth="yes"/>
      <point x="1008" y="317"/>
      <point x="892" y="106"/>
      <point x="697" y="-20"/>
    </contour>
    <contour>
      <point x="578" y="26" type="qcurve" smooth="yes"/>
      <point x="684" y="26"/>
      <point x="858" y="139"/>
      <point x="962" y="330"/>
      <point x="962" y="446" type="qcurve" smooth="yes"/>
      <point x="962" y="561"/>
      <point x="858" y="751"/>
      <point x="684" y="864"/>
      <point x="578" y="864" type="qcurve" smooth="yes"/>
      <point x="472" y="864"/>
      <point x="298" y="751"/>
      <point x="194" y="561"/>
      <point x="194" y="446" type="qcurve" smooth="yes"/>
      <point x="194" y="330"/>
      <point x="298" y="139"/>
      <point x="472" y="26"/>
    </contour>
  </outline>
</glyph>
<glyph name="eight" format="2">
  <advance width="1222"/>
  <unicode hex="0038"/>
  <outline>
    <contour>
      <point x="610" y="-20" type="curve" smooth="yes"/>
      <point x="525" y="-20"/>
      <point x="448" y="-2"/>
      <point x="378" y="35" type="curve" smooth="yes"/>
      <point x="308" y="71"/>
      <point x="252" y="120"/>
      <point x="211" y="181" type="curve" smooth="yes"/>
      <point x="169" y="242"/>
      <point x="148" y="309"/>
      <point x="148" y="384" type="curve" smooth="yes"/>
      <point x="148" y="443"/>
      <point x="162" y="500"/>
      <point x="189" y="553" type="curve" smooth="yes"/>
      <point x="243" y="659"/>
      <point x="341" y="740"/>
      <point x="462" y="768" type="curve"/>
      <point x="462" y="774" type="line"/>
      <point x="385" y="801"/>
      <point x="322" y="847"/>
      <point x="273" y="912" type="curve" smooth="yes"/>
      <point x="223" y="977"/>
      <point x="198" y="1050"/>
      <point x="198" y="1132" type="curve" smooth="yes"/>
      <point x="198" y="1203"/>
      <point x="217" y="1267"/>
      <point x="254" y="1324" type="curve" smooth="yes"/>
      <point x="291" y="1381"/>
      <point x="340" y="1426"/>
      <point x="403" y="1460" type="curve" smooth="yes"/>
      <point x="465" y="1493"/>
      <point x="534" y="1510"/>
      <point x="610" y="1510" type="curve" smooth="yes"/>
      <point x="685" y="1510"/>
      <point x="754" y="1493"/>
      <point x="817" y="1460" type="curve" smooth="yes"/>
      <point x="880" y="1427"/>
      <point x="930" y="1382"/>
      <point x="968" y="1325" type="curve" smooth="yes"/>
      <point x="1005" y="1268"/>
      <point x="1024" y="1203"/>
      <point x="1024" y="1132" type="curve" smooth="yes"/>
      <point x="1024" y="1051"/>
      <point x="1000" y="977"/>
      <point x="951" y="912" type="curve" smooth="yes"/>
      <point x="902" y="846"/>
      <point x="838" y="800"/>
      <point x="760" y="774" type="curve"/>
      <point x="760" y="768" type="line"/>
      <point x="821" y="755"/>
      <point x="875" y="729"/>
      <point x="922" y="691" type="curve" smooth="yes"/>
      <point x="1017" y="614"/>
      <point x="1074" y="503"/>
      <point x="1074" y="384" type="curve" smooth="yes"/>
      <point x="1074" y="309"/>
      <point x="1053" y="242"/>
      <point x="1012" y="181" type="curve" smooth="yes"/>
      <point x="970" y="120"/>
      <point x="914" y="71"/>
      <point x="844" y="35" type="curve" smooth="yes"/>
      <point x="774" y="-2"/>
      <point x="696" y="-20"/>
    </contour>
    <contour>
      <point x="610" y="26" type="curve" smooth="yes"/>
      <point x="688" y="26"/>
      <point x="758" y="42"/>
      <point x="821" y="75" type="curve" smooth="yes"/>
      <point x="884" y="108"/>
      <point x="934" y="151"/>
      <point x="971" y="206" type="curve" smooth="yes"/>
      <point x="1008" y="261"/>
      <point x="1026" y="321"/>
      <point x="1026" y="386" type="curve" smooth="yes"/>
      <point x="1026" y="453"/>
      <point x="1008" y="513"/>
      <point x="971" y="568" type="curve" smooth="yes"/>
      <point x="897" y="677"/>
      <point x="766" y="748"/>
      <point x="610" y="748" type="curve" smooth="yes"/>
      <point x="533" y="748"/>
      <point x="463" y="732"/>
      <point x="400" y="699" type="curve" smooth="yes"/>
      <point x="274" y="634"/>
      <point x="194" y="519"/>
      <point x="194" y="386" type="curve" smooth="yes"/>
      <point x="194" y="321"/>
      <point x="213" y="261"/>
      <point x="250" y="206" type="curve" smooth="yes"/>
      <point x="287" y="151"/>
      <point x="338" y="108"/>
      <point x="401" y="75" type="curve" smooth="yes"/>
      <point x="464" y="42"/>
      <point x="533" y="26"/>
    </contour>
    <contour>
      <point x="610" y="788" type="curve" smooth="yes"/>
      <point x="677" y="788"/>
      <point x="739" y="804"/>
      <point x="795" y="836" type="curve" smooth="yes"/>
      <point x="850" y="867"/>
      <point x="895" y="909"/>
      <point x="928" y="961" type="curve" smooth="yes"/>
      <point x="961" y="1013"/>
      <point x="978" y="1070"/>
      <point x="978" y="1132" type="curve" smooth="yes"/>
      <point x="978" y="1194"/>
      <point x="961" y="1250"/>
      <point x="928" y="1301" type="curve" smooth="yes"/>
      <point x="861" y="1401"/>
      <point x="745" y="1464"/>
      <point x="610" y="1464" type="curve" smooth="yes"/>
      <point x="543" y="1464"/>
      <point x="482" y="1449"/>
      <point x="427" y="1420" type="curve" smooth="yes"/>
      <point x="315" y="1361"/>
      <point x="244" y="1256"/>
      <point x="244" y="1132" type="curve" smooth="yes"/>
      <point x="244" y="1070"/>
      <point x="261" y="1013"/>
      <point x="294" y="961" type="curve" smooth="yes"/>
      <point x="327" y="909"/>
      <point x="371" y="867"/>
      <point x="427" y="836" type="curve" smooth="yes"/>
      <point x="482" y="804"/>
      <point x="543" y="788"/>
    </contour>
  </outline>
</glyph>
<glyph name="nine.ss01" format="2">
  <advance width="1156"/>
  <unicode hex="0039"/>
  <unicode hex="E070"/>
  <outline>
    <contour>
      <point x="578" y="1510" type="curve" smooth="yes"/>
      <point x="657" y="1510"/>
      <point x="730" y="1489"/>
      <point x="795" y="1448" type="curve" smooth="yes"/>
      <point x="860" y="1406"/>
      <point x="911" y="1350"/>
      <point x="950" y="1279" type="curve" smooth="yes"/>
      <point x="989" y="1208"/>
      <point x="1008" y="1130"/>
      <point x="1008" y="1044" type="curve" smooth="yes"/>
      <point x="1008" y="988"/>
      <point x="999" y="935"/>
      <point x="981" y="886" type="curve" smooth="yes"/>
      <point x="963" y="836"/>
      <point x="939" y="790"/>
      <point x="910" y="748" type="curve" smooth="yes"/>
      <point x="394" y="0" type="line"/>
      <point x="338" y="0" type="line"/>
      <point x="810" y="682" type="line"/>
      <point x="820" y="682" type="line"/>
      <point x="811" y="667"/>
      <point x="796" y="652"/>
      <point x="775" y="637" type="curve" smooth="yes"/>
      <point x="731" y="605"/>
      <point x="665" y="580"/>
      <point x="578" y="580" type="curve" smooth="yes"/>
      <point x="499" y="580"/>
      <point x="427" y="601"/>
      <point x="362" y="643" type="curve" smooth="yes"/>
      <point x="297" y="684"/>
      <point x="245" y="740"/>
      <point x="206" y="811" type="curve" smooth="yes"/>
      <point x="167" y="881"/>
      <point x="148" y="959"/>
      <point x="148" y="1044" type="curve" smooth="yes"/>
      <point x="148" y="1130"/>
      <point x="167" y="1208"/>
      <point x="206" y="1279" type="curve" smooth="yes"/>
      <point x="245" y="1350"/>
      <point x="297" y="1406"/>
      <point x="362" y="1448" type="curve" smooth="yes"/>
      <point x="427" y="1489"/>
      <point x="499" y="1510"/>
    </contour>
    <contour>
      <point x="578" y="1464" type="curve" smooth="yes"/>
      <point x="508" y="1464"/>
      <point x="444" y="1445"/>
      <point x="386" y="1408" type="curve" smooth="yes"/>
      <point x="327" y="1370"/>
      <point x="281" y="1319"/>
      <point x="246" y="1256" type="curve" smooth="yes"/>
      <point x="211" y="1192"/>
      <point x="194" y="1121"/>
      <point x="194" y="1044" type="curve" smooth="yes"/>
      <point x="194" y="967"/>
      <point x="211" y="897"/>
      <point x="246" y="834" type="curve" smooth="yes"/>
      <point x="281" y="771"/>
      <point x="327" y="720"/>
      <point x="386" y="683" type="curve" smooth="yes"/>
      <point x="444" y="645"/>
      <point x="508" y="626"/>
      <point x="578" y="626" type="curve" smooth="yes"/>
      <point x="649" y="626"/>
      <point x="713" y="645"/>
      <point x="771" y="683" type="curve" smooth="yes"/>
      <point x="829" y="720"/>
      <point x="875" y="771"/>
      <point x="910" y="834" type="curve" smooth="yes"/>
      <point x="945" y="897"/>
      <point x="962" y="967"/>
      <point x="962" y="1044" type="curve" smooth="yes"/>
      <point x="962" y="1121"/>
      <point x="945" y="1192"/>
      <point x="910" y="1256" type="curve" smooth="yes"/>
      <point x="875" y="1319"/>
      <point x="829" y="1370"/>
      <point x="771" y="1408" type="curve" smooth="yes"/>
      <point x="713" y="1445"/>
      <point x="649" y="1464"/>
    </contour>
  </outline>
</glyph>
<glyph name="question.ss07" format="2">
  <advance width="980"/>
  <unicode hex="003F"/>
  <unicode hex="E2B0"/>
  <outline>
    <contour>
      <point x="424" y="442" type="line"/>
      <point x="424" y="544" type="line" smooth="yes"/>
      <point x="424" y="611"/>
      <point x="461" y="715"/>
      <point x="548" y="809"/>
      <point x="622" y="862" type="qcurve"/>
      <point x="733" y="939"/>
      <point x="818" y="1067"/>
      <point x="818" y="1146" type="qcurve" smooth="yes"/>
      <point x="818" y="1239"/>
      <point x="730" y="1382"/>
      <point x="580" y="1464"/>
      <point x="486" y="1464" type="qcurve" smooth="yes"/>
      <point x="387" y="1464"/>
      <point x="232" y="1373"/>
      <point x="142" y="1217"/>
      <point x="142" y="1118" type="qcurve"/>
      <point x="96" y="1118" type="line"/>
      <point x="96" y="1230"/>
      <point x="198" y="1407"/>
      <point x="375" y="1510"/>
      <point x="486" y="1510" type="qcurve" smooth="yes"/>
      <point x="593" y="1510"/>
      <point x="764" y="1416"/>
      <point x="864" y="1251"/>
      <point x="864" y="1146" type="qcurve" smooth="yes"/>
      <point x="864" y="1054"/>
      <point x="767" y="909"/>
      <point x="648" y="824" type="qcurve" smooth="yes"/>
      <point x="579" y="774"/>
      <point x="503" y="691"/>
      <point x="472" y="603"/>
      <point x="472" y="544" type="qcurve" smooth="yes"/>
      <point x="472" y="442" type="line"/>
    </contour>
    <contour>
      <point x="403" y="0" type="line"/>
      <point x="403" y="90" type="line"/>
      <point x="493" y="90" type="line"/>
      <point x="493" y="0" type="line"/>
    </contour>
  </outline>
</glyph>
<glyph name="at" format="2">
  <advance width="2010"/>
  <unicode hex="0040"/>
  <outline>
    <contour>
      <point x="1006" y="-396" type="curve" smooth="yes"/>
      <point x="769" y="-396"/>
      <point x="556" y="-296"/>
      <point x="399" y="-128" type="curve" smooth="yes"/>
      <point x="242" y="40"/>
      <point x="148" y="266"/>
      <point x="148" y="518" type="curve" smooth="yes"/>
      <point x="148" y="771"/>
      <point x="242" y="997"/>
      <point x="399" y="1165" type="curve" smooth="yes"/>
      <point x="556" y="1332"/>
      <point x="769" y="1432"/>
      <point x="1006" y="1432" type="curve" smooth="yes"/>
      <point x="1242" y="1432"/>
      <point x="1454" y="1332"/>
      <point x="1611" y="1165" type="curve" smooth="yes"/>
      <point x="1768" y="997"/>
      <point x="1862" y="771"/>
      <point x="1862" y="518" type="curve" smooth="yes"/>
      <point x="1862" y="386"/>
      <point x="1825" y="271"/>
      <point x="1762" y="188" type="curve" smooth="yes"/>
      <point x="1730" y="146"/>
      <point x="1692" y="114"/>
      <point x="1649" y="91" type="curve" smooth="yes"/>
      <point x="1606" y="68"/>
      <point x="1558" y="56"/>
      <point x="1506" y="56" type="curve" smooth="yes"/>
      <point x="1467" y="56"/>
      <point x="1437" y="63"/>
      <point x="1414" y="77" type="curve" smooth="yes"/>
      <point x="1391" y="91"/>
      <point x="1375" y="115"/>
      <point x="1365" y="148" type="curve" smooth="yes"/>
      <point x="1355" y="181"/>
      <point x="1350" y="225"/>
      <point x="1350" y="280" type="curve"/>
      <point x="1344" y="280" type="line"/>
      <point x="1309" y="207"/>
      <point x="1260" y="148"/>
      <point x="1197" y="103" type="curve" smooth="yes"/>
      <point x="1134" y="57"/>
      <point x="1063" y="34"/>
      <point x="986" y="34" type="curve" smooth="yes"/>
      <point x="909" y="34"/>
      <point x="840" y="56"/>
      <point x="778" y="99" type="curve" smooth="yes"/>
      <point x="715" y="142"/>
      <point x="666" y="201"/>
      <point x="629" y="274" type="curve" smooth="yes"/>
      <point x="592" y="347"/>
      <point x="573" y="429"/>
      <point x="573" y="518" type="curve" smooth="yes"/>
      <point x="573" y="607"/>
      <point x="592" y="688"/>
      <point x="629" y="761" type="curve" smooth="yes"/>
      <point x="666" y="834"/>
      <point x="715" y="892"/>
      <point x="778" y="935" type="curve" smooth="yes"/>
      <point x="840" y="978"/>
      <point x="909" y="1000"/>
      <point x="986" y="1000" type="curve" smooth="yes"/>
      <point x="1063" y="1000"/>
      <point x="1134" y="978"/>
      <point x="1197" y="933" type="curve" smooth="yes"/>
      <point x="1260" y="888"/>
      <point x="1309" y="828"/>
      <point x="1344" y="754" type="curve"/>
      <point x="1350" y="754" type="line"/>
      <point x="1350" y="986" type="line"/>
      <point x="1396" y="986" type="line"/>
      <point x="1396" y="280" type="line" smooth="yes"/>
      <point x="1396" y="209"/>
      <point x="1404" y="161"/>
      <point x="1419" y="138" type="curve" smooth="yes"/>
      <point x="1434" y="114"/>
      <point x="1463" y="102"/>
      <point x="1506" y="102" type="curve" smooth="yes"/>
      <point x="1565" y="102"/>
      <point x="1618" y="120"/>
      <point x="1665" y="156" type="curve" smooth="yes"/>
      <point x="1758" y="228"/>
      <point x="1816" y="359"/>
      <point x="1816" y="518" type="curve" smooth="yes"/>
      <point x="1816" y="758"/>
      <point x="1727" y="973"/>
      <point x="1578" y="1132" type="curve" smooth="yes"/>
      <point x="1429" y="1291"/>
      <point x="1229" y="1386"/>
      <point x="1006" y="1386" type="curve" smooth="yes"/>
      <point x="782" y="1386"/>
      <point x="581" y="1291"/>
      <point x="432" y="1132" type="curve" smooth="yes"/>
      <point x="283" y="973"/>
      <point x="194" y="758"/>
      <point x="194" y="518" type="curve" smooth="yes"/>
      <point x="194" y="278"/>
      <point x="283" y="63"/>
      <point x="432" y="-96" type="curve" smooth="yes"/>
      <point x="581" y="-255"/>
      <point x="782" y="-350"/>
      <point x="1006" y="-350" type="curve" smooth="yes"/>
      <point x="1059" y="-350"/>
      <point x="1112" y="-345"/>
      <point x="1163" y="-334" type="curve" smooth="yes"/>
      <point x="1265" y="-312"/>
      <point x="1361" y="-269"/>
      <point x="1448" y="-206" type="curve"/>
      <point x="1478" y="-244" type="line"/>
      <point x="1431" y="-277"/>
      <point x="1382" y="-304"/>
      <point x="1331" y="-327" type="curve" smooth="yes"/>
      <point x="1228" y="-372"/>
      <point x="1119" y="-396"/>
    </contour>
    <contour>
      <point x="986" y="80" type="curve" smooth="yes"/>
      <point x="1053" y="80"/>
      <point x="1115" y="100"/>
      <point x="1170" y="139" type="curve" smooth="yes"/>
      <point x="1225" y="178"/>
      <point x="1268" y="231"/>
      <point x="1301" y="298" type="curve" smooth="yes"/>
      <point x="1334" y="364"/>
      <point x="1350" y="437"/>
      <point x="1350" y="518" type="curve" smooth="yes"/>
      <point x="1350" y="599"/>
      <point x="1334" y="672"/>
      <point x="1301" y="738" type="curve" smooth="yes"/>
      <point x="1268" y="803"/>
      <point x="1224" y="856"/>
      <point x="1169" y="895" type="curve" smooth="yes"/>
      <point x="1114" y="934"/>
      <point x="1053" y="954"/>
      <point x="986" y="954" type="curve" smooth="yes"/>
      <point x="919" y="954"/>
      <point x="858" y="934"/>
      <point x="803" y="895" type="curve" smooth="yes"/>
      <point x="747" y="856"/>
      <point x="702" y="803"/>
      <point x="669" y="738" type="curve" smooth="yes"/>
      <point x="636" y="672"/>
      <point x="619" y="599"/>
      <point x="619" y="518" type="curve" smooth="yes"/>
      <point x="619" y="437"/>
      <point x="636" y="364"/>
      <point x="669" y="298" type="curve" smooth="yes"/>
      <point x="702" y="231"/>
      <point x="747" y="178"/>
      <point x="803" y="139" type="curve" smooth="yes"/>
      <point x="858" y="100"/>
      <point x="919" y="80"/>
    </contour>
  </outline>
</glyph>
<glyph name="A" format="2">
  <advance width="1310"/>
  <unicode hex="0041"/>
  <outline>
    <contour>
      <point x="66" y="0" type="line"/>
      <point x="623" y="1490" type="line"/>
      <point x="686" y="1490" type="line"/>
      <point x="1244" y="0" type="line"/>
      <point x="1195" y="0" type="line"/>
      <point x="763" y="1154" type="line" smooth="yes"/>
      <point x="733" y="1234"/>
      <point x="674" y="1394"/>
      <point x="645" y="1474" type="qcurve"/>
      <point x="663" y="1474" type="line"/>
      <point x="634" y="1394"/>
      <point x="575" y="1234"/>
      <point x="545" y="1154" type="qcurve" smooth="yes"/>
      <point x="115" y="0" type="line"/>
    </contour>
    <contour>
      <point x="285" y="496" type="line"/>
      <point x="285" y="542" type="line"/>
      <point x="1025" y="542" type="line"/>
      <point x="1025" y="496" type="line"/>
    </contour>
  </outline>
</glyph>
<glyph name="B" format="2">
  <advance width="1310"/>
  <unicode hex="0042"/>
  <outline>
    <contour>
      <point x="232" y="0" type="line"/>
      <point x="232" y="1490" type="line"/>
      <point x="696" y="1490" type="line" smooth="yes"/>
      <point x="821" y="1490"/>
      <point x="999" y="1399"/>
      <point x="1094" y="1229"/>
      <point x="1094" y="1112" type="qcurve" smooth="yes"/>
      <point x="1094" y="1024"/>
      <point x="1041" y="878"/>
      <point x="940" y="778"/>
      <point x="868" y="760" type="qcurve"/>
      <point x="868" y="754" type="line"/>
      <point x="942" y="747"/>
      <point x="1072" y="648"/>
      <point x="1152" y="485"/>
      <point x="1152" y="382" type="qcurve" smooth="yes"/>
      <point x="1152" y="267"/>
      <point x="1056" y="95"/>
      <point x="874" y="0"/>
      <point x="746" y="0" type="qcurve" smooth="yes"/>
    </contour>
    <contour>
      <point x="278" y="46" type="line"/>
      <point x="746" y="46" type="line" smooth="yes"/>
      <point x="910" y="46"/>
      <point x="1106" y="231"/>
      <point x="1106" y="382" type="qcurve" smooth="yes"/>
      <point x="1106" y="485"/>
      <point x="1014" y="644"/>
      <point x="851" y="734"/>
      <point x="746" y="734" type="qcurve" smooth="yes"/>
      <point x="278" y="734" type="line"/>
    </contour>
    <contour>
      <point x="278" y="780" type="line"/>
      <point x="746" y="780" type="line" smooth="yes"/>
      <point x="848" y="780"/>
      <point x="982" y="872"/>
      <point x="1048" y="1023"/>
      <point x="1048" y="1112" type="qcurve" smooth="yes"/>
      <point x="1048" y="1270"/>
      <point x="859" y="1444"/>
      <point x="696" y="1444" type="qcurve" smooth="yes"/>
      <point x="278" y="1444" type="line"/>
    </contour>
  </outline>
</glyph>
<glyph name="D" format="2">
  <advance width="1462"/>
  <unicode hex="0044"/>
  <anchor x="724" y="0" name="m.uni0326"/>
  <anchor x="663" y="1490" name="m.uni030F_1"/>
  <outline>
    <contour>
      <point x="622" y="0" type="curve" smooth="yes"/>
      <point x="256" y="0" type="line"/>
      <point x="256" y="46" type="line"/>
      <point x="622" y="46" type="line" smooth="yes"/>
      <point x="760" y="46"/>
      <point x="877" y="74"/>
      <point x="974" y="130" type="curve" smooth="yes"/>
      <point x="1166" y="242"/>
      <point x="1268" y="457"/>
      <point x="1268" y="750" type="curve" smooth="yes"/>
      <point x="1268" y="895"/>
      <point x="1244" y="1020"/>
      <point x="1197" y="1123" type="curve" smooth="yes"/>
      <point x="1101" y="1330"/>
      <point x="919" y="1444"/>
      <point x="660" y="1444" type="curve" smooth="yes"/>
      <point x="256" y="1444" type="line"/>
      <point x="256" y="1490" type="line"/>
      <point x="660" y="1490" type="line" smooth="yes"/>
      <point x="797" y="1490"/>
      <point x="915" y="1461"/>
      <point x="1012" y="1402" type="curve" smooth="yes"/>
      <point x="1207" y="1284"/>
      <point x="1314" y="1059"/>
      <point x="1314" y="750" type="curve" smooth="yes"/>
      <point x="1314" y="592"/>
      <point x="1287" y="457"/>
      <point x="1233" y="345" type="curve" smooth="yes"/>
      <point x="1124" y="121"/>
      <point x="914" y="0"/>
    </contour>
    <contour>
      <point x="278" y="1490" type="line"/>
      <point x="278" y="0" type="line"/>
      <point x="232" y="0" type="line"/>
      <point x="232" y="1490" type="line"/>
    </contour>
  </outline>
</glyph>
<glyph name="E" format="2">
  <advance width="1196"/>
  <unicode hex="0045"/>
  <outline>
    <contour>
      <point x="232" y="0" type="line"/>
      <point x="232" y="1490" type="line"/>
      <point x="1026" y="1490" type="line"/>
      <point x="1026" y="1442" type="line"/>
      <point x="280" y="1442" type="line"/>
      <point x="280" y="768" type="line"/>
      <point x="984" y="768" type="line"/>
      <point x="984" y="722" type="line"/>
      <point x="280" y="722" type="line"/>
      <point x="280" y="46" type="line"/>
      <point x="1048" y="46" type="line"/>
      <point x="1048" y="0" type="line"/>
    </contour>
  </outline>
</glyph>
<glyph name="F" format="2">
  <advance width="1196"/>
  <unicode hex="0046"/>
  <anchor x="350" y="0" name="m.uni0326"/>
  <anchor x="650" y="1490" name="m.uni030F_1"/>
  <outline>
    <contour>
      <point x="232" y="0" type="line"/>
      <point x="232" y="1490" type="line"/>
      <point x="1030" y="1490" type="line"/>
      <point x="1030" y="1442" type="line"/>
      <point x="278" y="1442" type="line"/>
      <point x="278" y="768" type="line"/>
      <point x="960" y="768" type="line"/>
      <point x="960" y="722" type="line"/>
      <point x="278" y="722" type="line"/>
      <point x="278" y="0" type="line"/>
    </contour>
  </outline>
</glyph>
<glyph name="H" format="2">
  <advance width="1504"/>
  <unicode hex="0048"/>
  <outline>
    <contour>
      <point x="232" y="0" type="line"/>
      <point x="232" y="1490" type="line"/>
      <point x="278" y="1490" type="line"/>
      <point x="278" y="784" type="line"/>
      <point x="1226" y="784" type="line"/>
      <point x="1226" y="1490" type="line"/>
      <point x="1272" y="1490" type="line"/>
      <point x="1272" y="0" type="line"/>
      <point x="1226" y="0" type="line"/>
      <point x="1226" y="738" type="line"/>
      <point x="278" y="738" type="line"/>
      <point x="278" y="0" type="line"/>
    </contour>
  </outline>
</glyph>
<glyph name="I" format="2">
  <advance width="510"/>
  <unicode hex="0049"/>
  <outline>
    <contour>
      <point x="278" y="1490" type="line"/>
      <point x="278" y="0" type="line"/>
      <point x="232" y="0" type="line"/>
      <point x="232" y="1490" type="line"/>
    </contour>
  </outline>
</glyph>
<glyph name="J" format="2">
  <advance width="1144"/>
  <unicode hex="004A"/>
  <anchor x="1059" y="1490" name="m.uni030F_1"/>
  <outline>
    <contour>
      <point x="552" y="-20" type="curve" smooth="yes"/>
      <point x="431" y="-20"/>
      <point x="336" y="17"/>
      <point x="266" y="92" type="curve" smooth="yes"/>
      <point x="195" y="167"/>
      <point x="160" y="268"/>
      <point x="160" y="396" type="curve" smooth="yes"/>
      <point x="160" y="464" type="line"/>
      <point x="206" y="464" type="line"/>
      <point x="206" y="396" type="line" smooth="yes"/>
      <point x="206" y="281"/>
      <point x="237" y="191"/>
      <point x="298" y="125" type="curve" smooth="yes"/>
      <point x="359" y="59"/>
      <point x="444" y="26"/>
      <point x="552" y="26" type="curve" smooth="yes"/>
      <point x="660" y="26"/>
      <point x="745" y="59"/>
      <point x="806" y="125" type="curve" smooth="yes"/>
      <point x="867" y="191"/>
      <point x="898" y="281"/>
      <point x="898" y="396" type="curve" smooth="yes"/>
      <point x="898" y="1490" type="line"/>
      <point x="944" y="1490" type="line"/>
      <point x="944" y="396" type="line" smooth="yes"/>
      <point x="944" y="268"/>
      <point x="909" y="167"/>
      <point x="839" y="92" type="curve" smooth="yes"/>
      <point x="768" y="17"/>
      <point x="673" y="-20"/>
    </contour>
  </outline>
</glyph>
<glyph name="K" format="2">
  <advance width="1224"/>
  <unicode hex="004B"/>
  <anchor x="786" y="0" name="m.uni0326"/>
  <anchor x="786" y="1490" name="m.uni030F_1"/>
  <outline>
    <contour>
      <point x="273" y="536" type="line"/>
      <point x="258" y="584" type="line"/>
      <point x="318" y="649"/>
      <point x="428" y="768"/>
      <point x="538" y="888"/>
      <point x="598" y="952" type="qcurve" smooth="yes"/>
      <point x="1097" y="1490" type="line"/>
      <point x="1158" y="1490" type="line"/>
      <point x="545" y="828" type="line"/>
      <point x="533" y="817" type="line"/>
    </contour>
    <contour>
      <point x="232" y="0" type="line"/>
      <point x="232" y="1490" type="line"/>
      <point x="278" y="1490" type="line"/>
      <point x="278" y="960" type="line"/>
      <point x="278" y="592" type="line"/>
      <point x="278" y="560" type="line"/>
      <point x="278" y="0" type="line"/>
    </contour>
    <contour>
      <point x="1101" y="0" type="line"/>
      <point x="513" y="826" type="line"/>
      <point x="550" y="852" type="line"/>
      <point x="1156" y="0" type="line"/>
    </contour>
  </outline>
</glyph>
<glyph name="L" format="2">
  <advance width="1152"/>
  <unicode hex="004C"/>
  <outline>
    <contour>
      <point x="232" y="0" type="line"/>
      <point x="232" y="1490" type="line"/>
      <point x="280" y="1490" type="line"/>
      <point x="280" y="46" type="line"/>
      <point x="1024" y="46" type="line"/>
      <point x="1024" y="0" type="line"/>
    </contour>
  </outline>
</glyph>
<glyph name="M" format="2">
  <advance width="1832"/>
  <unicode hex="004D"/>
  <anchor x="1103" y="0" name="m.uni0326"/>
  <anchor x="1103" y="1490" name="m.uni030F_1"/>
  <outline>
    <contour>
      <point x="232" y="0" type="line"/>
      <point x="232" y="1490" type="line"/>
      <point x="296" y="1490" type="line"/>
      <point x="811" y="304" type="line" smooth="yes"/>
      <point x="821" y="281"/>
      <point x="831" y="259"/>
      <point x="841" y="236" type="curve"/>
      <point x="850" y="213"/>
      <point x="860" y="189"/>
      <point x="870" y="166" type="curve"/>
      <point x="879" y="142"/>
      <point x="889" y="118"/>
      <point x="899" y="95" type="curve"/>
      <point x="908" y="72"/>
      <point x="918" y="48"/>
      <point x="928" y="24" type="curve"/>
      <point x="904" y="24" type="line"/>
      <point x="914" y="48"/>
      <point x="924" y="72"/>
      <point x="934" y="95" type="curve"/>
      <point x="943" y="118"/>
      <point x="953" y="142"/>
      <point x="963" y="166" type="curve" smooth="yes"/>
      <point x="973" y="189"/>
      <point x="983" y="213"/>
      <point x="993" y="236" type="curve"/>
      <point x="1002" y="259"/>
      <point x="1012" y="281"/>
      <point x="1022" y="304" type="curve" smooth="yes"/>
      <point x="1536" y="1490" type="line"/>
      <point x="1600" y="1490" type="line"/>
      <point x="1600" y="0" type="line"/>
      <point x="1554" y="0" type="line"/>
      <point x="1554" y="1136" type="line" smooth="yes"/>
      <point x="1554" y="1189"/>
      <point x="1554" y="1244"/>
      <point x="1555" y="1300" type="curve"/>
      <point x="1555" y="1356"/>
      <point x="1555" y="1411"/>
      <point x="1555" y="1464" type="curve"/>
      <point x="1569" y="1464" type="line"/>
      <point x="1546" y="1408"/>
      <point x="1524" y="1353"/>
      <point x="1501" y="1298" type="curve" smooth="yes"/>
      <point x="1478" y="1243"/>
      <point x="1455" y="1189"/>
      <point x="1432" y="1136" type="curve" smooth="yes"/>
      <point x="939" y="0" type="line"/>
      <point x="893" y="0" type="line"/>
      <point x="400" y="1136" type="line" smooth="yes"/>
      <point x="377" y="1189"/>
      <point x="354" y="1243"/>
      <point x="331" y="1298" type="curve" smooth="yes"/>
      <point x="308" y="1353"/>
      <point x="286" y="1408"/>
      <point x="263" y="1464" type="curve"/>
      <point x="277" y="1464" type="line"/>
      <point x="277" y="1411"/>
      <point x="277" y="1356"/>
      <point x="278" y="1300" type="curve"/>
      <point x="278" y="1244"/>
      <point x="278" y="1189"/>
      <point x="278" y="1136" type="curve" smooth="yes"/>
      <point x="278" y="0" type="line"/>
    </contour>
  </outline>
</glyph>
<glyph name="P" format="2">
  <advance width="1242"/>
  <unicode hex="0050"/>
  <anchor x="712" y="1490" name="m.uni030F_1"/>
  <outline>
    <contour>
      <point x="232" y="0" type="line"/>
      <point x="232" y="1490" type="line"/>
      <point x="670" y="1490" type="line" smooth="yes"/>
      <point x="753" y="1490"/>
      <point x="827" y="1471"/>
      <point x="891" y="1434" type="curve" smooth="yes"/>
      <point x="1019" y="1359"/>
      <point x="1096" y="1223"/>
      <point x="1096" y="1054" type="curve" smooth="yes"/>
      <point x="1096" y="969"/>
      <point x="1078" y="894"/>
      <point x="1042" y="829" type="curve" smooth="yes"/>
      <point x="969" y="698"/>
      <point x="837" y="620"/>
      <point x="670" y="620" type="curve" smooth="yes"/>
      <point x="256" y="620" type="line"/>
      <point x="256" y="666" type="line"/>
      <point x="670" y="666" type="line" smooth="yes"/>
      <point x="744" y="666"/>
      <point x="810" y="683"/>
      <point x="867" y="716" type="curve" smooth="yes"/>
      <point x="981" y="782"/>
      <point x="1050" y="902"/>
      <point x="1050" y="1054" type="curve" smooth="yes"/>
      <point x="1050" y="1130"/>
      <point x="1034" y="1197"/>
      <point x="1001" y="1256" type="curve" smooth="yes"/>
      <point x="936" y="1373"/>
      <point x="818" y="1444"/>
      <point x="670" y="1444" type="curve" smooth="yes"/>
      <point x="278" y="1444" type="line"/>
      <point x="278" y="0" type="line"/>
    </contour>
  </outline>
</glyph>
<glyph name="Q" format="2">
  <advance width="1530"/>
  <unicode hex="0051"/>
  <anchor x="742" y="0" name="m.uni0326"/>
  <anchor x="742" y="1490" name="m.uni030F_1"/>
  <anchor x="1374" y="744" name="m.uni0328_4"/>
  <outline>
    <contour>
      <point x="824" y="466" type="line"/>
      <point x="882" y="466" type="line"/>
      <point x="1122" y="146" type="line"/>
      <point x="1132" y="134" type="line"/>
      <point x="1338" y="-140" type="line"/>
      <point x="1280" y="-140" type="line"/>
      <point x="1092" y="110" type="line"/>
      <point x="1082" y="122" type="line"/>
    </contour>
    <contour>
      <point x="766" y="-20" type="curve" smooth="yes"/>
      <point x="643" y="-20"/>
      <point x="536" y="12"/>
      <point x="443" y="77" type="curve" smooth="yes"/>
      <point x="350" y="141"/>
      <point x="277" y="231"/>
      <point x="226" y="346" type="curve" smooth="yes"/>
      <point x="174" y="461"/>
      <point x="148" y="593"/>
      <point x="148" y="744" type="curve" smooth="yes"/>
      <point x="148" y="896"/>
      <point x="174" y="1030"/>
      <point x="226" y="1145" type="curve" smooth="yes"/>
      <point x="278" y="1260"/>
      <point x="350" y="1349"/>
      <point x="443" y="1414" type="curve" smooth="yes"/>
      <point x="536" y="1478"/>
      <point x="643" y="1510"/>
      <point x="766" y="1510" type="curve" smooth="yes"/>
      <point x="888" y="1510"/>
      <point x="995" y="1478"/>
      <point x="1088" y="1414" type="curve" smooth="yes"/>
      <point x="1181" y="1349"/>
      <point x="1253" y="1260"/>
      <point x="1305" y="1145" type="curve" smooth="yes"/>
      <point x="1356" y="1030"/>
      <point x="1382" y="896"/>
      <point x="1382" y="744" type="curve" smooth="yes"/>
      <point x="1382" y="593"/>
      <point x="1356" y="460"/>
      <point x="1305" y="345" type="curve" smooth="yes"/>
      <point x="1253" y="230"/>
      <point x="1181" y="140"/>
      <point x="1088" y="76" type="curve" smooth="yes"/>
      <point x="995" y="12"/>
      <point x="888" y="-20"/>
    </contour>
    <contour>
      <point x="766" y="26" type="curve" smooth="yes"/>
      <point x="879" y="26"/>
      <point x="978" y="56"/>
      <point x="1064" y="117" type="curve" smooth="yes"/>
      <point x="1149" y="177"/>
      <point x="1216" y="261"/>
      <point x="1264" y="369" type="curve" smooth="yes"/>
      <point x="1312" y="477"/>
      <point x="1336" y="602"/>
      <point x="1336" y="744" type="curve" smooth="yes"/>
      <point x="1336" y="887"/>
      <point x="1312" y="1012"/>
      <point x="1264" y="1120" type="curve" smooth="yes"/>
      <point x="1216" y="1228"/>
      <point x="1149" y="1312"/>
      <point x="1064" y="1373" type="curve" smooth="yes"/>
      <point x="978" y="1434"/>
      <point x="879" y="1464"/>
      <point x="766" y="1464" type="curve" smooth="yes"/>
      <point x="653" y="1464"/>
      <point x="554" y="1434"/>
      <point x="468" y="1374" type="curve" smooth="yes"/>
      <point x="382" y="1314"/>
      <point x="315" y="1230"/>
      <point x="267" y="1122" type="curve" smooth="yes"/>
      <point x="218" y="1014"/>
      <point x="194" y="888"/>
      <point x="194" y="744" type="curve" smooth="yes"/>
      <point x="194" y="603"/>
      <point x="218" y="478"/>
      <point x="266" y="370" type="curve" smooth="yes"/>
      <point x="313" y="262"/>
      <point x="380" y="178"/>
      <point x="466" y="117" type="curve" smooth="yes"/>
      <point x="552" y="56"/>
      <point x="652" y="26"/>
    </contour>
  </outline>
</glyph>
<glyph name="R" format="2">
  <advance width="1260"/>
  <unicode hex="0052"/>
  <anchor x="701" y="0" name="m.uni0326"/>
  <anchor x="659" y="1490" name="m.uni030F_1"/>
  <outline>
    <contour>
      <point x="232" y="0" type="line"/>
      <point x="232" y="1490" type="line"/>
      <point x="670" y="1490" type="line" smooth="yes"/>
      <point x="753" y="1490"/>
      <point x="827" y="1472"/>
      <point x="891" y="1437" type="curve" smooth="yes"/>
      <point x="1019" y="1366"/>
      <point x="1096" y="1235"/>
      <point x="1096" y="1064" type="curve" smooth="yes"/>
      <point x="1096" y="980"/>
      <point x="1078" y="906"/>
      <point x="1042" y="843" type="curve" smooth="yes"/>
      <point x="969" y="716"/>
      <point x="837" y="642"/>
      <point x="670" y="642" type="curve" smooth="yes"/>
      <point x="256" y="642" type="line"/>
      <point x="256" y="688" type="line"/>
      <point x="670" y="688" type="line" smooth="yes"/>
      <point x="744" y="688"/>
      <point x="810" y="704"/>
      <point x="867" y="735" type="curve" smooth="yes"/>
      <point x="981" y="798"/>
      <point x="1050" y="913"/>
      <point x="1050" y="1064" type="curve" smooth="yes"/>
      <point x="1050" y="1141"/>
      <point x="1034" y="1207"/>
      <point x="1001" y="1264" type="curve" smooth="yes"/>
      <point x="936" y="1377"/>
      <point x="818" y="1444"/>
      <point x="670" y="1444" type="curve" smooth="yes"/>
      <point x="278" y="1444" type="line"/>
      <point x="278" y="0" type="line"/>
    </contour>
    <contour>
      <point x="1114" y="0" type="line"/>
      <point x="748" y="678" type="line"/>
      <point x="800" y="678" type="line"/>
      <point x="1166" y="0" type="line"/>
    </contour>
  </outline>
</glyph>
<glyph name="S" format="2">
  <advance width="1254"/>
  <unicode hex="0053"/>
  <anchor x="712" y="0" name="m.uni0326"/>
  <anchor x="737" y="1490" name="m.uni030F_1"/>
  <anchor x="705" y="0" name="m.uni0327_3"/>
  <outline>
    <contour>
      <point x="622" y="-24" type="curve" smooth="yes"/>
      <point x="531" y="-24"/>
      <point x="452" y="-8"/>
      <point x="385" y="24" type="curve" smooth="yes"/>
      <point x="249" y="87"/>
      <point x="167" y="203"/>
      <point x="158" y="350" type="curve"/>
      <point x="204" y="350" type="line"/>
      <point x="209" y="285"/>
      <point x="229" y="229"/>
      <point x="264" y="180" type="curve" smooth="yes"/>
      <point x="335" y="82"/>
      <point x="459" y="24"/>
      <point x="622" y="24" type="curve" smooth="yes"/>
      <point x="708" y="24"/>
      <point x="783" y="39"/>
      <point x="847" y="69" type="curve" smooth="yes"/>
      <point x="975" y="128"/>
      <point x="1050" y="238"/>
      <point x="1050" y="378" type="curve" smooth="yes"/>
      <point x="1050" y="431"/>
      <point x="1038" y="478"/>
      <point x="1015" y="519" type="curve" smooth="yes"/>
      <point x="968" y="599"/>
      <point x="871" y="661"/>
      <point x="710" y="710" type="curve" smooth="yes"/>
      <point x="542" y="762" type="line" smooth="yes"/>
      <point x="425" y="799"/>
      <point x="337" y="847"/>
      <point x="279" y="908" type="curve" smooth="yes"/>
      <point x="221" y="969"/>
      <point x="192" y="1042"/>
      <point x="192" y="1128" type="curve" smooth="yes"/>
      <point x="192" y="1201"/>
      <point x="211" y="1267"/>
      <point x="250" y="1325" type="curve" smooth="yes"/>
      <point x="326" y="1441"/>
      <point x="465" y="1512"/>
      <point x="634" y="1512" type="curve" smooth="yes"/>
      <point x="719" y="1512"/>
      <point x="794" y="1495"/>
      <point x="859" y="1461" type="curve" smooth="yes"/>
      <point x="987" y="1393"/>
      <point x="1067" y="1271"/>
      <point x="1076" y="1118" type="curve"/>
      <point x="1030" y="1118" type="line"/>
      <point x="1023" y="1219"/>
      <point x="984" y="1303"/>
      <point x="913" y="1368" type="curve" smooth="yes"/>
      <point x="842" y="1433"/>
      <point x="749" y="1466"/>
      <point x="634" y="1466" type="curve" smooth="yes"/>
      <point x="559" y="1466"/>
      <point x="491" y="1452"/>
      <point x="431" y="1423" type="curve" smooth="yes"/>
      <point x="311" y="1365"/>
      <point x="238" y="1259"/>
      <point x="238" y="1128" type="curve" smooth="yes"/>
      <point x="238" y="1078"/>
      <point x="249" y="1033"/>
      <point x="272" y="993" type="curve" smooth="yes"/>
      <point x="295" y="952"/>
      <point x="329" y="917"/>
      <point x="376" y="887" type="curve" smooth="yes"/>
      <point x="423" y="856"/>
      <point x="481" y="830"/>
      <point x="552" y="808" type="curve" smooth="yes"/>
      <point x="722" y="756" type="line" smooth="yes"/>
      <point x="850" y="716"/>
      <point x="944" y="667"/>
      <point x="1005" y="606" type="curve" smooth="yes"/>
      <point x="1066" y="545"/>
      <point x="1096" y="470"/>
      <point x="1096" y="378" type="curve" smooth="yes"/>
      <point x="1096" y="301"/>
      <point x="1076" y="232"/>
      <point x="1037" y="171" type="curve" smooth="yes"/>
      <point x="957" y="50"/>
      <point x="811" y="-24"/>
    </contour>
  </outline>
</glyph>
<glyph name="T" format="2">
  <advance width="1262"/>
  <unicode hex="0054"/>
  <outline>
    <contour>
      <point x="128" y="1444" type="line"/>
      <point x="128" y="1490" type="line"/>
      <point x="1134" y="1490" type="line"/>
      <point x="1134" y="1444" type="line"/>
      <point x="654" y="1444" type="line"/>
      <point x="654" y="0" type="line"/>
      <point x="608" y="0" type="line"/>
      <point x="608" y="1444" type="line"/>
    </contour>
  </outline>
</glyph>
<glyph name="V" format="2">
  <advance width="1310"/>
  <unicode hex="0056"/>
  <outline>
    <contour>
      <point x="624" y="0" type="line"/>
      <point x="66" y="1490" type="line"/>
      <point x="115" y="1490" type="line"/>
      <point x="547" y="336" type="line" smooth="yes"/>
      <point x="577" y="256"/>
      <point x="636" y="96"/>
      <point x="665" y="16" type="qcurve"/>
      <point x="647" y="16" type="line"/>
      <point x="676" y="96"/>
      <point x="735" y="256"/>
      <point x="765" y="336" type="qcurve" smooth="yes"/>
      <point x="1195" y="1490" type="line"/>
      <point x="1244" y="1490" type="line"/>
      <point x="687" y="0" type="line"/>
    </contour>
  </outline>
</glyph>
<glyph name="W" format="2">
  <advance width="1902"/>
  <unicode hex="0057"/>
  <anchor x="1147" y="0" name="m.uni0326"/>
  <anchor x="1147" y="1490" name="m.uni030F_1"/>
  <outline>
    <contour>
      <point x="488" y="0" type="line"/>
      <point x="66" y="1490" type="line"/>
      <point x="114" y="1490" type="line"/>
      <point x="436" y="352" type="line" smooth="yes"/>
      <point x="447" y="315"/>
      <point x="457" y="277"/>
      <point x="468" y="240" type="curve"/>
      <point x="488" y="165"/>
      <point x="508" y="91"/>
      <point x="528" y="16" type="curve"/>
      <point x="518" y="16" type="line"/>
      <point x="527" y="53"/>
      <point x="537" y="91"/>
      <point x="547" y="128" type="curve" smooth="yes"/>
      <point x="566" y="203"/>
      <point x="586" y="277"/>
      <point x="606" y="352" type="curve" smooth="yes"/>
      <point x="916" y="1490" type="line"/>
      <point x="986" y="1490" type="line"/>
      <point x="1296" y="352" type="line" smooth="yes"/>
      <point x="1306" y="315"/>
      <point x="1316" y="277"/>
      <point x="1326" y="240" type="curve" smooth="yes"/>
      <point x="1346" y="165"/>
      <point x="1365" y="91"/>
      <point x="1384" y="16" type="curve"/>
      <point x="1374" y="16" type="line"/>
      <point x="1384" y="53"/>
      <point x="1394" y="91"/>
      <point x="1404" y="128" type="curve" smooth="yes"/>
      <point x="1424" y="203"/>
      <point x="1445" y="277"/>
      <point x="1466" y="352" type="curve" smooth="yes"/>
      <point x="1788" y="1490" type="line"/>
      <point x="1836" y="1490" type="line"/>
      <point x="1414" y="0" type="line"/>
      <point x="1344" y="0" type="line"/>
      <point x="1043" y="1104" type="line" smooth="yes"/>
      <point x="1026" y="1165"/>
      <point x="1010" y="1227"/>
      <point x="994" y="1288" type="curve" smooth="yes"/>
      <point x="977" y="1349"/>
      <point x="961" y="1411"/>
      <point x="946" y="1472" type="curve"/>
      <point x="956" y="1472" type="line"/>
      <point x="941" y="1411"/>
      <point x="925" y="1349"/>
      <point x="909" y="1288" type="curve" smooth="yes"/>
      <point x="892" y="1227"/>
      <point x="876" y="1165"/>
      <point x="859" y="1104" type="curve" smooth="yes"/>
      <point x="558" y="0" type="line"/>
    </contour>
  </outline>
</glyph>
<glyph name="X" format="2">
  <advance width="1270"/>
  <unicode hex="0058"/>
  <anchor x="845" y="-6" name="m.uni0326"/>
  <anchor x="845" y="1490" name="m.uni030F_1"/>
  <outline>
    <contour>
      <point x="66" y="0" type="line"/>
      <point x="619" y="773" type="line"/>
      <point x="619" y="741" type="line"/>
      <point x="82" y="1490" type="line"/>
      <point x="138" y="1490" type="line"/>
      <point x="472" y="1024" type="line" smooth="yes"/>
      <point x="492" y="997"/>
      <point x="512" y="970"/>
      <point x="531" y="943" type="curve" smooth="yes"/>
      <point x="550" y="916"/>
      <point x="570" y="888"/>
      <point x="589" y="861" type="curve" smooth="yes"/>
      <point x="608" y="833"/>
      <point x="627" y="804"/>
      <point x="646" y="775" type="curve"/>
      <point x="625" y="775" type="line"/>
      <point x="644" y="804"/>
      <point x="664" y="833"/>
      <point x="683" y="861" type="curve" smooth="yes"/>
      <point x="721" y="916"/>
      <point x="759" y="969"/>
      <point x="798" y="1024" type="curve" smooth="yes"/>
      <point x="1132" y="1490" type="line"/>
      <point x="1188" y="1490" type="line"/>
      <point x="651" y="739" type="line"/>
      <point x="651" y="773" type="line"/>
      <point x="1204" y="0" type="line"/>
      <point x="1148" y="0" type="line"/>
      <point x="793" y="496" type="line" smooth="yes"/>
      <point x="774" y="523"/>
      <point x="756" y="549"/>
      <point x="737" y="576" type="curve" smooth="yes"/>
      <point x="700" y="628"/>
      <point x="662" y="682"/>
      <point x="625" y="738" type="curve"/>
      <point x="645" y="738" type="line"/>
      <point x="626" y="710"/>
      <point x="608" y="683"/>
      <point x="590" y="656" type="curve" smooth="yes"/>
      <point x="553" y="602"/>
      <point x="517" y="549"/>
      <point x="478" y="496" type="curve" smooth="yes"/>
      <point x="122" y="0" type="line"/>
    </contour>
  </outline>
</glyph>
<glyph name="Y" format="2">
  <advance width="1312"/>
  <unicode hex="0059"/>
  <anchor x="883" y="0" name="m.uni0326"/>
  <anchor x="871" y="1490" name="m.uni030F_1"/>
  <anchor x="1071" y="0" name="m.uni0328_4"/>
  <outline>
    <contour>
      <point x="634" y="0" type="line"/>
      <point x="634" y="706" type="line"/>
      <point x="66" y="1490" type="line"/>
      <point x="122" y="1490" type="line"/>
      <point x="483" y="992" type="line" smooth="yes"/>
      <point x="514" y="949"/>
      <point x="545" y="907"/>
      <point x="575" y="864" type="curve" smooth="yes"/>
      <point x="605" y="821"/>
      <point x="635" y="779"/>
      <point x="666" y="736" type="curve"/>
      <point x="648" y="736" type="line"/>
      <point x="679" y="779"/>
      <point x="709" y="821"/>
      <point x="740" y="864" type="curve" smooth="yes"/>
      <point x="770" y="907"/>
      <point x="800" y="949"/>
      <point x="831" y="992" type="curve" smooth="yes"/>
      <point x="1190" y="1490" type="line"/>
      <point x="1246" y="1490" type="line"/>
      <point x="680" y="706" type="line"/>
      <point x="680" y="0" type="line"/>
    </contour>
  </outline>
</glyph>
<glyph name="Z" format="2">
  <advance width="1244"/>
  <unicode hex="005A"/>
  <anchor x="735" y="0" name="m.uni0326"/>
  <anchor x="745" y="1490" name="m.uni030F_1"/>
  <outline>
    <contour>
      <point x="154" y="0" type="line"/>
      <point x="154" y="46" type="line"/>
      <point x="892" y="1222" type="line" smooth="yes"/>
      <point x="943" y="1301"/>
      <point x="992" y="1381"/>
      <point x="1041" y="1460" type="curve"/>
      <point x="1051" y="1442" type="line"/>
      <point x="942" y="1442"/>
      <point x="834" y="1442"/>
      <point x="725" y="1442" type="curve" smooth="yes"/>
      <point x="160" y="1442" type="line"/>
      <point x="160" y="1490" type="line"/>
      <point x="1086" y="1490" type="line"/>
      <point x="1086" y="1442" type="line"/>
      <point x="342" y="256" type="line" smooth="yes"/>
      <point x="294" y="180"/>
      <point x="247" y="104"/>
      <point x="199" y="28" type="curve"/>
      <point x="189" y="46" type="line"/>
      <point x="293" y="46"/>
      <point x="398" y="46"/>
      <point x="502" y="46" type="curve" smooth="yes"/>
      <point x="1090" y="46" type="line"/>
      <point x="1090" y="0" type="line"/>
    </contour>
  </outline>
</glyph>
<glyph name="a" format="2">
  <advance width="1076"/>
  <unicode hex="0061"/>
  <outline>
    <contour>
      <point x="452" y="-24" type="qcurve" smooth="yes"/>
      <point x="360" y="-24"/>
      <point x="204" y="52"/>
      <point x="110" y="198"/>
      <point x="110" y="302" type="qcurve" smooth="yes"/>
      <point x="110" y="359"/>
      <point x="146" y="459"/>
      <point x="238" y="540"/>
      <point x="403" y="599"/>
      <point x="532" y="614" type="qcurve" smooth="yes"/>
      <point x="832" y="648" type="line"/>
      <point x="832" y="802" type="line" smooth="yes"/>
      <point x="832" y="889"/>
      <point x="754" y="1017"/>
      <point x="612" y="1088"/>
      <point x="516" y="1088" type="qcurve" smooth="yes"/>
      <point x="437" y="1088"/>
      <point x="305" y="1041"/>
      <point x="210" y="953"/>
      <point x="186" y="890" type="qcurve"/>
      <point x="142" y="908" type="line"/>
      <point x="169" y="978"/>
      <point x="278" y="1079"/>
      <point x="429" y="1134"/>
      <point x="516" y="1134" type="qcurve" smooth="yes"/>
      <point x="601" y="1134"/>
      <point x="735" y="1084"/>
      <point x="829" y="994"/>
      <point x="878" y="873"/>
      <point x="878" y="802" type="qcurve" smooth="yes"/>
      <point x="878" y="214" type="line"/>
      <point x="878" y="143"/>
      <point x="895" y="71"/>
      <point x="900" y="0" type="curve"/>
      <point x="854" y="0" type="line"/>
      <point x="849" y="75"/>
      <point x="832" y="151"/>
      <point x="832" y="226" type="curve"/>
      <point x="826" y="226" type="line"/>
      <point x="792" y="151"/>
      <point x="680" y="39"/>
      <point x="536" y="-24"/>
    </contour>
    <contour>
      <point x="452" y="22" type="qcurve" smooth="yes"/>
      <point x="558" y="22"/>
      <point x="730" y="137"/>
      <point x="832" y="343"/>
      <point x="832" y="478" type="qcurve" smooth="yes"/>
      <point x="832" y="602" type="line"/>
      <point x="550" y="570" type="line" smooth="yes"/>
      <point x="400" y="553"/>
      <point x="228" y="481"/>
      <point x="156" y="374"/>
      <point x="156" y="302" type="qcurve" smooth="yes"/>
      <point x="156" y="218"/>
      <point x="234" y="92"/>
      <point x="369" y="22"/>
    </contour>
  </outline>
</glyph>
<glyph name="c" format="2">
  <advance width="1095"/>
  <unicode hex="0063"/>
  <anchor x="739" y="0" name="m.uni0326"/>
  <anchor x="739" y="1242" name="m.uni030F_1"/>
  <anchor x="739" y="0" name="m.uni0327_3"/>
  <outline>
    <contour>
      <point x="594" y="-16" type="curve" smooth="yes"/>
      <point x="506" y="-16"/>
      <point x="427" y="9"/>
      <point x="357" y="59" type="curve" smooth="yes"/>
      <point x="287" y="109"/>
      <point x="232" y="177"/>
      <point x="191" y="264" type="curve" smooth="yes"/>
      <point x="150" y="351"/>
      <point x="130" y="449"/>
      <point x="130" y="559" type="curve" smooth="yes"/>
      <point x="130" y="669"/>
      <point x="150" y="767"/>
      <point x="191" y="854" type="curve" smooth="yes"/>
      <point x="232" y="941"/>
      <point x="287" y="1009"/>
      <point x="357" y="1059" type="curve" smooth="yes"/>
      <point x="427" y="1109"/>
      <point x="506" y="1134"/>
      <point x="594" y="1134" type="curve" smooth="yes"/>
      <point x="718" y="1134"/>
      <point x="810" y="1083"/>
      <point x="871" y="1024" type="curve" smooth="yes"/>
      <point x="932" y="964"/>
      <point x="965" y="908"/>
      <point x="970" y="899" type="curve"/>
      <point x="930" y="876" type="line"/>
      <point x="925" y="885"/>
      <point x="896" y="937"/>
      <point x="841" y="990" type="curve" smooth="yes"/>
      <point x="785" y="1042"/>
      <point x="705" y="1088"/>
      <point x="594" y="1088" type="curve" smooth="yes"/>
      <point x="515" y="1088"/>
      <point x="445" y="1065"/>
      <point x="382" y="1020" type="curve" smooth="yes"/>
      <point x="319" y="974"/>
      <point x="269" y="911"/>
      <point x="232" y="832" type="curve" smooth="yes"/>
      <point x="195" y="753"/>
      <point x="176" y="662"/>
      <point x="176" y="559" type="curve" smooth="yes"/>
      <point x="176" y="456"/>
      <point x="195" y="365"/>
      <point x="232" y="286" type="curve" smooth="yes"/>
      <point x="269" y="206"/>
      <point x="319" y="143"/>
      <point x="382" y="98" type="curve" smooth="yes"/>
      <point x="445" y="53"/>
      <point x="515" y="30"/>
      <point x="594" y="30" type="curve" smooth="yes"/>
      <point x="705" y="30"/>
      <point x="788" y="76"/>
      <point x="844" y="129" type="curve" smooth="yes"/>
      <point x="900" y="182"/>
      <point x="930" y="234"/>
      <point x="935" y="242" type="curve"/>
      <point x="975" y="220" type="line"/>
      <point x="970" y="211"/>
      <point x="937" y="155"/>
      <point x="874" y="96" type="curve" smooth="yes"/>
      <point x="811" y="36"/>
      <point x="718" y="-16"/>
    </contour>
  </outline>
</glyph>
<glyph name="e" format="2">
  <advance width="1172"/>
  <unicode hex="0065"/>
  <anchor x="740" y="0" name="m.uni0326"/>
  <anchor x="740" y="1242" name="m.uni030F_1"/>
  <anchor x="741" y="0" name="m.uni0327_3"/>
  <anchor x="1316" y="162" name="m.uni0328_4"/>
  <outline>
    <contour>
      <point x="616" y="-24" type="curve" smooth="yes"/>
      <point x="519" y="-24"/>
      <point x="434" y="2"/>
      <point x="361" y="53" type="curve" smooth="yes"/>
      <point x="288" y="104"/>
      <point x="231" y="173"/>
      <point x="191" y="261" type="curve" smooth="yes"/>
      <point x="150" y="348"/>
      <point x="130" y="447"/>
      <point x="130" y="556" type="curve" smooth="yes"/>
      <point x="130" y="665"/>
      <point x="150" y="764"/>
      <point x="191" y="851" type="curve" smooth="yes"/>
      <point x="232" y="938"/>
      <point x="287" y="1007"/>
      <point x="357" y="1058" type="curve" smooth="yes"/>
      <point x="427" y="1109"/>
      <point x="506" y="1134"/>
      <point x="594" y="1134" type="curve" smooth="yes"/>
      <point x="725" y="1134"/>
      <point x="837" y="1076"/>
      <point x="920" y="977" type="curve" smooth="yes"/>
      <point x="1003" y="877"/>
      <point x="1050" y="741"/>
      <point x="1050" y="584" type="curve" smooth="yes"/>
      <point x="1050" y="558" type="line"/>
      <point x="154" y="558" type="line"/>
      <point x="154" y="604" type="line"/>
      <point x="1025" y="604" type="line"/>
      <point x="1005" y="584" type="line"/>
      <point x="1005" y="677"/>
      <point x="987" y="762"/>
      <point x="952" y="839" type="curve" smooth="yes"/>
      <point x="916" y="915"/>
      <point x="867" y="976"/>
      <point x="806" y="1021" type="curve" smooth="yes"/>
      <point x="744" y="1066"/>
      <point x="673" y="1088"/>
      <point x="594" y="1088" type="curve" smooth="yes"/>
      <point x="517" y="1088"/>
      <point x="447" y="1065"/>
      <point x="384" y="1020" type="curve" smooth="yes"/>
      <point x="321" y="974"/>
      <point x="270" y="912"/>
      <point x="233" y="834" type="curve" smooth="yes"/>
      <point x="195" y="755"/>
      <point x="176" y="667"/>
      <point x="176" y="568" type="curve" smooth="yes"/>
      <point x="176" y="562" type="line" smooth="yes"/>
      <point x="176" y="464"/>
      <point x="193" y="374"/>
      <point x="228" y="293" type="curve" smooth="yes"/>
      <point x="262" y="211"/>
      <point x="312" y="145"/>
      <point x="378" y="96" type="curve" smooth="yes"/>
      <point x="443" y="47"/>
      <point x="523" y="22"/>
      <point x="616" y="22" type="curve" smooth="yes"/>
      <point x="685" y="22"/>
      <point x="743" y="34"/>
      <point x="790" y="59" type="curve" smooth="yes"/>
      <point x="837" y="83"/>
      <point x="874" y="111"/>
      <point x="903" y="143" type="curve" smooth="yes"/>
      <point x="932" y="175"/>
      <point x="953" y="202"/>
      <point x="966" y="224" type="curve"/>
      <point x="1004" y="198" type="line"/>
      <point x="987" y="170"/>
      <point x="963" y="139"/>
      <point x="930" y="104" type="curve" smooth="yes"/>
      <point x="897" y="69"/>
      <point x="854" y="39"/>
      <point x="803" y="14" type="curve" smooth="yes"/>
      <point x="751" y="-11"/>
      <point x="689" y="-24"/>
    </contour>
  </outline>
</glyph>
<glyph name="f" format="2">
  <advance width="602"/>
  <unicode hex="0066"/>
  <anchor x="452" y="0" name="m.uni0326"/>
  <anchor x="503" y="1676" name="m.uni030F_1"/>
  <outline>
    <contour>
      <point x="548" y="1118" type="line"/>
      <point x="548" y="1072" type="line"/>
      <point x="10" y="1072" type="line"/>
      <point x="10" y="1118" type="line"/>
    </contour>
    <contour>
      <point x="228" y="0" type="line"/>
      <point x="228" y="1300" type="line" smooth="yes"/>
      <point x="228" y="1353"/>
      <point x="239" y="1398"/>
      <point x="260" y="1436" type="curve" smooth="yes"/>
      <point x="302" y="1512"/>
      <point x="376" y="1556"/>
      <point x="468" y="1556" type="curve" smooth="yes"/>
      <point x="489" y="1556"/>
      <point x="509" y="1555"/>
      <point x="526" y="1552" type="curve" smooth="yes"/>
      <point x="543" y="1549"/>
      <point x="559" y="1545"/>
      <point x="572" y="1540" type="curve"/>
      <point x="558" y="1496" type="line"/>
      <point x="534" y="1505"/>
      <point x="504" y="1510"/>
      <point x="468" y="1510" type="curve" smooth="yes"/>
      <point x="413" y="1510"/>
      <point x="367" y="1491"/>
      <point x="330" y="1454" type="curve" smooth="yes"/>
      <point x="293" y="1417"/>
      <point x="274" y="1365"/>
      <point x="274" y="1300" type="curve" smooth="yes"/>
      <point x="274" y="0" type="line"/>
    </contour>
  </outline>
</glyph>
<glyph name="n" format="2">
  <advance width="1196"/>
  <unicode hex="006E"/>
  <anchor x="788" y="0" name="m.uni0326"/>
  <anchor x="792" y="1242" name="m.uni030F_1"/>
  <outline>
    <contour>
      <point x="244" y="750" type="qcurve" smooth="yes"/>
      <point x="244" y="0" type="line"/>
      <point x="198" y="0" type="line"/>
      <point x="198" y="1118" type="line"/>
      <point x="244" y="1118" type="line"/>
      <point x="244" y="878" type="line"/>
      <point x="232" y="878" type="line"/>
      <point x="268" y="1006"/>
      <point x="481" y="1134"/>
      <point x="608" y="1134" type="qcurve" smooth="yes"/>
      <point x="723" y="1134"/>
      <point x="898" y="1037"/>
      <point x="998" y="865"/>
      <point x="998" y="750" type="qcurve" smooth="yes"/>
      <point x="998" y="0" type="line"/>
      <point x="952" y="0" type="line"/>
      <point x="952" y="750" type="line" smooth="yes"/>
      <point x="952" y="902"/>
      <point x="760" y="1088"/>
      <point x="608" y="1088" type="qcurve" smooth="yes"/>
      <point x="504" y="1088"/>
      <point x="339" y="1001"/>
      <point x="244" y="848"/>
    </contour>
  </outline>
</glyph>
<glyph name="p" format="2">
  <advance width="1190"/>
  <unicode hex="0070"/>
  <anchor x="373" y="-402" name="m.uni0326"/>
  <anchor x="657" y="1242" name="m.uni030F_1"/>
  <outline>
    <contour>
      <point x="198" y="-418" type="line"/>
      <point x="198" y="1118" type="line"/>
      <point x="244" y="1118" type="line"/>
      <point x="244" y="832" type="line"/>
      <point x="250" y="832" type="line"/>
      <point x="279" y="925"/>
      <point x="390" y="1061"/>
      <point x="541" y="1134"/>
      <point x="630" y="1134" type="qcurve" smooth="yes"/>
      <point x="761" y="1134"/>
      <point x="954" y="982"/>
      <point x="1060" y="720"/>
      <point x="1060" y="556" type="qcurve" smooth="yes"/>
      <point x="1060" y="391"/>
      <point x="955" y="128"/>
      <point x="762" y="-24"/>
      <point x="630" y="-24" type="qcurve" smooth="yes"/>
      <point x="540" y="-24"/>
      <point x="390" y="50"/>
      <point x="280" y="187"/>
      <point x="250" y="280" type="qcurve"/>
      <point x="244" y="280" type="line"/>
      <point x="244" y="-418" type="line"/>
    </contour>
    <contour>
      <point x="630" y="22" type="qcurve" smooth="yes"/>
      <point x="748" y="22"/>
      <point x="920" y="163"/>
      <point x="1014" y="405"/>
      <point x="1014" y="556" type="qcurve" smooth="yes"/>
      <point x="1014" y="707"/>
      <point x="920" y="948"/>
      <point x="748" y="1088"/>
      <point x="630" y="1088" type="qcurve" smooth="yes"/>
      <point x="512" y="1088"/>
      <point x="339" y="948"/>
      <point x="244" y="707"/>
      <point x="244" y="556" type="qcurve" smooth="yes"/>
      <point x="244" y="405"/>
      <point x="338" y="163"/>
      <point x="511" y="22"/>
    </contour>
  </outline>
</glyph>
<glyph name="q" format="2">
  <advance width="1190"/>
  <unicode hex="0071"/>
  <anchor x="1151" y="-402" name="m.uni0326"/>
  <anchor x="758" y="1242" name="m.uni030F_1"/>
  <outline>
    <contour>
      <point x="992" y="-418" type="line"/>
      <point x="946" y="-418" type="line"/>
      <point x="946" y="280" type="line"/>
      <point x="940" y="280" type="line"/>
      <point x="911" y="187"/>
      <point x="800" y="50"/>
      <point x="650" y="-24"/>
      <point x="560" y="-24" type="qcurve" smooth="yes"/>
      <point x="429" y="-24"/>
      <point x="235" y="128"/>
      <point x="130" y="391"/>
      <point x="130" y="556" type="qcurve" smooth="yes"/>
      <point x="130" y="720"/>
      <point x="236" y="982"/>
      <point x="430" y="1134"/>
      <point x="560" y="1134" type="qcurve" smooth="yes"/>
      <point x="649" y="1134"/>
      <point x="800" y="1061"/>
      <point x="912" y="925"/>
      <point x="940" y="832" type="qcurve"/>
      <point x="946" y="832" type="line"/>
      <point x="946" y="1118" type="line"/>
      <point x="992" y="1118" type="line"/>
    </contour>
    <contour>
      <point x="560" y="22" type="qcurve" smooth="yes"/>
      <point x="679" y="22"/>
      <point x="852" y="163"/>
      <point x="946" y="405"/>
      <point x="946" y="556" type="qcurve" smooth="yes"/>
      <point x="946" y="707"/>
      <point x="851" y="948"/>
      <point x="678" y="1088"/>
      <point x="560" y="1088" type="qcurve" smooth="yes"/>
      <point x="443" y="1088"/>
      <point x="270" y="948"/>
      <point x="176" y="707"/>
      <point x="176" y="556" type="qcurve" smooth="yes"/>
      <point x="176" y="405"/>
      <point x="270" y="163"/>
      <point x="442" y="22"/>
    </contour>
  </outline>
</glyph>
<glyph name="r" format="2">
  <advance width="742"/>
  <unicode hex="0072"/>
  <unicode hex="E05F"/>
  <outline>
    <contour>
      <point x="198" y="0" type="line"/>
      <point x="198" y="1118" type="line"/>
      <point x="244" y="1118" type="line"/>
      <point x="244" y="940" type="line"/>
      <point x="250" y="940" type="line"/>
      <point x="289" y="1027"/>
      <point x="469" y="1132"/>
      <point x="585" y="1132" type="qcurve" smooth="yes"/>
      <point x="621" y="1132"/>
      <point x="686" y="1121"/>
      <point x="713" y="1111" type="qcurve"/>
      <point x="695" y="1068" type="line"/>
      <point x="673" y="1076"/>
      <point x="617" y="1085"/>
      <point x="585" y="1085" type="qcurve" smooth="yes"/>
      <point x="486" y="1085"/>
      <point x="332" y="999"/>
      <point x="244" y="848"/>
      <point x="244" y="751" type="qcurve" smooth="yes"/>
      <point x="244" y="0" type="line"/>
    </contour>
  </outline>
</glyph>
<glyph name="s" format="2">
  <advance width="1010"/>
  <unicode hex="0073"/>
  <anchor x="761" y="0" name="m.uni0326"/>
  <anchor x="757" y="1242" name="m.uni030F_1"/>
  <anchor x="724" y="0" name="m.uni0327_3"/>
  <outline>
    <contour>
      <point x="504" y="-24" type="curve" smooth="yes"/>
      <point x="438" y="-24"/>
      <point x="380" y="-13"/>
      <point x="329" y="9" type="curve" smooth="yes"/>
      <point x="228" y="53"/>
      <point x="163" y="137"/>
      <point x="136" y="256" type="curve"/>
      <point x="182" y="267" type="line"/>
      <point x="215" y="108"/>
      <point x="327" y="22"/>
      <point x="504" y="22" type="curve" smooth="yes"/>
      <point x="601" y="22"/>
      <point x="679" y="46"/>
      <point x="740" y="94" type="curve" smooth="yes"/>
      <point x="800" y="142"/>
      <point x="830" y="205"/>
      <point x="830" y="282" type="curve" smooth="yes"/>
      <point x="830" y="398"/>
      <point x="757" y="478"/>
      <point x="614" y="514" type="curve" smooth="yes"/>
      <point x="440" y="558" type="line" smooth="yes"/>
      <point x="268" y="601"/>
      <point x="178" y="701"/>
      <point x="178" y="840" type="curve" smooth="yes"/>
      <point x="178" y="899"/>
      <point x="193" y="950"/>
      <point x="222" y="994" type="curve" smooth="yes"/>
      <point x="281" y="1082"/>
      <point x="388" y="1134"/>
      <point x="524" y="1134" type="curve" smooth="yes"/>
      <point x="581" y="1134"/>
      <point x="632" y="1125"/>
      <point x="677" y="1106" type="curve" smooth="yes"/>
      <point x="766" y="1069"/>
      <point x="830" y="994"/>
      <point x="866" y="882" type="curve"/>
      <point x="820" y="870" type="line"/>
      <point x="797" y="943"/>
      <point x="762" y="997"/>
      <point x="713" y="1034" type="curve" smooth="yes"/>
      <point x="664" y="1070"/>
      <point x="601" y="1088"/>
      <point x="524" y="1088" type="curve" smooth="yes"/>
      <point x="435" y="1088"/>
      <point x="362" y="1065"/>
      <point x="307" y="1020" type="curve" smooth="yes"/>
      <point x="252" y="975"/>
      <point x="224" y="915"/>
      <point x="224" y="840" type="curve" smooth="yes"/>
      <point x="224" y="724"/>
      <point x="297" y="642"/>
      <point x="448" y="603" type="curve" smooth="yes"/>
      <point x="624" y="559" type="line" smooth="yes"/>
      <point x="787" y="518"/>
      <point x="876" y="421"/>
      <point x="876" y="282" type="curve" smooth="yes"/>
      <point x="876" y="221"/>
      <point x="860" y="168"/>
      <point x="829" y="122" type="curve" smooth="yes"/>
      <point x="765" y="30"/>
      <point x="649" y="-24"/>
    </contour>
  </outline>
</glyph>
<glyph name="t" format="2">
  <advance width="492"/>
  <unicode hex="0074"/>
  <anchor x="387" y="0" name="m.uni0326"/>
  <anchor x="271" y="1464" name="m.uni030F_1"/>
  <anchor x="473" y="0" name="m.uni0327_3"/>
  <outline>
    <contour>
      <point x="452" y="1118" type="line"/>
      <point x="452" y="1072" type="line"/>
      <point x="10" y="1072" type="line"/>
      <point x="10" y="1118" type="line"/>
    </contour>
    <contour>
      <point x="174" y="1384" type="line"/>
      <point x="220" y="1384" type="line"/>
      <point x="220" y="213" type="line" smooth="yes"/>
      <point x="220" y="146"/>
      <point x="237" y="97"/>
      <point x="271" y="66" type="curve"/>
      <point x="304" y="34"/>
      <point x="350" y="25"/>
      <point x="407" y="40" type="curve"/>
      <point x="412" y="41"/>
      <point x="418" y="43"/>
      <point x="424" y="45" type="curve"/>
      <point x="430" y="46"/>
      <point x="436" y="48"/>
      <point x="441" y="49" type="curve"/>
      <point x="452" y="4" type="line"/>
      <point x="440" y="1"/>
      <point x="427" y="-2"/>
      <point x="415" y="-5" type="curve" smooth="yes"/>
      <point x="340" y="-23"/>
      <point x="282" y="-11"/>
      <point x="239" y="33" type="curve" smooth="yes"/>
      <point x="196" y="76"/>
      <point x="174" y="136"/>
      <point x="174" y="213" type="curve" smooth="yes"/>
    </contour>
  </outline>
</glyph>
<glyph name="u" format="2">
  <advance width="1196"/>
  <unicode hex="0075"/>
  <outline>
    <contour>
      <point x="588" y="-16" type="qcurve" smooth="yes"/>
      <point x="474" y="-16"/>
      <point x="298" y="81"/>
      <point x="198" y="254"/>
      <point x="198" y="368" type="qcurve" smooth="yes"/>
      <point x="198" y="1118" type="line"/>
      <point x="244" y="1118" type="line"/>
      <point x="244" y="368" type="line" smooth="yes"/>
      <point x="244" y="216"/>
      <point x="436" y="30"/>
      <point x="588" y="30" type="qcurve" smooth="yes"/>
      <point x="692" y="30"/>
      <point x="857" y="117"/>
      <point x="952" y="270"/>
      <point x="952" y="368" type="qcurve" smooth="yes"/>
      <point x="952" y="1118" type="line"/>
      <point x="998" y="1118" type="line"/>
      <point x="998" y="0" type="line"/>
      <point x="952" y="0" type="line"/>
      <point x="952" y="240" type="line"/>
      <point x="964" y="240" type="line"/>
      <point x="928" y="112"/>
      <point x="716" y="-16"/>
    </contour>
  </outline>
</glyph>
<glyph name="v" format="2">
  <advance width="1114"/>
  <unicode hex="0076"/>
  <anchor x="786" y="0" name="m.uni0326"/>
  <anchor x="786" y="1242" name="m.uni030F_1"/>
  <outline>
    <contour>
      <point x="527" y="0" type="line"/>
      <point x="100" y="1118" type="line"/>
      <point x="148" y="1118" type="line"/>
      <point x="447" y="336" type="line" smooth="yes"/>
      <point x="486" y="235"/>
      <point x="522" y="131"/>
      <point x="563" y="30" type="curve"/>
      <point x="551" y="30" type="line"/>
      <point x="592" y="131"/>
      <point x="628" y="235"/>
      <point x="667" y="336" type="curve" smooth="yes"/>
      <point x="966" y="1118" type="line"/>
      <point x="1014" y="1118" type="line"/>
      <point x="587" y="0" type="line"/>
    </contour>
  </outline>
</glyph>
<glyph name="w" format="2">
  <advance width="1656"/>
  <unicode hex="0077"/>
  <anchor x="1109" y="0" name="m.uni0326"/>
  <anchor x="1117" y="1242" name="m.uni030F_1"/>
  <outline>
    <contour>
      <point x="415" y="0" type="line"/>
      <point x="89" y="1118" type="line"/>
      <point x="136" y="1118" type="line"/>
      <point x="378" y="288" type="line" smooth="yes"/>
      <point x="405" y="197"/>
      <point x="427" y="115"/>
      <point x="452" y="24" type="curve"/>
      <point x="442" y="24" type="line"/>
      <point x="470" y="115"/>
      <point x="497" y="199"/>
      <point x="526" y="288" type="curve" smooth="yes"/>
      <point x="798" y="1118" type="line"/>
      <point x="858" y="1118" type="line"/>
      <point x="1130" y="288" type="line"/>
      <point x="1161" y="199"/>
      <point x="1186" y="115"/>
      <point x="1214" y="24" type="curve"/>
      <point x="1204" y="24" type="line"/>
      <point x="1229" y="115"/>
      <point x="1253" y="197"/>
      <point x="1278" y="288" type="curve" smooth="yes"/>
      <point x="1520" y="1118" type="line"/>
      <point x="1567" y="1118" type="line"/>
      <point x="1241" y="0" type="line"/>
      <point x="1177" y="0" type="line"/>
      <point x="894" y="864" type="line" smooth="yes"/>
      <point x="885" y="891"/>
      <point x="877" y="917"/>
      <point x="869" y="943" type="curve"/>
      <point x="860" y="968"/>
      <point x="852" y="994"/>
      <point x="844" y="1020" type="curve" smooth="yes"/>
      <point x="836" y="1045"/>
      <point x="828" y="1071"/>
      <point x="819" y="1098" type="curve"/>
      <point x="837" y="1098" type="line"/>
      <point x="829" y="1071"/>
      <point x="821" y="1045"/>
      <point x="813" y="1020" type="curve" smooth="yes"/>
      <point x="796" y="968"/>
      <point x="779" y="917"/>
      <point x="762" y="864" type="curve" smooth="yes"/>
      <point x="479" y="0" type="line"/>
    </contour>
  </outline>
</glyph>
<glyph name="x" format="2">
  <advance width="1024"/>
  <unicode hex="0078"/>
  <anchor x="681" y="0" name="m.uni0326"/>
  <anchor x="681" y="1242" name="m.uni030F_1"/>
  <outline>
    <contour>
      <point x="60" y="0" type="line"/>
      <point x="496" y="589" type="line"/>
      <point x="496" y="555" type="line"/>
      <point x="79" y="1118" type="line"/>
      <point x="136" y="1118" type="line"/>
      <point x="371" y="800" type="line" smooth="yes"/>
      <point x="422" y="731"/>
      <point x="472" y="662"/>
      <point x="523" y="591" type="curve"/>
      <point x="501" y="591" type="line"/>
      <point x="526" y="626"/>
      <point x="552" y="661"/>
      <point x="577" y="696" type="curve" smooth="yes"/>
      <point x="602" y="731"/>
      <point x="628" y="765"/>
      <point x="653" y="800" type="curve" smooth="yes"/>
      <point x="888" y="1118" type="line"/>
      <point x="945" y="1118" type="line"/>
      <point x="528" y="555" type="line"/>
      <point x="528" y="589" type="line"/>
      <point x="964" y="0" type="line"/>
      <point x="907" y="0" type="line"/>
      <point x="635" y="368" type="line" smooth="yes"/>
      <point x="590" y="431"/>
      <point x="546" y="492"/>
      <point x="501" y="553" type="curve"/>
      <point x="523" y="553" type="line"/>
      <point x="500" y="522"/>
      <point x="478" y="492"/>
      <point x="456" y="461" type="curve" smooth="yes"/>
      <point x="434" y="430"/>
      <point x="411" y="399"/>
      <point x="388" y="368" type="curve" smooth="yes"/>
      <point x="117" y="0" type="line"/>
    </contour>
  </outline>
</glyph>
<glyph name="z" format="2">
  <advance width="1072"/>
  <unicode hex="007A"/>
  <outline>
    <contour>
      <point x="158" y="0" type="line"/>
      <point x="158" y="46" type="line"/>
      <point x="827" y="1066" type="line"/>
      <point x="827" y="1072" type="line"/>
      <point x="200" y="1072" type="line"/>
      <point x="200" y="1118" type="line"/>
      <point x="884" y="1118" type="line"/>
      <point x="884" y="1070" type="line"/>
      <point x="216" y="52" type="line"/>
      <point x="216" y="46" type="line"/>
      <point x="914" y="46" type="line"/>
      <point x="914" y="0" type="line"/>
    </contour>
  </outline>
</glyph>
<glyph name="braceleft" format="2">
  <advance width="810"/>
  <unicode hex="007B"/>
  <outline>
    <contour>
      <point x="172" y="629" type="qcurve"/>
      <point x="172" y="675" type="line"/>
      <point x="298" y="675"/>
      <point x="388" y="765"/>
      <point x="388" y="889" type="qcurve" smooth="yes"/>
      <point x="388" y="1271" type="line" smooth="yes"/>
      <point x="388" y="1350"/>
      <point x="420" y="1467"/>
      <point x="485" y="1544"/>
      <point x="585" y="1582"/>
      <point x="652" y="1582" type="qcurve"/>
      <point x="652" y="1536" type="line"/>
      <point x="538" y="1536"/>
      <point x="434" y="1411"/>
      <point x="434" y="1271" type="qcurve" smooth="yes"/>
      <point x="434" y="889" type="line" smooth="yes"/>
      <point x="434" y="817"/>
      <point x="406" y="718"/>
      <point x="345" y="657"/>
      <point x="245" y="629"/>
    </contour>
    <contour>
      <point x="652" y="-280" type="line"/>
      <point x="585" y="-280"/>
      <point x="485" y="-242"/>
      <point x="420" y="-165"/>
      <point x="388" y="-48"/>
      <point x="388" y="31" type="qcurve" smooth="yes"/>
      <point x="388" y="413" type="line" smooth="yes"/>
      <point x="388" y="538"/>
      <point x="298" y="629"/>
      <point x="172" y="629" type="qcurve"/>
      <point x="172" y="675" type="line"/>
      <point x="245" y="675"/>
      <point x="345" y="647"/>
      <point x="406" y="585"/>
      <point x="434" y="485"/>
      <point x="434" y="413" type="qcurve" smooth="yes"/>
      <point x="434" y="31" type="line" smooth="yes"/>
      <point x="434" y="-108"/>
      <point x="538" y="-234"/>
      <point x="652" y="-234" type="qcurve"/>
    </contour>
    <contour>
      <point x="172" y="629" type="line"/>
      <point x="172" y="675" type="line"/>
      <point x="328" y="675" type="line"/>
      <point x="328" y="629" type="line"/>
    </contour>
  </outline>
</glyph>
<glyph name="braceright" format="2">
  <advance width="810"/>
  <unicode hex="007D"/>
  <outline>
    <contour>
      <point x="638" y="629" type="line"/>
      <point x="541" y="629"/>
      <point x="475" y="647"/>
      <point x="435" y="688" type="curve" smooth="yes"/>
      <point x="394" y="728"/>
      <point x="376" y="793"/>
      <point x="376" y="889" type="curve" smooth="yes"/>
      <point x="376" y="1271" type="line" smooth="yes"/>
      <point x="376" y="1364"/>
      <point x="359" y="1432"/>
      <point x="324" y="1474" type="curve" smooth="yes"/>
      <point x="289" y="1515"/>
      <point x="234" y="1536"/>
      <point x="158" y="1536" type="curve"/>
      <point x="158" y="1582" type="line"/>
      <point x="203" y="1582"/>
      <point x="243" y="1576"/>
      <point x="276" y="1563" type="curve" smooth="yes"/>
      <point x="309" y="1550"/>
      <point x="336" y="1531"/>
      <point x="358" y="1506" type="curve"/>
      <point x="379" y="1480"/>
      <point x="395" y="1448"/>
      <point x="406" y="1409" type="curve" smooth="yes"/>
      <point x="417" y="1370"/>
      <point x="422" y="1324"/>
      <point x="422" y="1271" type="curve" smooth="yes"/>
      <point x="422" y="889" type="line" smooth="yes"/>
      <point x="422" y="806"/>
      <point x="437" y="750"/>
      <point x="467" y="720" type="curve" smooth="yes"/>
      <point x="497" y="690"/>
      <point x="554" y="675"/>
      <point x="638" y="675" type="curve"/>
    </contour>
    <contour>
      <point x="158" y="-280" type="curve"/>
      <point x="158" y="-234" type="line"/>
      <point x="234" y="-234"/>
      <point x="289" y="-213"/>
      <point x="324" y="-171" type="curve" smooth="yes"/>
      <point x="359" y="-129"/>
      <point x="376" y="-62"/>
      <point x="376" y="31" type="curve" smooth="yes"/>
      <point x="376" y="413" type="line" smooth="yes"/>
      <point x="376" y="509"/>
      <point x="394" y="575"/>
      <point x="435" y="616" type="curve" smooth="yes"/>
      <point x="475" y="657"/>
      <point x="541" y="675"/>
      <point x="638" y="675" type="curve"/>
      <point x="638" y="629" type="line"/>
      <point x="554" y="629"/>
      <point x="497" y="614"/>
      <point x="467" y="584" type="curve" smooth="yes"/>
      <point x="437" y="553"/>
      <point x="422" y="496"/>
      <point x="422" y="413" type="curve" smooth="yes"/>
      <point x="422" y="31" type="line" smooth="yes"/>
      <point x="422" y="-22"/>
      <point x="417" y="-68"/>
      <point x="406" y="-107" type="curve" smooth="yes"/>
      <point x="395" y="-146"/>
      <point x="379" y="-178"/>
      <point x="358" y="-204" type="curve"/>
      <point x="336" y="-229"/>
      <point x="309" y="-248"/>
      <point x="276" y="-261" type="curve" smooth="yes"/>
      <point x="243" y="-274"/>
      <point x="203" y="-280"/>
    </contour>
    <contour>
      <point x="638" y="629" type="line"/>
      <point x="482" y="629" type="line"/>
      <point x="482" y="675" type="line"/>
      <point x="638" y="675" type="line"/>
    </contour>
  </outline>
</glyph>
<glyph name="asciitilde" format="2">
  <advance width="1304"/>
  <unicode hex="007E"/>
  <outline>
    <contour>
      <point x="192" y="488" type="line"/>
      <point x="198" y="528"/>
      <point x="213" y="563"/>
      <point x="237" y="594" type="curve" smooth="yes"/>
      <point x="285" y="654"/>
      <point x="362" y="690"/>
      <point x="454" y="690" type="curve" smooth="yes"/>
      <point x="503" y="690"/>
      <point x="546" y="680"/>
      <point x="582" y="661" type="curve" smooth="yes"/>
      <point x="618" y="642"/>
      <point x="651" y="622"/>
      <point x="680" y="602" type="curve" smooth="yes"/>
      <point x="709" y="583"/>
      <point x="738" y="567"/>
      <point x="765" y="552" type="curve" smooth="yes"/>
      <point x="792" y="537"/>
      <point x="823" y="530"/>
      <point x="858" y="530" type="curve" smooth="yes"/>
      <point x="909" y="530"/>
      <point x="954" y="545"/>
      <point x="991" y="574" type="curve" smooth="yes"/>
      <point x="1028" y="603"/>
      <point x="1053" y="640"/>
      <point x="1064" y="686" type="curve"/>
      <point x="1112" y="674" type="line"/>
      <point x="1102" y="637"/>
      <point x="1085" y="604"/>
      <point x="1060" y="575" type="curve" smooth="yes"/>
      <point x="1011" y="517"/>
      <point x="941" y="482"/>
      <point x="858" y="482" type="curve"/>
      <point x="815" y="483"/>
      <point x="778" y="493"/>
      <point x="746" y="510" type="curve" smooth="yes"/>
      <point x="714" y="527"/>
      <point x="683" y="545"/>
      <point x="654" y="564" type="curve" smooth="yes"/>
      <point x="625" y="584"/>
      <point x="595" y="602"/>
      <point x="564" y="618" type="curve" smooth="yes"/>
      <point x="533" y="634"/>
      <point x="497" y="642"/>
      <point x="454" y="642" type="curve" smooth="yes"/>
      <point x="396" y="643"/>
      <point x="347" y="629"/>
      <point x="308" y="599" type="curve" smooth="yes"/>
      <point x="269" y="568"/>
      <point x="245" y="529"/>
      <point x="238" y="482" type="curve"/>
    </contour>
  </outline>
</glyph>
<glyph name="exclamdown" format="2">
  <advance width="554"/>
  <unicode hex="00A1"/>
  <outline>
    <contour>
      <point x="300" y="691" type="line"/>
      <point x="300" y="-365" type="line"/>
      <point x="254" y="-365" type="line"/>
      <point x="254" y="691" type="line"/>
    </contour>
    <contour>
      <point x="277" y="1134" type="qcurve" smooth="yes"/>
      <point x="299" y="1134"/>
      <point x="330" y="1103"/>
      <point x="330" y="1081" type="qcurve" smooth="yes"/>
      <point x="330" y="1059"/>
      <point x="299" y="1028"/>
      <point x="277" y="1028" type="qcurve" smooth="yes"/>
      <point x="255" y="1028"/>
      <point x="224" y="1059"/>
      <point x="224" y="1081" type="qcurve" smooth="yes"/>
      <point x="224" y="1103"/>
      <point x="255" y="1134"/>
    </contour>
  </outline>
</glyph>
<glyph name="cent" format="2">
  <advance width="1095"/>
  <unicode hex="00A2"/>
  <anchor x="739" y="140" name="m.uni0326"/>
  <anchor x="739" y="1382" name="m.uni030F_1"/>
  <anchor x="739" y="140" name="m.uni0327_3"/>
  <outline>
    <contour>
      <point x="559" y="0" type="line"/>
      <point x="559" y="1490" type="line"/>
      <point x="605" y="1490" type="line"/>
      <point x="605" y="0" type="line"/>
    </contour>
    <contour>
      <point x="594" y="174" type="curve" smooth="yes"/>
      <point x="506" y="174"/>
      <point x="427" y="199"/>
      <point x="357" y="249" type="curve" smooth="yes"/>
      <point x="287" y="299"/>
      <point x="232" y="367"/>
      <point x="191" y="454" type="curve" smooth="yes"/>
      <point x="150" y="541"/>
      <point x="130" y="639"/>
      <point x="130" y="749" type="curve" smooth="yes"/>
      <point x="130" y="859"/>
      <point x="150" y="957"/>
      <point x="191" y="1044" type="curve" smooth="yes"/>
      <point x="232" y="1131"/>
      <point x="287" y="1199"/>
      <point x="357" y="1249" type="curve" smooth="yes"/>
      <point x="427" y="1299"/>
      <point x="506" y="1324"/>
      <point x="594" y="1324" type="curve" smooth="yes"/>
      <point x="718" y="1324"/>
      <point x="810" y="1273"/>
      <point x="871" y="1214" type="curve" smooth="yes"/>
      <point x="932" y="1154"/>
      <point x="965" y="1098"/>
      <point x="970" y="1089" type="curve"/>
      <point x="930" y="1066" type="line"/>
      <point x="925" y="1075"/>
      <point x="896" y="1127"/>
      <point x="841" y="1180" type="curve" smooth="yes"/>
      <point x="785" y="1232"/>
      <point x="705" y="1278"/>
      <point x="594" y="1278" type="curve" smooth="yes"/>
      <point x="515" y="1278"/>
      <point x="445" y="1255"/>
      <point x="382" y="1210" type="curve" smooth="yes"/>
      <point x="319" y="1164"/>
      <point x="269" y="1101"/>
      <point x="232" y="1022" type="curve" smooth="yes"/>
      <point x="195" y="943"/>
      <point x="176" y="852"/>
      <point x="176" y="749" type="curve" smooth="yes"/>
      <point x="176" y="646"/>
      <point x="195" y="555"/>
      <point x="232" y="476" type="curve" smooth="yes"/>
      <point x="269" y="396"/>
      <point x="319" y="333"/>
      <point x="382" y="288" type="curve" smooth="yes"/>
      <point x="445" y="243"/>
      <point x="515" y="220"/>
      <point x="594" y="220" type="curve" smooth="yes"/>
      <point x="705" y="220"/>
      <point x="788" y="266"/>
      <point x="844" y="319" type="curve" smooth="yes"/>
      <point x="900" y="372"/>
      <point x="930" y="424"/>
      <point x="935" y="432" type="curve"/>
      <point x="975" y="410" type="line"/>
      <point x="970" y="401"/>
      <point x="937" y="345"/>
      <point x="874" y="286" type="curve" smooth="yes"/>
      <point x="811" y="226"/>
      <point x="718" y="174"/>
    </contour>
  </outline>
</glyph>
<glyph name="sterling" format="2">
  <advance width="1223"/>
  <unicode hex="00A3"/>
  <outline>
    <contour>
      <point x="138" y="8" type="qcurve"/>
      <point x="138" y="46" type="line"/>
      <point x="236" y="46"/>
      <point x="332" y="185"/>
      <point x="325" y="315" type="qcurve" smooth="yes"/>
      <point x="288" y="1055" type="line"/>
      <point x="282" y="1188"/>
      <point x="379" y="1391"/>
      <point x="565" y="1506"/>
      <point x="690" y="1506" type="qcurve" smooth="yes"/>
      <point x="798" y="1506"/>
      <point x="963" y="1422"/>
      <point x="1065" y="1272"/>
      <point x="1076" y="1173" type="qcurve"/>
      <point x="1030" y="1168" type="line"/>
      <point x="1015" y="1299"/>
      <point x="834" y="1460"/>
      <point x="690" y="1460" type="qcurve" smooth="yes"/>
      <point x="580" y="1460"/>
      <point x="415" y="1359"/>
      <point x="328" y="1178"/>
      <point x="334" y="1057" type="qcurve" smooth="yes"/>
      <point x="371" y="317" type="line" smooth="yes"/>
      <point x="374" y="259"/>
      <point x="357" y="163"/>
      <point x="319" y="87"/>
      <point x="261" y="35"/>
      <point x="185" y="8"/>
    </contour>
    <contour>
      <point x="130" y="0" type="line"/>
      <point x="130" y="46" type="line"/>
      <point x="1100" y="46" type="line"/>
      <point x="1100" y="0" type="line"/>
    </contour>
    <contour>
      <point x="130" y="722" type="line"/>
      <point x="130" y="768" type="line"/>
      <point x="915" y="768" type="line"/>
      <point x="915" y="722" type="line"/>
    </contour>
  </outline>
</glyph>
<glyph name="currency" format="2">
  <advance width="1394"/>
  <unicode hex="00A4"/>
  <outline>
    <contour>
      <point x="694" y="-20" type="curve" smooth="yes"/>
      <point x="531" y="-20"/>
      <point x="388" y="47"/>
      <point x="283" y="161" type="curve" smooth="yes"/>
      <point x="178" y="275"/>
      <point x="116" y="431"/>
      <point x="116" y="608" type="curve" smooth="yes"/>
      <point x="116" y="785"/>
      <point x="178" y="941"/>
      <point x="283" y="1054" type="curve" smooth="yes"/>
      <point x="388" y="1167"/>
      <point x="531" y="1234"/>
      <point x="694" y="1234" type="curve" smooth="yes"/>
      <point x="858" y="1234"/>
      <point x="1003" y="1167"/>
      <point x="1108" y="1054" type="curve" smooth="yes"/>
      <point x="1212" y="941"/>
      <point x="1274" y="785"/>
      <point x="1274" y="608" type="curve" smooth="yes"/>
      <point x="1274" y="431"/>
      <point x="1212" y="275"/>
      <point x="1108" y="161" type="curve" smooth="yes"/>
      <point x="1003" y="47"/>
      <point x="858" y="-20"/>
    </contour>
    <contour>
      <point x="694" y="26" type="curve" smooth="yes"/>
      <point x="795" y="26"/>
      <point x="885" y="52"/>
      <point x="966" y="103" type="curve" smooth="yes"/>
      <point x="1046" y="154"/>
      <point x="1110" y="224"/>
      <point x="1157" y="312" type="curve" smooth="yes"/>
      <point x="1204" y="400"/>
      <point x="1227" y="499"/>
      <point x="1228" y="608" type="curve"/>
      <point x="1228" y="718"/>
      <point x="1204" y="817"/>
      <point x="1157" y="904" type="curve" smooth="yes"/>
      <point x="1110" y="991"/>
      <point x="1046" y="1060"/>
      <point x="965" y="1111" type="curve" smooth="yes"/>
      <point x="884" y="1161"/>
      <point x="794" y="1186"/>
      <point x="694" y="1186" type="curve" smooth="yes"/>
      <point x="595" y="1186"/>
      <point x="506" y="1161"/>
      <point x="425" y="1111" type="curve" smooth="yes"/>
      <point x="344" y="1060"/>
      <point x="280" y="991"/>
      <point x="233" y="904" type="curve" smooth="yes"/>
      <point x="186" y="817"/>
      <point x="162" y="718"/>
      <point x="162" y="608" type="curve" smooth="yes"/>
      <point x="162" y="499"/>
      <point x="186" y="400"/>
      <point x="233" y="312" type="curve" smooth="yes"/>
      <point x="280" y="224"/>
      <point x="344" y="154"/>
      <point x="425" y="103" type="curve" smooth="yes"/>
      <point x="505" y="52"/>
      <point x="595" y="26"/>
    </contour>
    <contour>
      <point x="1110" y="1004" type="line"/>
      <point x="1080" y="1038" type="line"/>
      <point x="1254" y="1218" type="line"/>
      <point x="1284" y="1184" type="line"/>
    </contour>
    <contour>
      <point x="1254" y="0" type="line"/>
      <point x="1080" y="180" type="line"/>
      <point x="1110" y="214" type="line"/>
      <point x="1284" y="34" type="line"/>
    </contour>
    <contour>
      <point x="136" y="0" type="line"/>
      <point x="104" y="34" type="line"/>
      <point x="280" y="214" type="line"/>
      <point x="310" y="180" type="line"/>
    </contour>
    <contour>
      <point x="280" y="1004" type="line"/>
      <point x="104" y="1184" type="line"/>
      <point x="136" y="1218" type="line"/>
      <point x="310" y="1038" type="line"/>
    </contour>
  </outline>
</glyph>
<glyph name="section" format="2">
  <advance width="1086"/>
  <unicode hex="00A7"/>
  <outline>
    <contour>
      <point x="866" y="1190" type="curve"/>
      <point x="820" y="1190" type="line"/>
      <point x="816" y="1265"/>
      <point x="790" y="1330"/>
      <point x="743" y="1384" type="curve" smooth="yes"/>
      <point x="695" y="1437"/>
      <point x="629" y="1464"/>
      <point x="544" y="1464" type="curve" smooth="yes"/>
      <point x="489" y="1464"/>
      <point x="440" y="1452"/>
      <point x="399" y="1428" type="curve" smooth="yes"/>
      <point x="316" y="1380"/>
      <point x="268" y="1295"/>
      <point x="268" y="1198" type="curve" smooth="yes"/>
      <point x="268" y="1151"/>
      <point x="278" y="1111"/>
      <point x="299" y="1080" type="curve" smooth="yes"/>
      <point x="340" y="1017"/>
      <point x="413" y="974"/>
      <point x="494" y="926" type="curve" smooth="yes"/>
      <point x="616" y="852" type="line" smooth="yes"/>
      <point x="696" y="804"/>
      <point x="779" y="758"/>
      <point x="844" y="703" type="curve" smooth="yes"/>
      <point x="909" y="648"/>
      <point x="952" y="583"/>
      <point x="952" y="498" type="curve" smooth="yes"/>
      <point x="952" y="455"/>
      <point x="940" y="416"/>
      <point x="917" y="382" type="curve" smooth="yes"/>
      <point x="894" y="348"/>
      <point x="863" y="322"/>
      <point x="824" y="303" type="curve" smooth="yes"/>
      <point x="785" y="284"/>
      <point x="743" y="274"/>
      <point x="696" y="274" type="curve"/>
      <point x="696" y="270" type="line"/>
      <point x="774" y="218"/>
      <point x="827" y="172"/>
      <point x="854" y="132" type="curve" smooth="yes"/>
      <point x="881" y="92"/>
      <point x="894" y="48"/>
      <point x="894" y="0" type="curve" smooth="yes"/>
      <point x="894" y="-62"/>
      <point x="879" y="-116"/>
      <point x="849" y="-161" type="curve" smooth="yes"/>
      <point x="788" y="-251"/>
      <point x="678" y="-302"/>
      <point x="542" y="-302" type="curve" smooth="yes"/>
      <point x="474" y="-302"/>
      <point x="413" y="-289"/>
      <point x="360" y="-262" type="curve" smooth="yes"/>
      <point x="252" y="-208"/>
      <point x="186" y="-107"/>
      <point x="178" y="24" type="curve"/>
      <point x="224" y="24" type="line"/>
      <point x="230" y="-59"/>
      <point x="262" y="-127"/>
      <point x="319" y="-179" type="curve" smooth="yes"/>
      <point x="376" y="-230"/>
      <point x="450" y="-256"/>
      <point x="542" y="-256" type="curve" smooth="yes"/>
      <point x="627" y="-256"/>
      <point x="699" y="-233"/>
      <point x="758" y="-188" type="curve" smooth="yes"/>
      <point x="817" y="-143"/>
      <point x="846" y="-80"/>
      <point x="846" y="0" type="curve" smooth="yes"/>
      <point x="846" y="32"/>
      <point x="840" y="61"/>
      <point x="827" y="88" type="curve" smooth="yes"/>
      <point x="801" y="141"/>
      <point x="734" y="197"/>
      <point x="602" y="274" type="curve" smooth="yes"/>
      <point x="478" y="346" type="line" smooth="yes"/>
      <point x="353" y="419"/>
      <point x="267" y="477"/>
      <point x="212" y="531" type="curve" smooth="yes"/>
      <point x="157" y="585"/>
      <point x="134" y="639"/>
      <point x="134" y="704" type="curve" smooth="yes"/>
      <point x="134" y="749"/>
      <point x="144" y="789"/>
      <point x="165" y="825" type="curve" smooth="yes"/>
      <point x="185" y="861"/>
      <point x="214" y="889"/>
      <point x="251" y="909" type="curve" smooth="yes"/>
      <point x="288" y="929"/>
      <point x="333" y="937"/>
      <point x="384" y="934" type="curve"/>
      <point x="384" y="940" type="line"/>
      <point x="283" y="1009"/>
      <point x="222" y="1082"/>
      <point x="222" y="1198" type="curve" smooth="yes"/>
      <point x="222" y="1255"/>
      <point x="236" y="1308"/>
      <point x="263" y="1355" type="curve" smooth="yes"/>
      <point x="318" y="1450"/>
      <point x="419" y="1510"/>
      <point x="544" y="1510" type="curve" smooth="yes"/>
      <point x="607" y="1510"/>
      <point x="662" y="1496"/>
      <point x="709" y="1469" type="curve" smooth="yes"/>
      <point x="802" y="1414"/>
      <point x="859" y="1314"/>
    </contour>
    <contour>
      <point x="904" y="498" type="curve"/>
      <point x="905" y="545"/>
      <point x="890" y="587"/>
      <point x="859" y="623" type="curve" smooth="yes"/>
      <point x="828" y="659"/>
      <point x="789" y="692"/>
      <point x="742" y="722" type="curve" smooth="yes"/>
      <point x="695" y="751"/>
      <point x="647" y="780"/>
      <point x="600" y="808" type="curve" smooth="yes"/>
      <point x="448" y="898" type="line"/>
      <point x="387" y="903"/>
      <point x="337" y="897"/>
      <point x="298" y="881" type="curve" smooth="yes"/>
      <point x="218" y="849"/>
      <point x="180" y="786"/>
      <point x="180" y="710" type="curve" smooth="yes"/>
      <point x="180" y="651"/>
      <point x="205" y="598"/>
      <point x="256" y="553" type="curve" smooth="yes"/>
      <point x="306" y="508"/>
      <point x="385" y="453"/>
      <point x="494" y="390" type="curve" smooth="yes"/>
      <point x="626" y="314" type="line"/>
      <point x="675" y="311"/>
      <point x="720" y="315"/>
      <point x="763" y="328" type="curve" smooth="yes"/>
      <point x="805" y="341"/>
      <point x="839" y="361"/>
      <point x="866" y="390" type="curve" smooth="yes"/>
      <point x="892" y="419"/>
      <point x="905" y="455"/>
    </contour>
  </outline>
</glyph>
<glyph name="copyright" format="2">
  <advance width="1874"/>
  <unicode hex="00A9"/>
  <outline>
    <contour>
      <point x="526" y="744" type="qcurve" smooth="yes"/>
      <point x="526" y="864"/>
      <point x="642" y="1060"/>
      <point x="839" y="1176"/>
      <point x="958" y="1176" type="qcurve" smooth="yes"/>
      <point x="1044" y="1176"/>
      <point x="1186" y="1114"/>
      <point x="1291" y="1003"/>
      <point x="1318" y="930" type="qcurve"/>
      <point x="1266" y="930" type="line"/>
      <point x="1228" y="1020"/>
      <point x="1067" y="1130"/>
      <point x="958" y="1130" type="qcurve" smooth="yes"/>
      <point x="852" y="1130"/>
      <point x="676" y="1027"/>
      <point x="572" y="852"/>
      <point x="572" y="744" type="qcurve" smooth="yes"/>
      <point x="572" y="638"/>
      <point x="676" y="464"/>
      <point x="852" y="360"/>
      <point x="958" y="360" type="qcurve" smooth="yes"/>
      <point x="1067" y="360"/>
      <point x="1228" y="469"/>
      <point x="1266" y="558" type="qcurve"/>
      <point x="1318" y="558" type="line"/>
      <point x="1291" y="486"/>
      <point x="1186" y="375"/>
      <point x="1044" y="312"/>
      <point x="958" y="312" type="qcurve" smooth="yes"/>
      <point x="839" y="312"/>
      <point x="642" y="429"/>
      <point x="526" y="625"/>
    </contour>
    <contour>
      <point x="936" y="-24" type="qcurve" smooth="yes"/>
      <point x="778" y="-24"/>
      <point x="500" y="96"/>
      <point x="288" y="307"/>
      <point x="168" y="585"/>
      <point x="168" y="744" type="qcurve"/>
      <point x="169" y="903"/>
      <point x="289" y="1182"/>
      <point x="500" y="1393"/>
      <point x="778" y="1512"/>
      <point x="936" y="1512" type="qcurve" smooth="yes"/>
      <point x="1096" y="1512"/>
      <point x="1374" y="1393"/>
      <point x="1585" y="1182"/>
      <point x="1704" y="903"/>
      <point x="1704" y="744" type="qcurve"/>
      <point x="1705" y="585"/>
      <point x="1586" y="307"/>
      <point x="1375" y="96"/>
      <point x="1096" y="-24"/>
    </contour>
    <contour>
      <point x="936" y="24" type="qcurve" smooth="yes"/>
      <point x="1086" y="24"/>
      <point x="1349" y="135"/>
      <point x="1547" y="333"/>
      <point x="1659" y="595"/>
      <point x="1658" y="744" type="qcurve"/>
      <point x="1658" y="894"/>
      <point x="1546" y="1156"/>
      <point x="1347" y="1354"/>
      <point x="1086" y="1466"/>
      <point x="936" y="1466" type="qcurve" smooth="yes"/>
      <point x="788" y="1466"/>
      <point x="527" y="1354"/>
      <point x="328" y="1155"/>
      <point x="216" y="894"/>
      <point x="216" y="744" type="qcurve"/>
      <point x="215" y="596"/>
      <point x="327" y="334"/>
      <point x="525" y="136"/>
      <point x="787" y="24"/>
    </contour>
  </outline>
</glyph>
<glyph name="ordfeminine" format="2">
  <advance width="738"/>
  <unicode hex="00AA"/>
  <outline>
    <contour>
      <point x="654" y="522" type="line"/>
      <point x="654" y="476" type="line"/>
      <point x="110" y="476" type="line"/>
      <point x="110" y="522" type="line"/>
    </contour>
    <contour>
      <point x="336" y="690" type="curve" smooth="yes"/>
      <point x="273" y="690"/>
      <point x="219" y="709"/>
      <point x="174" y="747" type="curve" smooth="yes"/>
      <point x="129" y="785"/>
      <point x="106" y="839"/>
      <point x="106" y="908" type="curve" smooth="yes"/>
      <point x="106" y="964"/>
      <point x="124" y="1009"/>
      <point x="168" y="1045" type="curve" smooth="yes"/>
      <point x="211" y="1080"/>
      <point x="281" y="1103"/>
      <point x="388" y="1118" type="curve" smooth="yes"/>
      <point x="586" y="1146" type="line"/>
      <point x="586" y="1234" type="line"/>
      <point x="585" y="1289"/>
      <point x="567" y="1334"/>
      <point x="531" y="1368" type="curve"/>
      <point x="494" y="1401"/>
      <point x="445" y="1418"/>
      <point x="384" y="1418" type="curve" smooth="yes"/>
      <point x="333" y="1418"/>
      <point x="289" y="1407"/>
      <point x="250" y="1384" type="curve" smooth="yes"/>
      <point x="211" y="1361"/>
      <point x="184" y="1329"/>
      <point x="170" y="1290" type="curve"/>
      <point x="126" y="1304" type="line"/>
      <point x="146" y="1355"/>
      <point x="180" y="1395"/>
      <point x="227" y="1422" type="curve" smooth="yes"/>
      <point x="274" y="1449"/>
      <point x="325" y="1462"/>
      <point x="382" y="1462" type="curve" smooth="yes"/>
      <point x="429" y="1462"/>
      <point x="472" y="1453"/>
      <point x="510" y="1435" type="curve"/>
      <point x="547" y="1416"/>
      <point x="577" y="1390"/>
      <point x="599" y="1356" type="curve" smooth="yes"/>
      <point x="621" y="1322"/>
      <point x="632" y="1281"/>
      <point x="632" y="1232" type="curve" smooth="yes"/>
      <point x="632" y="704" type="line"/>
      <point x="586" y="704" type="line"/>
      <point x="586" y="848" type="line"/>
      <point x="582" y="848" type="line"/>
      <point x="561" y="801"/>
      <point x="529" y="763"/>
      <point x="486" y="734" type="curve" smooth="yes"/>
      <point x="443" y="705"/>
      <point x="393" y="690"/>
    </contour>
    <contour>
      <point x="338" y="730" type="curve"/>
      <point x="409" y="731"/>
      <point x="469" y="758"/>
      <point x="516" y="811" type="curve" smooth="yes"/>
      <point x="563" y="864"/>
      <point x="586" y="932"/>
      <point x="586" y="1014" type="curve" smooth="yes"/>
      <point x="586" y="1106" type="line"/>
      <point x="396" y="1078" type="line" smooth="yes"/>
      <point x="309" y="1065"/>
      <point x="246" y="1048"/>
      <point x="207" y="1020" type="curve" smooth="yes"/>
      <point x="168" y="991"/>
      <point x="148" y="953"/>
      <point x="148" y="906" type="curve" smooth="yes"/>
      <point x="148" y="853"/>
      <point x="167" y="811"/>
      <point x="204" y="779" type="curve" smooth="yes"/>
      <point x="241" y="747"/>
      <point x="285" y="731"/>
    </contour>
  </outline>
</glyph>
<glyph name="registered" format="2">
  <advance width="1374"/>
  <unicode hex="00AE"/>
  <outline>
    <contour>
      <point x="502" y="666" type="line"/>
      <point x="502" y="1202" type="line"/>
      <point x="732" y="1202" type="line"/>
      <point x="769" y="1203"/>
      <point x="800" y="1196"/>
      <point x="826" y="1183" type="curve"/>
      <point x="877" y="1155"/>
      <point x="904" y="1105"/>
      <point x="904" y="1042" type="curve" smooth="yes"/>
      <point x="904" y="1011"/>
      <point x="897" y="984"/>
      <point x="884" y="960" type="curve" smooth="yes"/>
      <point x="857" y="911"/>
      <point x="805" y="880"/>
      <point x="732" y="880" type="curve" smooth="yes"/>
      <point x="526" y="880" type="line"/>
      <point x="526" y="926" type="line"/>
      <point x="730" y="926" type="line"/>
      <point x="773" y="927"/>
      <point x="804" y="938"/>
      <point x="825" y="959" type="curve" smooth="yes"/>
      <point x="846" y="980"/>
      <point x="856" y="1007"/>
      <point x="856" y="1042" type="curve" smooth="yes"/>
      <point x="856" y="1078"/>
      <point x="846" y="1106"/>
      <point x="825" y="1126" type="curve" smooth="yes"/>
      <point x="804" y="1146"/>
      <point x="773" y="1156"/>
      <point x="730" y="1156" type="curve" smooth="yes"/>
      <point x="548" y="1156" type="line"/>
      <point x="548" y="666" type="line"/>
    </contour>
    <contour>
      <point x="792" y="908" type="line"/>
      <point x="926" y="666" type="line"/>
      <point x="872" y="666" type="line"/>
      <point x="742" y="908" type="line"/>
    </contour>
    <contour>
      <point x="686" y="346" type="curve" smooth="yes"/>
      <point x="526" y="346"/>
      <point x="382" y="410"/>
      <point x="275" y="517" type="curve" smooth="yes"/>
      <point x="168" y="624"/>
      <point x="104" y="768"/>
      <point x="104" y="928" type="curve" smooth="yes"/>
      <point x="104" y="1088"/>
      <point x="168" y="1232"/>
      <point x="275" y="1339" type="curve" smooth="yes"/>
      <point x="382" y="1446"/>
      <point x="526" y="1510"/>
      <point x="686" y="1510" type="curve" smooth="yes"/>
      <point x="847" y="1510"/>
      <point x="991" y="1446"/>
      <point x="1098" y="1339" type="curve" smooth="yes"/>
      <point x="1205" y="1232"/>
      <point x="1268" y="1088"/>
      <point x="1268" y="928" type="curve" smooth="yes"/>
      <point x="1268" y="768"/>
      <point x="1205" y="624"/>
      <point x="1098" y="517" type="curve" smooth="yes"/>
      <point x="991" y="410"/>
      <point x="847" y="346"/>
    </contour>
    <contour>
      <point x="686" y="392" type="curve"/>
      <point x="785" y="393"/>
      <point x="876" y="417"/>
      <point x="957" y="465" type="curve" smooth="yes"/>
      <point x="1038" y="513"/>
      <point x="1102" y="578"/>
      <point x="1150" y="659" type="curve" smooth="yes"/>
      <point x="1198" y="740"/>
      <point x="1222" y="829"/>
      <point x="1222" y="928" type="curve" smooth="yes"/>
      <point x="1222" y="1027"/>
      <point x="1198" y="1117"/>
      <point x="1150" y="1198" type="curve" smooth="yes"/>
      <point x="1102" y="1279"/>
      <point x="1038" y="1343"/>
      <point x="957" y="1392" type="curve" smooth="yes"/>
      <point x="876" y="1440"/>
      <point x="785" y="1464"/>
      <point x="686" y="1464" type="curve" smooth="yes"/>
      <point x="588" y="1464"/>
      <point x="499" y="1440"/>
      <point x="418" y="1392" type="curve" smooth="yes"/>
      <point x="337" y="1343"/>
      <point x="272" y="1279"/>
      <point x="224" y="1198" type="curve" smooth="yes"/>
      <point x="176" y="1117"/>
      <point x="152" y="1027"/>
      <point x="152" y="928" type="curve" smooth="yes"/>
      <point x="152" y="829"/>
      <point x="176" y="740"/>
      <point x="224" y="659" type="curve" smooth="yes"/>
      <point x="272" y="578"/>
      <point x="337" y="513"/>
      <point x="418" y="465" type="curve" smooth="yes"/>
      <point x="499" y="417"/>
      <point x="588" y="393"/>
    </contour>
  </outline>
</glyph>
<glyph name="degree" format="2">
  <advance width="930"/>
  <unicode hex="00B0"/>
  <outline>
    <contour>
      <point x="466" y="904" type="curve"/>
      <point x="410" y="905"/>
      <point x="359" y="919"/>
      <point x="313" y="946" type="curve" smooth="yes"/>
      <point x="221" y="1000"/>
      <point x="162" y="1096"/>
      <point x="162" y="1208" type="curve" smooth="yes"/>
      <point x="162" y="1264"/>
      <point x="176" y="1315"/>
      <point x="203" y="1361" type="curve" smooth="yes"/>
      <point x="258" y="1452"/>
      <point x="354" y="1510"/>
      <point x="466" y="1510" type="curve" smooth="yes"/>
      <point x="522" y="1510"/>
      <point x="573" y="1497"/>
      <point x="619" y="1470" type="curve" smooth="yes"/>
      <point x="710" y="1416"/>
      <point x="768" y="1320"/>
      <point x="768" y="1208" type="curve" smooth="yes"/>
      <point x="768" y="1152"/>
      <point x="755" y="1101"/>
      <point x="728" y="1055" type="curve" smooth="yes"/>
      <point x="674" y="963"/>
      <point x="578" y="905"/>
    </contour>
    <contour>
      <point x="466" y="952" type="curve" smooth="yes"/>
      <point x="513" y="952"/>
      <point x="556" y="963"/>
      <point x="595" y="986" type="curve" smooth="yes"/>
      <point x="672" y="1031"/>
      <point x="722" y="1113"/>
      <point x="722" y="1208" type="curve" smooth="yes"/>
      <point x="722" y="1255"/>
      <point x="711" y="1298"/>
      <point x="688" y="1337" type="curve" smooth="yes"/>
      <point x="642" y="1414"/>
      <point x="561" y="1464"/>
      <point x="466" y="1464" type="curve" smooth="yes"/>
      <point x="419" y="1464"/>
      <point x="376" y="1453"/>
      <point x="337" y="1430" type="curve" smooth="yes"/>
      <point x="260" y="1384"/>
      <point x="210" y="1303"/>
      <point x="210" y="1208" type="curve" smooth="yes"/>
      <point x="210" y="1161"/>
      <point x="222" y="1118"/>
      <point x="245" y="1079" type="curve" smooth="yes"/>
      <point x="291" y="1001"/>
      <point x="371" y="952"/>
    </contour>
  </outline>
</glyph>
<glyph name="two.sups" format="2">
  <advance width="879"/>
  <unicode hex="00B2"/>
  <anchor x="436" y="1683" name="t.uni030F_1"/>
  <outline>
    <contour>
      <point x="144" y="916" type="line"/>
      <point x="144" y="951" type="line"/>
      <point x="455" y="1242" type="line" smooth="yes"/>
      <point x="525" y="1307"/>
      <point x="603" y="1393"/>
      <point x="635" y="1459"/>
      <point x="635" y="1494" type="qcurve" smooth="yes"/>
      <point x="635" y="1562"/>
      <point x="514" y="1649"/>
      <point x="423" y="1649" type="qcurve" smooth="yes"/>
      <point x="328" y="1649"/>
      <point x="209" y="1555"/>
      <point x="209" y="1487" type="qcurve"/>
      <point x="161" y="1487" type="line"/>
      <point x="161" y="1574"/>
      <point x="309" y="1694"/>
      <point x="424" y="1694" type="qcurve" smooth="yes"/>
      <point x="535" y="1694"/>
      <point x="682" y="1580"/>
      <point x="682" y="1494" type="qcurve" smooth="yes"/>
      <point x="682" y="1462"/>
      <point x="663" y="1403"/>
      <point x="618" y="1338"/>
      <point x="541" y="1259"/>
      <point x="483" y="1207" type="qcurve" smooth="yes"/>
      <point x="216" y="966" type="line"/>
      <point x="216" y="961" type="line"/>
      <point x="740" y="961" type="line"/>
      <point x="740" y="916" type="line"/>
    </contour>
  </outline>
</glyph>
<glyph name="twosuperior" format="2">
  <advance width="844"/>
  <unicode hex="00B2"/>
  <outline>
    <contour>
      <point x="122" y="744" type="line"/>
      <point x="122" y="780" type="line"/>
      <point x="442" y="1114" type="line" smooth="yes"/>
      <point x="545" y="1221"/>
      <point x="628" y="1347"/>
      <point x="628" y="1416" type="qcurve" smooth="yes"/>
      <point x="628" y="1499"/>
      <point x="503" y="1608"/>
      <point x="408" y="1608" type="qcurve" smooth="yes"/>
      <point x="307" y="1608"/>
      <point x="184" y="1491"/>
      <point x="184" y="1408" type="qcurve"/>
      <point x="136" y="1408" type="line"/>
      <point x="137" y="1511"/>
      <point x="290" y="1650"/>
      <point x="408" y="1650" type="qcurve" smooth="yes"/>
      <point x="485" y="1650"/>
      <point x="605" y="1588"/>
      <point x="674" y="1482"/>
      <point x="674" y="1416" type="qcurve" smooth="yes"/>
      <point x="674" y="1367"/>
      <point x="638" y="1276"/>
      <point x="550" y="1164"/>
      <point x="472" y="1082" type="qcurve"/>
      <point x="190" y="792" type="line"/>
      <point x="190" y="788" type="line"/>
      <point x="724" y="788" type="line"/>
      <point x="724" y="744" type="line"/>
    </contour>
  </outline>
</glyph>
<glyph name="threesuperior" format="2">
  <advance width="836"/>
  <unicode hex="00B3"/>
  <anchor x="299" y="1606" name="m.uni030F_1"/>
  <outline>
    <contour>
      <point x="423" y="906" type="curve" smooth="yes"/>
      <point x="368" y="906"/>
      <point x="319" y="914"/>
      <point x="274" y="931" type="curve" smooth="yes"/>
      <point x="185" y="964"/>
      <point x="129" y="1026"/>
      <point x="126" y="1105" type="curve"/>
      <point x="175" y="1105" type="line"/>
      <point x="176" y="1059"/>
      <point x="201" y="1022"/>
      <point x="249" y="993" type="curve" smooth="yes"/>
      <point x="296" y="964"/>
      <point x="355" y="950"/>
      <point x="424" y="950" type="curve" smooth="yes"/>
      <point x="502" y="950"/>
      <point x="563" y="967"/>
      <point x="607" y="1002" type="curve" smooth="yes"/>
      <point x="650" y="1036"/>
      <point x="672" y="1078"/>
      <point x="672" y="1128" type="curve" smooth="yes"/>
      <point x="672" y="1183"/>
      <point x="645" y="1228"/>
      <point x="590" y="1262" type="curve" smooth="yes"/>
      <point x="535" y="1296"/>
      <point x="463" y="1313"/>
      <point x="376" y="1313" type="curve" smooth="yes"/>
      <point x="333" y="1313" type="line"/>
      <point x="333" y="1354" type="line"/>
      <point x="628" y="1636" type="line"/>
      <point x="628" y="1639" type="line"/>
      <point x="167" y="1639" type="line"/>
      <point x="167" y="1683" type="line"/>
      <point x="694" y="1683" type="line"/>
      <point x="694" y="1647" type="line"/>
      <point x="367" y="1331" type="line"/>
      <point x="367" y="1344" type="line"/>
      <point x="438" y="1349"/>
      <point x="501" y="1343"/>
      <point x="554" y="1325" type="curve" smooth="yes"/>
      <point x="660" y="1288"/>
      <point x="721" y="1216"/>
      <point x="721" y="1128" type="curve" smooth="yes"/>
      <point x="721" y="1087"/>
      <point x="709" y="1050"/>
      <point x="685" y="1017" type="curve" smooth="yes"/>
      <point x="637" y="949"/>
      <point x="546" y="906"/>
    </contour>
  </outline>
</glyph>
<glyph name="micro" format="2">
  <advance width="1200"/>
  <unicode hex="00B5"/>
  <outline>
    <contour>
      <point x="198" y="-418" type="line"/>
      <point x="198" y="1118" type="line"/>
      <point x="244" y="1118" type="line"/>
      <point x="244" y="368" type="line" smooth="yes"/>
      <point x="244" y="304"/>
      <point x="259" y="247"/>
      <point x="290" y="196" type="curve" smooth="yes"/>
      <point x="351" y="94"/>
      <point x="463" y="30"/>
      <point x="598" y="30" type="curve" smooth="yes"/>
      <point x="666" y="30"/>
      <point x="727" y="45"/>
      <point x="780" y="75" type="curve" smooth="yes"/>
      <point x="887" y="134"/>
      <point x="952" y="240"/>
      <point x="952" y="368" type="curve" smooth="yes"/>
      <point x="952" y="1118" type="line"/>
      <point x="998" y="1118" type="line"/>
      <point x="998" y="198" type="line" smooth="yes"/>
      <point x="998" y="89"/>
      <point x="1040" y="46"/>
      <point x="1136" y="46" type="curve" smooth="yes"/>
      <point x="1160" y="46" type="line"/>
      <point x="1160" y="0" type="line"/>
      <point x="1136" y="0" type="line" smooth="yes"/>
      <point x="1013" y="0"/>
      <point x="952" y="62"/>
      <point x="952" y="198" type="curve" smooth="yes"/>
      <point x="952" y="368" type="line"/>
      <point x="988" y="368" type="line"/>
      <point x="988" y="227"/>
      <point x="934" y="130"/>
      <point x="855" y="70" type="curve" smooth="yes"/>
      <point x="776" y="10"/>
      <point x="681" y="-16"/>
      <point x="598" y="-16" type="curve" smooth="yes"/>
      <point x="515" y="-16"/>
      <point x="420" y="10"/>
      <point x="341" y="70" type="curve" smooth="yes"/>
      <point x="262" y="130"/>
      <point x="208" y="227"/>
      <point x="208" y="368" type="curve"/>
      <point x="244" y="368" type="line"/>
      <point x="244" y="-418" type="line"/>
    </contour>
  </outline>
</glyph>
<glyph name="paragraph" format="2">
  <advance width="1140"/>
  <unicode hex="00B6"/>
  <outline>
    <contour>
      <point x="900" y="1442" type="line"/>
      <point x="722" y="1442" type="line"/>
      <point x="722" y="552" type="line"/>
      <point x="638" y="552" type="line" smooth="yes"/>
      <point x="532" y="552"/>
      <point x="442" y="572"/>
      <point x="369" y="613" type="curve" smooth="yes"/>
      <point x="222" y="694"/>
      <point x="146" y="842"/>
      <point x="146" y="1022" type="curve" smooth="yes"/>
      <point x="146" y="1111"/>
      <point x="165" y="1191"/>
      <point x="203" y="1262" type="curve" smooth="yes"/>
      <point x="278" y="1402"/>
      <point x="426" y="1490"/>
      <point x="638" y="1490" type="curve" smooth="yes"/>
      <point x="900" y="1490" type="line"/>
    </contour>
    <contour>
      <point x="862" y="0" type="line"/>
      <point x="862" y="1490" type="line"/>
      <point x="908" y="1490" type="line"/>
      <point x="908" y="0" type="line"/>
    </contour>
  </outline>
</glyph>
<glyph name="one.sups.ss01" format="2">
  <advance width="544"/>
  <unicode hex="00B9"/>
  <outline>
    <contour>
      <point x="344" y="886" type="line"/>
      <point x="344" y="1548" type="line"/>
      <point x="348" y="1543" type="line"/>
      <point x="324" y="1523"/>
      <point x="260" y="1499"/>
      <point x="188" y="1489"/>
      <point x="131" y="1489" type="qcurve"/>
      <point x="131" y="1531" type="line"/>
      <point x="166" y="1531" type="line" smooth="yes"/>
      <point x="230" y="1531"/>
      <point x="335" y="1586"/>
      <point x="350" y="1653" type="qcurve"/>
      <point x="390" y="1653" type="line"/>
      <point x="390" y="886" type="line"/>
    </contour>
  </outline>
</glyph>
<glyph name="onesuperior" format="2">
  <advance width="537"/>
  <unicode hex="00B9"/>
  <outline>
    <contour>
      <point x="323" y="916" type="line"/>
      <point x="323" y="1603" type="line"/>
      <point x="327" y="1601" type="line"/>
      <point x="281" y="1545"/>
      <point x="187" y="1517"/>
      <point x="107" y="1517" type="curve"/>
      <point x="107" y="1560" type="line"/>
      <point x="192" y="1562"/>
      <point x="303" y="1592"/>
      <point x="330" y="1683" type="curve"/>
      <point x="372" y="1683" type="line"/>
      <point x="372" y="916" type="line"/>
    </contour>
  </outline>
</glyph>
<glyph name="ordmasculine" format="2">
  <advance width="800"/>
  <unicode hex="00BA"/>
  <outline>
    <contour>
      <point x="401" y="690" type="curve" smooth="yes"/>
      <point x="341" y="690"/>
      <point x="287" y="707"/>
      <point x="240" y="740" type="curve" smooth="yes"/>
      <point x="145" y="807"/>
      <point x="87" y="926"/>
      <point x="87" y="1074" type="curve" smooth="yes"/>
      <point x="87" y="1148"/>
      <point x="101" y="1214"/>
      <point x="128" y="1273" type="curve" smooth="yes"/>
      <point x="183" y="1389"/>
      <point x="281" y="1462"/>
      <point x="401" y="1462" type="curve" smooth="yes"/>
      <point x="460" y="1462"/>
      <point x="514" y="1445"/>
      <point x="561" y="1411" type="curve" smooth="yes"/>
      <point x="655" y="1343"/>
      <point x="713" y="1222"/>
      <point x="713" y="1074" type="curve" smooth="yes"/>
      <point x="713" y="1000"/>
      <point x="699" y="934"/>
      <point x="672" y="877" type="curve" smooth="yes"/>
      <point x="617" y="761"/>
      <point x="520" y="690"/>
    </contour>
    <contour>
      <point x="401" y="730" type="curve"/>
      <point x="454" y="731"/>
      <point x="500" y="747"/>
      <point x="541" y="778" type="curve" smooth="yes"/>
      <point x="621" y="840"/>
      <point x="669" y="949"/>
      <point x="669" y="1074" type="curve" smooth="yes"/>
      <point x="669" y="1138"/>
      <point x="658" y="1196"/>
      <point x="635" y="1248" type="curve" smooth="yes"/>
      <point x="589" y="1352"/>
      <point x="505" y="1418"/>
      <point x="401" y="1418" type="curve" smooth="yes"/>
      <point x="349" y="1418"/>
      <point x="303" y="1403"/>
      <point x="262" y="1372" type="curve" smooth="yes"/>
      <point x="181" y="1311"/>
      <point x="131" y="1202"/>
      <point x="131" y="1074" type="curve" smooth="yes"/>
      <point x="131" y="1010"/>
      <point x="143" y="952"/>
      <point x="166" y="900" type="curve" smooth="yes"/>
      <point x="213" y="796"/>
      <point x="297" y="731"/>
    </contour>
    <contour>
      <point x="690" y="522" type="line"/>
      <point x="690" y="476" type="line"/>
      <point x="110" y="476" type="line"/>
      <point x="110" y="522" type="line"/>
    </contour>
  </outline>
</glyph>
<glyph name="questiondown" format="2">
  <advance width="980"/>
  <unicode hex="00BF"/>
  <outline>
    <contour>
      <point x="556" y="676" type="line"/>
      <point x="556" y="574" type="line" smooth="yes"/>
      <point x="556" y="507"/>
      <point x="519" y="403"/>
      <point x="433" y="309"/>
      <point x="358" y="256" type="qcurve" smooth="yes"/>
      <point x="247" y="179"/>
      <point x="162" y="51"/>
      <point x="162" y="-28" type="qcurve" smooth="yes"/>
      <point x="162" y="-120"/>
      <point x="250" y="-264"/>
      <point x="401" y="-346"/>
      <point x="494" y="-346" type="qcurve" smooth="yes"/>
      <point x="593" y="-346"/>
      <point x="749" y="-255"/>
      <point x="838" y="-98"/>
      <point x="838" y="0" type="qcurve"/>
      <point x="884" y="0" type="line"/>
      <point x="884" y="-111"/>
      <point x="782" y="-289"/>
      <point x="606" y="-392"/>
      <point x="494" y="-392" type="qcurve" smooth="yes"/>
      <point x="388" y="-392"/>
      <point x="216" y="-297"/>
      <point x="116" y="-133"/>
      <point x="116" y="-28" type="qcurve" smooth="yes"/>
      <point x="116" y="64"/>
      <point x="213" y="209"/>
      <point x="332" y="294" type="qcurve"/>
      <point x="401" y="345"/>
      <point x="477" y="427"/>
      <point x="508" y="515"/>
      <point x="508" y="574" type="qcurve" smooth="yes"/>
      <point x="508" y="676" type="line"/>
    </contour>
    <contour>
      <point x="532" y="1127" type="qcurve" smooth="yes"/>
      <point x="554" y="1127"/>
      <point x="585" y="1096"/>
      <point x="585" y="1074" type="qcurve" smooth="yes"/>
      <point x="585" y="1052"/>
      <point x="554" y="1021"/>
      <point x="532" y="1021" type="qcurve" smooth="yes"/>
      <point x="510" y="1021"/>
      <point x="479" y="1052"/>
      <point x="479" y="1074" type="qcurve" smooth="yes"/>
      <point x="479" y="1096"/>
      <point x="510" y="1127"/>
    </contour>
  </outline>
</glyph>
<glyph name="AE" format="2">
  <advance width="1964"/>
  <unicode hex="00C6"/>
  <anchor x="1304" y="1490" name="m.uni030F_1"/>
  <outline>
    <contour>
      <point x="66" y="0" type="line"/>
      <point x="826" y="1490" type="line"/>
      <point x="1794" y="1490" type="line"/>
      <point x="1794" y="1442" type="line"/>
      <point x="1048" y="1442" type="line"/>
      <point x="1048" y="768" type="line"/>
      <point x="1752" y="768" type="line"/>
      <point x="1752" y="722" type="line"/>
      <point x="1048" y="722" type="line"/>
      <point x="1048" y="46" type="line"/>
      <point x="1816" y="46" type="line"/>
      <point x="1816" y="0" type="line"/>
      <point x="1000" y="0" type="line"/>
      <point x="1000" y="1442" type="line"/>
      <point x="856" y="1442" type="line"/>
      <point x="120" y="0" type="line"/>
    </contour>
    <contour>
      <point x="358" y="504" type="line"/>
      <point x="358" y="550" type="line"/>
      <point x="1026" y="550" type="line"/>
      <point x="1026" y="504" type="line"/>
    </contour>
  </outline>
</glyph>
<glyph name="Thorn" format="2">
  <advance width="1210"/>
  <unicode hex="00DE"/>
  <outline>
    <contour>
      <point x="210" y="1490" type="line"/>
      <point x="256" y="1490" type="line"/>
      <point x="256" y="0" type="line"/>
      <point x="210" y="0" type="line"/>
    </contour>
    <contour>
      <point x="236" y="1132" type="line"/>
      <point x="614" y="1132" type="line" smooth="yes"/>
      <point x="703" y="1132"/>
      <point x="780" y="1116"/>
      <point x="845" y="1085" type="curve" smooth="yes"/>
      <point x="975" y="1022"/>
      <point x="1048" y="904"/>
      <point x="1048" y="745" type="curve" smooth="yes"/>
      <point x="1048" y="665"/>
      <point x="1031" y="596"/>
      <point x="996" y="539" type="curve" smooth="yes"/>
      <point x="927" y="424"/>
      <point x="795" y="362"/>
      <point x="614" y="362" type="curve" smooth="yes"/>
      <point x="236" y="362" type="line"/>
      <point x="236" y="408" type="line"/>
      <point x="614" y="408" type="line" smooth="yes"/>
      <point x="696" y="408"/>
      <point x="766" y="421"/>
      <point x="824" y="447" type="curve" smooth="yes"/>
      <point x="940" y="499"/>
      <point x="1002" y="601"/>
      <point x="1002" y="745" type="curve" smooth="yes"/>
      <point x="1002" y="816"/>
      <point x="986" y="877"/>
      <point x="955" y="928" type="curve" smooth="yes"/>
      <point x="892" y="1029"/>
      <point x="775" y="1086"/>
      <point x="614" y="1086" type="curve" smooth="yes"/>
      <point x="236" y="1086" type="line"/>
    </contour>
  </outline>
</glyph>
<glyph name="germandbls" format="2">
  <advance width="1178"/>
  <unicode hex="00DF"/>
  <outline>
    <contour>
      <point x="232" y="0" type="line"/>
      <point x="232" y="1152" type="line" smooth="yes"/>
      <point x="232" y="1226"/>
      <point x="247" y="1290"/>
      <point x="276" y="1343" type="curve" smooth="yes"/>
      <point x="335" y="1450"/>
      <point x="444" y="1510"/>
      <point x="592" y="1510" type="curve" smooth="yes"/>
      <point x="666" y="1510"/>
      <point x="730" y="1496"/>
      <point x="784" y="1467" type="curve" smooth="yes"/>
      <point x="838" y="1438"/>
      <point x="880" y="1396"/>
      <point x="909" y="1343" type="curve" smooth="yes"/>
      <point x="938" y="1290"/>
      <point x="952" y="1226"/>
      <point x="952" y="1152" type="curve" smooth="yes"/>
      <point x="952" y="1056"/>
      <point x="928" y="975"/>
      <point x="881" y="910" type="curve" smooth="yes"/>
      <point x="833" y="844"/>
      <point x="763" y="799"/>
      <point x="672" y="775" type="curve"/>
      <point x="672" y="771" type="line"/>
      <point x="777" y="754"/>
      <point x="861" y="712"/>
      <point x="925" y="643" type="curve" smooth="yes"/>
      <point x="988" y="574"/>
      <point x="1020" y="488"/>
      <point x="1020" y="386" type="curve" smooth="yes"/>
      <point x="1020" y="309"/>
      <point x="1002" y="242"/>
      <point x="966" y="184" type="curve" smooth="yes"/>
      <point x="894" y="68"/>
      <point x="760" y="0"/>
      <point x="588" y="0" type="curve" smooth="yes"/>
      <point x="486" y="0" type="line"/>
      <point x="486" y="46" type="line"/>
      <point x="588" y="46" type="line" smooth="yes"/>
      <point x="704" y="46"/>
      <point x="797" y="77"/>
      <point x="868" y="140" type="curve" smooth="yes"/>
      <point x="939" y="202"/>
      <point x="974" y="284"/>
      <point x="974" y="386" type="curve" smooth="yes"/>
      <point x="974" y="496"/>
      <point x="933" y="584"/>
      <point x="850" y="650" type="curve" smooth="yes"/>
      <point x="767" y="716"/>
      <point x="655" y="749"/>
      <point x="514" y="749" type="curve" smooth="yes"/>
      <point x="492" y="749" type="line"/>
      <point x="492" y="791" type="line"/>
      <point x="514" y="791" type="line" smooth="yes"/>
      <point x="595" y="791"/>
      <point x="665" y="806"/>
      <point x="724" y="835" type="curve" smooth="yes"/>
      <point x="841" y="893"/>
      <point x="906" y="1003"/>
      <point x="906" y="1152" type="curve" smooth="yes"/>
      <point x="906" y="1250"/>
      <point x="878" y="1327"/>
      <point x="823" y="1382" type="curve" smooth="yes"/>
      <point x="768" y="1437"/>
      <point x="691" y="1464"/>
      <point x="592" y="1464" type="curve" smooth="yes"/>
      <point x="493" y="1464"/>
      <point x="416" y="1437"/>
      <point x="361" y="1382" type="curve" smooth="yes"/>
      <point x="306" y="1327"/>
      <point x="278" y="1250"/>
      <point x="278" y="1152" type="curve" smooth="yes"/>
      <point x="278" y="0" type="line"/>
    </contour>
  </outline>
</glyph>
<glyph name="ae" format="2">
  <advance width="1888"/>
  <unicode hex="00E6"/>
  <anchor x="913" y="1303" name="m.uni030F_1"/>
  <outline>
    <contour>
      <point x="477" y="-23" type="curve" smooth="yes"/>
      <point x="416" y="-23"/>
      <point x="359" y="-11"/>
      <point x="308" y="15" type="curve"/>
      <point x="205" y="65"/>
      <point x="137" y="163"/>
      <point x="137" y="303" type="curve" smooth="yes"/>
      <point x="137" y="378"/>
      <point x="158" y="446"/>
      <point x="219" y="500" type="curve" smooth="yes"/>
      <point x="280" y="554"/>
      <point x="387" y="590"/>
      <point x="559" y="614" type="curve" smooth="yes"/>
      <point x="858" y="656" type="line"/>
      <point x="858" y="803" type="line" smooth="yes"/>
      <point x="858" y="889"/>
      <point x="829" y="958"/>
      <point x="772" y="1010" type="curve" smooth="yes"/>
      <point x="714" y="1062"/>
      <point x="637" y="1088"/>
      <point x="541" y="1088" type="curve" smooth="yes"/>
      <point x="462" y="1088"/>
      <point x="394" y="1071"/>
      <point x="335" y="1036" type="curve" smooth="yes"/>
      <point x="276" y="1001"/>
      <point x="235" y="953"/>
      <point x="212" y="890" type="curve"/>
      <point x="169" y="908" type="line"/>
      <point x="186" y="954"/>
      <point x="213" y="994"/>
      <point x="250" y="1028" type="curve" smooth="yes"/>
      <point x="322" y="1096"/>
      <point x="425" y="1135"/>
      <point x="541" y="1135" type="curve" smooth="yes"/>
      <point x="654" y="1135"/>
      <point x="745" y="1099"/>
      <point x="808" y="1040" type="curve" smooth="yes"/>
      <point x="871" y="980"/>
      <point x="905" y="898"/>
      <point x="905" y="803" type="curve" smooth="yes"/>
      <point x="905" y="349" type="line"/>
      <point x="896" y="349" type="line"/>
      <point x="874" y="260"/>
      <point x="841" y="188"/>
      <point x="796" y="134" type="curve" smooth="yes"/>
      <point x="707" y="25"/>
      <point x="589" y="-23"/>
    </contour>
    <contour>
      <point x="477" y="23" type="curve" smooth="yes"/>
      <point x="548" y="23"/>
      <point x="612" y="42"/>
      <point x="670" y="80" type="curve" smooth="yes"/>
      <point x="785" y="156"/>
      <point x="858" y="297"/>
      <point x="858" y="477" type="curve" smooth="yes"/>
      <point x="858" y="616" type="line"/>
      <point x="576" y="570" type="line" smooth="yes"/>
      <point x="477" y="554"/>
      <point x="398" y="535"/>
      <point x="341" y="514" type="curve" smooth="yes"/>
      <point x="226" y="470"/>
      <point x="183" y="398"/>
      <point x="183" y="303" type="curve" smooth="yes"/>
      <point x="183" y="218"/>
      <point x="211" y="151"/>
      <point x="268" y="100" type="curve" smooth="yes"/>
      <point x="325" y="49"/>
      <point x="394" y="23"/>
    </contour>
    <contour>
      <point x="1324" y="-23" type="curve" smooth="yes"/>
      <point x="1212" y="-23"/>
      <point x="1117" y="10"/>
      <point x="1038" y="76" type="curve" smooth="yes"/>
      <point x="959" y="142"/>
      <point x="903" y="228"/>
      <point x="870" y="335" type="curve"/>
      <point x="884" y="817" type="line"/>
      <point x="921" y="913"/>
      <point x="977" y="990"/>
      <point x="1050" y="1048" type="curve" smooth="yes"/>
      <point x="1123" y="1106"/>
      <point x="1206" y="1135"/>
      <point x="1300" y="1135" type="curve" smooth="yes"/>
      <point x="1431" y="1135"/>
      <point x="1543" y="1075"/>
      <point x="1626" y="978" type="curve" smooth="yes"/>
      <point x="1709" y="881"/>
      <point x="1757" y="749"/>
      <point x="1757" y="605" type="curve" smooth="yes"/>
      <point x="1757" y="559" type="line"/>
      <point x="870" y="559" type="line"/>
      <point x="870" y="605" type="line"/>
      <point x="1711" y="605" type="line"/>
      <point x="1711" y="694"/>
      <point x="1693" y="776"/>
      <point x="1656" y="849" type="curve" smooth="yes"/>
      <point x="1619" y="922"/>
      <point x="1569" y="980"/>
      <point x="1507" y="1023" type="curve" smooth="yes"/>
      <point x="1445" y="1066"/>
      <point x="1376" y="1088"/>
      <point x="1300" y="1088" type="curve" smooth="yes"/>
      <point x="1223" y="1088"/>
      <point x="1154" y="1065"/>
      <point x="1092" y="1020" type="curve" smooth="yes"/>
      <point x="1030" y="974"/>
      <point x="980" y="912"/>
      <point x="943" y="834" type="curve" smooth="yes"/>
      <point x="906" y="755"/>
      <point x="886" y="666"/>
      <point x="884" y="567" type="curve"/>
      <point x="884" y="561" type="line" smooth="yes"/>
      <point x="884" y="464"/>
      <point x="901" y="374"/>
      <point x="935" y="293" type="curve" smooth="yes"/>
      <point x="969" y="211"/>
      <point x="1019" y="146"/>
      <point x="1085" y="97" type="curve" smooth="yes"/>
      <point x="1150" y="48"/>
      <point x="1230" y="23"/>
      <point x="1324" y="23" type="curve" smooth="yes"/>
      <point x="1393" y="23"/>
      <point x="1450" y="35"/>
      <point x="1497" y="60" type="curve" smooth="yes"/>
      <point x="1544" y="84"/>
      <point x="1581" y="112"/>
      <point x="1610" y="144" type="curve" smooth="yes"/>
      <point x="1638" y="175"/>
      <point x="1659" y="202"/>
      <point x="1673" y="224" type="curve"/>
      <point x="1711" y="198" type="line"/>
      <point x="1694" y="170"/>
      <point x="1670" y="139"/>
      <point x="1637" y="104" type="curve" smooth="yes"/>
      <point x="1604" y="69"/>
      <point x="1562" y="40"/>
      <point x="1511" y="15" type="curve" smooth="yes"/>
      <point x="1459" y="-11"/>
      <point x="1397" y="-23"/>
    </contour>
  </outline>
</glyph>
<glyph name="eth" format="2">
  <advance width="1214"/>
  <unicode hex="00F0"/>
  <outline>
    <contour>
      <point x="980" y="1462" type="line"/>
      <point x="410" y="1202" type="line"/>
      <point x="398" y="1248" type="line"/>
      <point x="968" y="1506" type="line"/>
    </contour>
    <contour>
      <point x="608" y="-24" type="curve" smooth="yes"/>
      <point x="519" y="-23"/>
      <point x="438" y="1"/>
      <point x="366" y="49" type="curve" smooth="yes"/>
      <point x="293" y="97"/>
      <point x="236" y="162"/>
      <point x="194" y="245" type="curve" smooth="yes"/>
      <point x="151" y="327"/>
      <point x="130" y="419"/>
      <point x="130" y="520" type="curve" smooth="yes"/>
      <point x="130" y="621"/>
      <point x="151" y="713"/>
      <point x="194" y="795" type="curve" smooth="yes"/>
      <point x="236" y="877"/>
      <point x="293" y="942"/>
      <point x="366" y="990" type="curve" smooth="yes"/>
      <point x="438" y="1038"/>
      <point x="519" y="1062"/>
      <point x="608" y="1062" type="curve" smooth="yes"/>
      <point x="664" y="1062"/>
      <point x="716" y="1053"/>
      <point x="764" y="1035" type="curve" smooth="yes"/>
      <point x="859" y="999"/>
      <point x="938" y="927"/>
      <point x="998" y="820" type="curve"/>
      <point x="1006" y="820" type="line"/>
      <point x="975" y="920"/>
      <point x="931" y="1014"/>
      <point x="876" y="1103" type="curve" smooth="yes"/>
      <point x="820" y="1192"/>
      <point x="753" y="1273"/>
      <point x="676" y="1347" type="curve" smooth="yes"/>
      <point x="599" y="1420"/>
      <point x="511" y="1483"/>
      <point x="414" y="1536" type="curve"/>
      <point x="430" y="1582" type="line"/>
      <point x="531" y="1528"/>
      <point x="621" y="1463"/>
      <point x="702" y="1388" type="curve" smooth="yes"/>
      <point x="782" y="1313"/>
      <point x="851" y="1230"/>
      <point x="908" y="1139" type="curve" smooth="yes"/>
      <point x="965" y="1048"/>
      <point x="1008" y="953"/>
      <point x="1038" y="853" type="curve" smooth="yes"/>
      <point x="1068" y="753"/>
      <point x="1083" y="651"/>
      <point x="1084" y="548" type="curve"/>
      <point x="1084" y="432"/>
      <point x="1063" y="331"/>
      <point x="1021" y="246" type="curve" smooth="yes"/>
      <point x="937" y="74"/>
      <point x="787" y="-23"/>
    </contour>
    <contour>
      <point x="608" y="24" type="curve" smooth="yes"/>
      <point x="689" y="24"/>
      <point x="761" y="46"/>
      <point x="826" y="90" type="curve" smooth="yes"/>
      <point x="891" y="133"/>
      <point x="942" y="193"/>
      <point x="981" y="268" type="curve" smooth="yes"/>
      <point x="1019" y="343"/>
      <point x="1038" y="427"/>
      <point x="1038" y="520" type="curve" smooth="yes"/>
      <point x="1038" y="613"/>
      <point x="1019" y="696"/>
      <point x="981" y="771" type="curve" smooth="yes"/>
      <point x="942" y="846"/>
      <point x="891" y="905"/>
      <point x="826" y="950" type="curve" smooth="yes"/>
      <point x="761" y="994"/>
      <point x="689" y="1016"/>
      <point x="608" y="1016" type="curve" smooth="yes"/>
      <point x="528" y="1016"/>
      <point x="456" y="994"/>
      <point x="391" y="950" type="curve" smooth="yes"/>
      <point x="326" y="905"/>
      <point x="274" y="846"/>
      <point x="236" y="771" type="curve" smooth="yes"/>
      <point x="197" y="696"/>
      <point x="178" y="612"/>
      <point x="178" y="520" type="curve" smooth="yes"/>
      <point x="178" y="427"/>
      <point x="197" y="343"/>
      <point x="236" y="268" type="curve" smooth="yes"/>
      <point x="274" y="193"/>
      <point x="325" y="133"/>
      <point x="390" y="90" type="curve" smooth="yes"/>
      <point x="455" y="46"/>
      <point x="527" y="24"/>
    </contour>
  </outline>
</glyph>
<glyph name="divide" format="2">
  <advance width="1304"/>
  <unicode hex="00F7"/>
  <outline>
    <contour>
      <point x="1074" y="606" type="line"/>
      <point x="1074" y="558" type="line"/>
      <point x="230" y="558" type="line"/>
      <point x="230" y="606" type="line"/>
    </contour>
    <contour>
      <point x="652" y="198" type="curve" smooth="yes"/>
      <point x="637" y="198"/>
      <point x="625" y="203"/>
      <point x="615" y="213" type="curve" smooth="yes"/>
      <point x="605" y="223"/>
      <point x="600" y="235"/>
      <point x="600" y="250" type="curve" smooth="yes"/>
      <point x="600" y="265"/>
      <point x="605" y="277"/>
      <point x="615" y="287" type="curve" smooth="yes"/>
      <point x="625" y="297"/>
      <point x="637" y="302"/>
      <point x="652" y="302" type="curve" smooth="yes"/>
      <point x="667" y="302"/>
      <point x="679" y="297"/>
      <point x="689" y="287" type="curve" smooth="yes"/>
      <point x="699" y="277"/>
      <point x="704" y="265"/>
      <point x="704" y="250" type="curve" smooth="yes"/>
      <point x="704" y="235"/>
      <point x="699" y="223"/>
      <point x="689" y="213" type="curve" smooth="yes"/>
      <point x="679" y="203"/>
      <point x="667" y="198"/>
    </contour>
    <contour>
      <point x="652" y="862" type="curve"/>
      <point x="637" y="861"/>
      <point x="625" y="866"/>
      <point x="615" y="877" type="curve"/>
      <point x="605" y="887"/>
      <point x="600" y="899"/>
      <point x="600" y="914" type="curve" smooth="yes"/>
      <point x="600" y="929"/>
      <point x="605" y="941"/>
      <point x="615" y="951" type="curve" smooth="yes"/>
      <point x="625" y="961"/>
      <point x="637" y="966"/>
      <point x="652" y="966" type="curve" smooth="yes"/>
      <point x="667" y="966"/>
      <point x="679" y="961"/>
      <point x="689" y="951" type="curve" smooth="yes"/>
      <point x="699" y="941"/>
      <point x="704" y="929"/>
      <point x="704" y="914" type="curve" smooth="yes"/>
      <point x="704" y="899"/>
      <point x="699" y="887"/>
      <point x="689" y="877" type="curve"/>
      <point x="679" y="866"/>
      <point x="667" y="861"/>
    </contour>
  </outline>
</glyph>
<glyph name="Hbar" format="2">
  <advance width="1530"/>
  <unicode hex="0126"/>
  <outline>
    <contour>
      <point x="1402" y="1080" type="line"/>
      <point x="1402" y="1032" type="line"/>
      <point x="128" y="1032" type="line"/>
      <point x="128" y="1080" type="line"/>
    </contour>
    <contour>
      <point x="246" y="0" type="line"/>
      <point x="246" y="1490" type="line"/>
      <point x="292" y="1490" type="line"/>
      <point x="292" y="784" type="line"/>
      <point x="1240" y="784" type="line"/>
      <point x="1240" y="1490" type="line"/>
      <point x="1286" y="1490" type="line"/>
      <point x="1286" y="0" type="line"/>
      <point x="1240" y="0" type="line"/>
      <point x="1240" y="738" type="line"/>
      <point x="292" y="738" type="line"/>
      <point x="292" y="0" type="line"/>
    </contour>
  </outline>
</glyph>
<glyph name="dotlessi" format="2">
  <advance width="442"/>
  <unicode hex="0131"/>
  <outline>
    <contour>
      <point x="198" y="0" type="line"/>
      <point x="198" y="1118" type="line"/>
      <point x="244" y="1118" type="line"/>
      <point x="244" y="0" type="line"/>
    </contour>
  </outline>
</glyph>
<glyph name="Eng" format="2">
  <advance width="1580"/>
  <unicode hex="014A"/>
  <outline>
    <contour>
      <point x="1092" y="-418" type="qcurve"/>
      <point x="1092" y="-372" type="line"/>
      <point x="1111" y="-372"/>
      <point x="1151" y="-372"/>
      <point x="1164" y="-372" type="qcurve" smooth="yes"/>
      <point x="1236" y="-372"/>
      <point x="1302" y="-302"/>
      <point x="1302" y="-220" type="qcurve" smooth="yes"/>
      <point x="1302" y="128" type="line"/>
      <point x="1348" y="128" type="line"/>
      <point x="1348" y="-220" type="line" smooth="yes"/>
      <point x="1348" y="-322"/>
      <point x="1256" y="-418"/>
      <point x="1164" y="-418" type="qcurve" smooth="yes"/>
      <point x="1151" y="-418"/>
      <point x="1109" y="-418"/>
    </contour>
    <contour>
      <point x="232" y="0" type="line"/>
      <point x="232" y="1490" type="line"/>
      <point x="276" y="1490" type="line"/>
      <point x="1099" y="359" type="line" smooth="yes"/>
      <point x="1137" y="307"/>
      <point x="1210" y="203"/>
      <point x="1284" y="100"/>
      <point x="1321" y="48" type="qcurve"/>
      <point x="1306" y="48" type="line"/>
      <point x="1306" y="100"/>
      <point x="1304" y="203"/>
      <point x="1302" y="307"/>
      <point x="1302" y="359" type="qcurve" smooth="yes"/>
      <point x="1302" y="1490" type="line"/>
      <point x="1348" y="1490" type="line"/>
      <point x="1348" y="0" type="line"/>
      <point x="1304" y="0" type="line"/>
      <point x="483" y="1129" type="line" smooth="yes"/>
      <point x="445" y="1181"/>
      <point x="372" y="1285"/>
      <point x="298" y="1389"/>
      <point x="260" y="1441" type="qcurve"/>
      <point x="274" y="1441" type="line"/>
      <point x="274" y="1389"/>
      <point x="276" y="1285"/>
      <point x="278" y="1181"/>
      <point x="278" y="1129" type="qcurve" smooth="yes"/>
      <point x="278" y="0" type="line"/>
    </contour>
  </outline>
</glyph>
<glyph name="eng" format="2">
  <advance width="1196"/>
  <unicode hex="014B"/>
  <outline>
    <contour>
      <point x="742" y="-418" type="qcurve"/>
      <point x="742" y="-372" type="line"/>
      <point x="761" y="-372"/>
      <point x="801" y="-372"/>
      <point x="814" y="-372" type="qcurve" smooth="yes"/>
      <point x="886" y="-372"/>
      <point x="952" y="-302"/>
      <point x="952" y="-220" type="qcurve" smooth="yes"/>
      <point x="952" y="0" type="line"/>
      <point x="998" y="0" type="line"/>
      <point x="998" y="-220" type="line" smooth="yes"/>
      <point x="998" y="-322"/>
      <point x="906" y="-418"/>
      <point x="814" y="-418" type="qcurve" smooth="yes"/>
      <point x="801" y="-418"/>
      <point x="759" y="-418"/>
    </contour>
    <contour>
      <point x="244" y="750" type="qcurve" smooth="yes"/>
      <point x="244" y="0" type="line"/>
      <point x="198" y="0" type="line"/>
      <point x="198" y="1118" type="line"/>
      <point x="244" y="1118" type="line"/>
      <point x="244" y="878" type="line"/>
      <point x="232" y="878" type="line"/>
      <point x="268" y="1006"/>
      <point x="481" y="1134"/>
      <point x="608" y="1134" type="qcurve" smooth="yes"/>
      <point x="723" y="1134"/>
      <point x="898" y="1037"/>
      <point x="998" y="865"/>
      <point x="998" y="750" type="qcurve" smooth="yes"/>
      <point x="998" y="0" type="line"/>
      <point x="952" y="0" type="line"/>
      <point x="952" y="750" type="line" smooth="yes"/>
      <point x="952" y="902"/>
      <point x="760" y="1088"/>
      <point x="608" y="1088" type="qcurve" smooth="yes"/>
      <point x="504" y="1088"/>
      <point x="339" y="1001"/>
      <point x="244" y="848"/>
    </contour>
  </outline>
</glyph>
<glyph name="OE" format="2">
  <advance width="1888"/>
  <unicode hex="0152"/>
  <anchor x="1259" y="0" name="m.uni0326"/>
  <anchor x="1259" y="1490" name="m.uni030F_1"/>
  <anchor x="1212" y="0" name="m.uni0327_3"/>
  <anchor x="1746" y="0" name="m.uni0328_4"/>
  <outline>
    <contour>
      <point x="766" y="0" type="line" smooth="yes"/>
      <point x="582" y="0"/>
      <point x="303" y="188"/>
      <point x="148" y="524"/>
      <point x="148" y="744" type="qcurve" smooth="yes"/>
      <point x="148" y="966"/>
      <point x="304" y="1302"/>
      <point x="582" y="1490"/>
      <point x="766" y="1490" type="qcurve" smooth="yes"/>
      <point x="948" y="1490" type="line"/>
      <point x="948" y="1442" type="line"/>
      <point x="766" y="1442" type="line"/>
      <point x="597" y="1443"/>
      <point x="339" y="1269"/>
      <point x="194" y="954"/>
      <point x="194" y="744" type="qcurve" smooth="yes"/>
      <point x="194" y="538"/>
      <point x="337" y="223"/>
      <point x="595" y="46"/>
      <point x="766" y="46" type="qcurve" smooth="yes"/>
      <point x="948" y="46" type="line"/>
      <point x="948" y="0" type="line"/>
    </contour>
    <contour>
      <point x="924" y="0" type="line"/>
      <point x="924" y="1490" type="line"/>
      <point x="1718" y="1490" type="line"/>
      <point x="1718" y="1444" type="line"/>
      <point x="970" y="1444" type="line"/>
      <point x="970" y="768" type="line"/>
      <point x="1676" y="768" type="line"/>
      <point x="1676" y="722" type="line"/>
      <point x="970" y="722" type="line"/>
      <point x="970" y="46" type="line"/>
      <point x="1740" y="46" type="line"/>
      <point x="1740" y="0" type="line"/>
    </contour>
  </outline>
</glyph>
<glyph name="tbar" format="2">
  <advance width="586"/>
  <unicode hex="0167"/>
  <anchor x="382" y="0" name="m.uni0326"/>
  <anchor x="266" y="1464" name="m.uni030F_1"/>
  <anchor x="469" y="0" name="m.uni0327_3"/>
  <outline>
    <contour>
      <point x="546" y="745" type="line"/>
      <point x="546" y="699" type="line"/>
      <point x="104" y="699" type="line"/>
      <point x="104" y="745" type="line"/>
    </contour>
    <contour>
      <point x="174" y="1384" type="line"/>
      <point x="220" y="1384" type="line"/>
      <point x="220" y="213" type="line" smooth="yes"/>
      <point x="220" y="113"/>
      <point x="321" y="18"/>
      <point x="407" y="40" type="qcurve" smooth="yes"/>
      <point x="415" y="42"/>
      <point x="433" y="47"/>
      <point x="441" y="49" type="qcurve"/>
      <point x="452" y="4" type="line"/>
      <point x="443" y="2"/>
      <point x="424" y="-3"/>
      <point x="415" y="-5" type="qcurve" smooth="yes"/>
      <point x="303" y="-32"/>
      <point x="174" y="97"/>
      <point x="174" y="213" type="qcurve" smooth="yes"/>
    </contour>
    <contour>
      <point x="452" y="1118" type="line"/>
      <point x="452" y="1072" type="line"/>
      <point x="10" y="1072" type="line"/>
      <point x="10" y="1118" type="line"/>
    </contour>
  </outline>
</glyph>
<glyph name="longs" format="2">
  <advance width="678"/>
  <unicode hex="017F"/>
  <anchor x="499" y="0" name="m.uni0326"/>
  <anchor x="551" y="1676" name="m.uni030F_1"/>
  <outline>
    <contour>
      <point x="294" y="0" type="line"/>
      <point x="294" y="1300" type="line" smooth="yes"/>
      <point x="294" y="1379"/>
      <point x="357" y="1493"/>
      <point x="465" y="1556"/>
      <point x="534" y="1556" type="qcurve" smooth="yes"/>
      <point x="566" y="1556"/>
      <point x="618" y="1548"/>
      <point x="638" y="1540" type="qcurve"/>
      <point x="624" y="1496" type="line"/>
      <point x="606" y="1503"/>
      <point x="561" y="1510"/>
      <point x="534" y="1510" type="qcurve" smooth="yes"/>
      <point x="451" y="1510"/>
      <point x="340" y="1398"/>
      <point x="340" y="1300" type="qcurve" smooth="yes"/>
      <point x="340" y="0" type="line"/>
    </contour>
  </outline>
</glyph>
<glyph name="Bhook" format="2">
  <advance width="1470"/>
  <unicode hex="0181"/>
  <anchor x="1094" y="0" name="m.uni0326"/>
  <anchor x="1086" y="1479" name="m.uni030F_1"/>
  <outline>
    <contour>
      <point x="84" y="1118" type="line"/>
      <point x="84" y="1280" type="line" smooth="yes"/>
      <point x="84" y="1348"/>
      <point x="101" y="1400"/>
      <point x="135" y="1436" type="curve" smooth="yes"/>
      <point x="168" y="1472"/>
      <point x="217" y="1490"/>
      <point x="280" y="1490" type="curve" smooth="yes"/>
      <point x="390" y="1490" type="line"/>
      <point x="390" y="1444" type="line"/>
      <point x="284" y="1444" type="line" smooth="yes"/>
      <point x="179" y="1444"/>
      <point x="130" y="1392"/>
      <point x="130" y="1280" type="curve" smooth="yes"/>
      <point x="130" y="1118" type="line"/>
    </contour>
    <contour>
      <point x="392" y="0" type="line"/>
      <point x="392" y="1490" type="line"/>
      <point x="856" y="1490" type="line" smooth="yes"/>
      <point x="939" y="1490"/>
      <point x="1011" y="1475"/>
      <point x="1070" y="1445" type="curve" smooth="yes"/>
      <point x="1189" y="1384"/>
      <point x="1254" y="1268"/>
      <point x="1254" y="1112" type="curve" smooth="yes"/>
      <point x="1254" y="1053"/>
      <point x="1245" y="1000"/>
      <point x="1228" y="951" type="curve"/>
      <point x="1192" y="854"/>
      <point x="1124" y="784"/>
      <point x="1028" y="760" type="curve"/>
      <point x="1028" y="754" type="line"/>
      <point x="1077" y="749"/>
      <point x="1124" y="731"/>
      <point x="1167" y="698" type="curve" smooth="yes"/>
      <point x="1210" y="665"/>
      <point x="1245" y="621"/>
      <point x="1272" y="567" type="curve" smooth="yes"/>
      <point x="1299" y="512"/>
      <point x="1312" y="451"/>
      <point x="1312" y="382" type="curve" smooth="yes"/>
      <point x="1312" y="305"/>
      <point x="1296" y="238"/>
      <point x="1264" y="181" type="curve" smooth="yes"/>
      <point x="1200" y="66"/>
      <point x="1077" y="0"/>
      <point x="906" y="0" type="curve" smooth="yes"/>
    </contour>
    <contour>
      <point x="438" y="46" type="line"/>
      <point x="906" y="46" type="line" smooth="yes"/>
      <point x="1015" y="46"/>
      <point x="1103" y="77"/>
      <point x="1168" y="139" type="curve" smooth="yes"/>
      <point x="1233" y="200"/>
      <point x="1266" y="281"/>
      <point x="1266" y="382" type="curve" smooth="yes"/>
      <point x="1266" y="451"/>
      <point x="1251" y="512"/>
      <point x="1220" y="565" type="curve" smooth="yes"/>
      <point x="1159" y="671"/>
      <point x="1046" y="734"/>
      <point x="906" y="734" type="curve" smooth="yes"/>
      <point x="438" y="734" type="line"/>
    </contour>
    <contour>
      <point x="438" y="780" type="line"/>
      <point x="906" y="780" type="line" smooth="yes"/>
      <point x="974" y="780"/>
      <point x="1030" y="795"/>
      <point x="1075" y="826" type="curve" smooth="yes"/>
      <point x="1164" y="887"/>
      <point x="1208" y="993"/>
      <point x="1208" y="1112" type="curve" smooth="yes"/>
      <point x="1208" y="1217"/>
      <point x="1177" y="1299"/>
      <point x="1114" y="1357" type="curve" smooth="yes"/>
      <point x="1051" y="1415"/>
      <point x="965" y="1444"/>
      <point x="856" y="1444" type="curve" smooth="yes"/>
      <point x="438" y="1444" type="line"/>
    </contour>
  </outline>
</glyph>
<glyph name="uni0181" format="2">
  <advance width="1470"/>
  <unicode hex="0181"/>
  <anchor x="1094" y="0" name="m.uni0326"/>
  <anchor x="1086" y="1479" name="m.uni030F_1"/>
  <outline>
    <contour>
      <point x="84" y="1118" type="line"/>
      <point x="84" y="1280" type="line" smooth="yes"/>
      <point x="84" y="1382"/>
      <point x="185" y="1490"/>
      <point x="280" y="1490" type="qcurve" smooth="yes"/>
      <point x="390" y="1490" type="line"/>
      <point x="390" y="1444" type="line"/>
      <point x="284" y="1444" type="line" smooth="yes"/>
      <point x="205" y="1444"/>
      <point x="130" y="1364"/>
      <point x="130" y="1280" type="qcurve" smooth="yes"/>
      <point x="130" y="1118" type="line"/>
    </contour>
    <contour>
      <point x="392" y="0" type="line"/>
      <point x="392" y="1490" type="line"/>
      <point x="856" y="1490" type="line" smooth="yes"/>
      <point x="981" y="1490"/>
      <point x="1159" y="1399"/>
      <point x="1254" y="1229"/>
      <point x="1254" y="1112" type="qcurve" smooth="yes"/>
      <point x="1254" y="1024"/>
      <point x="1201" y="878"/>
      <point x="1100" y="778"/>
      <point x="1028" y="760" type="qcurve"/>
      <point x="1028" y="754" type="line"/>
      <point x="1102" y="747"/>
      <point x="1232" y="648"/>
      <point x="1312" y="485"/>
      <point x="1312" y="382" type="qcurve" smooth="yes"/>
      <point x="1312" y="267"/>
      <point x="1216" y="95"/>
      <point x="1034" y="0"/>
      <point x="906" y="0" type="qcurve" smooth="yes"/>
    </contour>
    <contour>
      <point x="438" y="46" type="line"/>
      <point x="906" y="46" type="line" smooth="yes"/>
      <point x="1070" y="46"/>
      <point x="1266" y="231"/>
      <point x="1266" y="382" type="qcurve" smooth="yes"/>
      <point x="1266" y="485"/>
      <point x="1174" y="644"/>
      <point x="1011" y="734"/>
      <point x="906" y="734" type="qcurve" smooth="yes"/>
      <point x="438" y="734" type="line"/>
    </contour>
    <contour>
      <point x="438" y="780" type="line"/>
      <point x="906" y="780" type="line" smooth="yes"/>
      <point x="1008" y="780"/>
      <point x="1142" y="872"/>
      <point x="1208" y="1023"/>
      <point x="1208" y="1112" type="qcurve" smooth="yes"/>
      <point x="1208" y="1270"/>
      <point x="1019" y="1444"/>
      <point x="856" y="1444" type="qcurve" smooth="yes"/>
      <point x="438" y="1444" type="line"/>
    </contour>
  </outline>
</glyph>
<glyph name="Btopbar" format="2">
  <advance width="1338"/>
  <unicode hex="0182"/>
  <outline>
    <contour>
      <point x="232" y="0" type="line"/>
      <point x="232" y="1490" type="line"/>
      <point x="1042" y="1490" type="line"/>
      <point x="1042" y="1442" type="line"/>
      <point x="280" y="1442" type="line"/>
      <point x="280" y="776" type="line"/>
      <point x="792" y="776" type="line"/>
      <point x="876" y="777"/>
      <point x="949" y="762"/>
      <point x="1012" y="731" type="curve" smooth="yes"/>
      <point x="1136" y="670"/>
      <point x="1208" y="556"/>
      <point x="1208" y="404" type="curve" smooth="yes"/>
      <point x="1208" y="321"/>
      <point x="1191" y="250"/>
      <point x="1158" y="189" type="curve" smooth="yes"/>
      <point x="1090" y="68"/>
      <point x="963" y="0"/>
      <point x="792" y="0" type="curve" smooth="yes"/>
    </contour>
    <contour>
      <point x="280" y="46" type="line"/>
      <point x="792" y="46" type="line"/>
      <point x="869" y="47"/>
      <point x="936" y="61"/>
      <point x="991" y="90" type="curve" smooth="yes"/>
      <point x="1101" y="146"/>
      <point x="1160" y="256"/>
      <point x="1160" y="408" type="curve" smooth="yes"/>
      <point x="1160" y="505"/>
      <point x="1127" y="583"/>
      <point x="1060" y="642" type="curve" smooth="yes"/>
      <point x="993" y="701"/>
      <point x="903" y="730"/>
      <point x="792" y="730" type="curve" smooth="yes"/>
      <point x="280" y="730" type="line"/>
    </contour>
  </outline>
</glyph>
<glyph name="uni0182" format="2">
  <advance width="1338"/>
  <unicode hex="0182"/>
  <outline>
    <contour>
      <point x="232" y="0" type="line"/>
      <point x="232" y="1490" type="line"/>
      <point x="1042" y="1490" type="line"/>
      <point x="1042" y="1442" type="line"/>
      <point x="280" y="1442" type="line"/>
      <point x="280" y="776" type="line"/>
      <point x="792" y="776" type="line"/>
      <point x="918" y="777"/>
      <point x="1105" y="685"/>
      <point x="1208" y="518"/>
      <point x="1208" y="404" type="qcurve" smooth="yes"/>
      <point x="1208" y="280"/>
      <point x="1107" y="98"/>
      <point x="920" y="0"/>
      <point x="792" y="0" type="qcurve" smooth="yes"/>
    </contour>
    <contour>
      <point x="280" y="46" type="line"/>
      <point x="792" y="46" type="line"/>
      <point x="908" y="47"/>
      <point x="1073" y="132"/>
      <point x="1160" y="294"/>
      <point x="1160" y="408" type="qcurve" smooth="yes"/>
      <point x="1160" y="554"/>
      <point x="959" y="730"/>
      <point x="792" y="730" type="qcurve" smooth="yes"/>
      <point x="280" y="730" type="line"/>
    </contour>
  </outline>
</glyph>
<glyph name="btopbar" format="2">
  <advance width="1190"/>
  <unicode hex="0183"/>
  <outline>
    <contour>
      <point x="222" y="1444" type="line"/>
      <point x="198" y="1490" type="line"/>
      <point x="885" y="1490" type="line"/>
      <point x="885" y="1444" type="line"/>
    </contour>
    <contour>
      <point x="630" y="-24" type="qcurve" smooth="yes"/>
      <point x="540" y="-24"/>
      <point x="390" y="50"/>
      <point x="280" y="187"/>
      <point x="250" y="280" type="qcurve"/>
      <point x="244" y="280" type="line"/>
      <point x="244" y="0" type="line"/>
      <point x="198" y="0" type="line"/>
      <point x="198" y="1490" type="line"/>
      <point x="244" y="1490" type="line"/>
      <point x="244" y="832" type="line"/>
      <point x="250" y="832" type="line"/>
      <point x="279" y="925"/>
      <point x="390" y="1061"/>
      <point x="541" y="1134"/>
      <point x="630" y="1134" type="qcurve" smooth="yes"/>
      <point x="761" y="1134"/>
      <point x="954" y="982"/>
      <point x="1060" y="720"/>
      <point x="1060" y="556" type="qcurve" smooth="yes"/>
      <point x="1060" y="391"/>
      <point x="955" y="128"/>
      <point x="762" y="-24"/>
    </contour>
    <contour>
      <point x="630" y="22" type="qcurve" smooth="yes"/>
      <point x="748" y="22"/>
      <point x="920" y="163"/>
      <point x="1014" y="405"/>
      <point x="1014" y="556" type="qcurve" smooth="yes"/>
      <point x="1014" y="707"/>
      <point x="920" y="948"/>
      <point x="748" y="1088"/>
      <point x="630" y="1088" type="qcurve" smooth="yes"/>
      <point x="512" y="1088"/>
      <point x="339" y="948"/>
      <point x="244" y="707"/>
      <point x="244" y="556" type="qcurve" smooth="yes"/>
      <point x="244" y="405"/>
      <point x="338" y="163"/>
      <point x="511" y="22"/>
    </contour>
  </outline>
</glyph>
<glyph name="Tonesix" format="2">
  <advance width="1290"/>
  <unicode hex="0184"/>
  <outline>
    <contour>
      <point x="402" y="1490" type="line"/>
      <point x="402" y="1442" type="line"/>
      <point x="16" y="1442" type="line"/>
      <point x="16" y="1490" type="line"/>
    </contour>
    <contour>
      <point x="382" y="776" type="line"/>
      <point x="914" y="776" type="line"/>
      <point x="998" y="777"/>
      <point x="1071" y="762"/>
      <point x="1134" y="731" type="curve" smooth="yes"/>
      <point x="1258" y="670"/>
      <point x="1330" y="556"/>
      <point x="1330" y="404" type="curve" smooth="yes"/>
      <point x="1330" y="321"/>
      <point x="1313" y="250"/>
      <point x="1280" y="189" type="curve" smooth="yes"/>
      <point x="1212" y="68"/>
      <point x="1085" y="0"/>
      <point x="914" y="0" type="curve" smooth="yes"/>
      <point x="354" y="0" type="line"/>
      <point x="354" y="1490" type="line"/>
      <point x="402" y="1490" type="line"/>
      <point x="402" y="46" type="line"/>
      <point x="914" y="46" type="line"/>
      <point x="991" y="47"/>
      <point x="1058" y="61"/>
      <point x="1113" y="90" type="curve" smooth="yes"/>
      <point x="1223" y="146"/>
      <point x="1282" y="256"/>
      <point x="1282" y="408" type="curve" smooth="yes"/>
      <point x="1283" y="505"/>
      <point x="1250" y="583"/>
      <point x="1183" y="642" type="curve" smooth="yes"/>
      <point x="1115" y="701"/>
      <point x="1025" y="730"/>
      <point x="914" y="730" type="curve" smooth="yes"/>
      <point x="382" y="730" type="line"/>
    </contour>
  </outline>
</glyph>
<glyph name="tonesix" format="2">
  <advance width="1108"/>
  <unicode hex="0185"/>
  <outline>
    <contour>
      <point x="178" y="1536" type="line"/>
      <point x="222" y="1536" type="line"/>
      <point x="222" y="1048" type="line"/>
      <point x="178" y="1048" type="line"/>
      <point x="72" y="1286" type="line"/>
      <point x="72" y="1300" type="line"/>
    </contour>
    <contour>
      <point x="216" y="832" type="line"/>
      <point x="248" y="832" type="line"/>
      <point x="268" y="894"/>
      <point x="296" y="948"/>
      <point x="333" y="993" type="curve" smooth="yes"/>
      <point x="370" y="1038"/>
      <point x="413" y="1073"/>
      <point x="463" y="1098" type="curve" smooth="yes"/>
      <point x="513" y="1122"/>
      <point x="567" y="1134"/>
      <point x="626" y="1134" type="curve" smooth="yes"/>
      <point x="714" y="1134"/>
      <point x="790" y="1109"/>
      <point x="855" y="1058" type="curve" smooth="yes"/>
      <point x="920" y="1007"/>
      <point x="970" y="938"/>
      <point x="1005" y="851" type="curve" smooth="yes"/>
      <point x="1040" y="764"/>
      <point x="1058" y="665"/>
      <point x="1058" y="556" type="curve" smooth="yes"/>
      <point x="1058" y="446"/>
      <point x="1040" y="347"/>
      <point x="1005" y="260" type="curve" smooth="yes"/>
      <point x="934" y="84"/>
      <point x="803" y="-24"/>
      <point x="626" y="-24" type="curve" smooth="yes"/>
      <point x="567" y="-24"/>
      <point x="512" y="-12"/>
      <point x="463" y="13" type="curve" smooth="yes"/>
      <point x="413" y="38"/>
      <point x="370" y="73"/>
      <point x="334" y="119" type="curve" smooth="yes"/>
      <point x="297" y="164"/>
      <point x="269" y="218"/>
      <point x="248" y="280" type="curve"/>
      <point x="216" y="280" type="line"/>
    </contour>
    <contour>
      <point x="1010" y="556" type="curve" smooth="yes"/>
      <point x="1011" y="657"/>
      <point x="995" y="747"/>
      <point x="964" y="828" type="curve" smooth="yes"/>
      <point x="901" y="988"/>
      <point x="785" y="1088"/>
      <point x="626" y="1088" type="curve" smooth="yes"/>
      <point x="547" y="1088"/>
      <point x="479" y="1065"/>
      <point x="422" y="1018" type="curve" smooth="yes"/>
      <point x="307" y="925"/>
      <point x="242" y="757"/>
      <point x="242" y="556" type="curve" smooth="yes"/>
      <point x="242" y="455"/>
      <point x="258" y="365"/>
      <point x="289" y="285" type="curve" smooth="yes"/>
      <point x="352" y="124"/>
      <point x="469" y="24"/>
      <point x="626" y="24" type="curve" smooth="yes"/>
      <point x="705" y="24"/>
      <point x="774" y="47"/>
      <point x="832" y="94" type="curve" smooth="yes"/>
      <point x="947" y="187"/>
      <point x="1011" y="355"/>
    </contour>
    <contour>
      <point x="196" y="1490" type="line"/>
      <point x="242" y="1490" type="line"/>
      <point x="242" y="832" type="line"/>
      <point x="230" y="558" type="line"/>
      <point x="242" y="280" type="line"/>
      <point x="242" y="0" type="line"/>
      <point x="196" y="0" type="line"/>
    </contour>
  </outline>
</glyph>
<glyph name="Oopen" format="2">
  <advance width="1480"/>
  <unicode hex="0186"/>
  <anchor x="672" y="0" name="m.uni030F_1"/>
  <anchor x="689" y="1489" name="m.uni0327_3"/>
  <outline>
    <contour>
      <point x="714" y="1510" type="curve" smooth="yes"/>
      <point x="837" y="1510"/>
      <point x="944" y="1478"/>
      <point x="1037" y="1414" type="curve" smooth="yes"/>
      <point x="1130" y="1350"/>
      <point x="1202" y="1261"/>
      <point x="1254" y="1146" type="curve" smooth="yes"/>
      <point x="1306" y="1031"/>
      <point x="1332" y="898"/>
      <point x="1332" y="746" type="curve" smooth="yes"/>
      <point x="1332" y="594"/>
      <point x="1306" y="461"/>
      <point x="1254" y="346" type="curve" smooth="yes"/>
      <point x="1202" y="231"/>
      <point x="1130" y="141"/>
      <point x="1037" y="77" type="curve" smooth="yes"/>
      <point x="944" y="12"/>
      <point x="837" y="-20"/>
      <point x="714" y="-20" type="curve" smooth="yes"/>
      <point x="539" y="-20"/>
      <point x="406" y="47"/>
      <point x="312" y="144" type="curve" smooth="yes"/>
      <point x="218" y="241"/>
      <point x="163" y="361"/>
      <point x="144" y="466" type="curve"/>
      <point x="191" y="466" type="line"/>
      <point x="211" y="365"/>
      <point x="264" y="256"/>
      <point x="352" y="170" type="curve" smooth="yes"/>
      <point x="439" y="84"/>
      <point x="559" y="26"/>
      <point x="714" y="26" type="curve" smooth="yes"/>
      <point x="816" y="26"/>
      <point x="911" y="54"/>
      <point x="998" y="110" type="curve" smooth="yes"/>
      <point x="1085" y="165"/>
      <point x="1154" y="247"/>
      <point x="1207" y="354" type="curve" smooth="yes"/>
      <point x="1260" y="461"/>
      <point x="1286" y="592"/>
      <point x="1286" y="746" type="curve" smooth="yes"/>
      <point x="1286" y="902"/>
      <point x="1260" y="1033"/>
      <point x="1207" y="1140" type="curve" smooth="yes"/>
      <point x="1154" y="1247"/>
      <point x="1085" y="1327"/>
      <point x="998" y="1382" type="curve" smooth="yes"/>
      <point x="911" y="1437"/>
      <point x="816" y="1464"/>
      <point x="714" y="1464" type="curve" smooth="yes"/>
      <point x="561" y="1464"/>
      <point x="439" y="1407"/>
      <point x="352" y="1320" type="curve" smooth="yes"/>
      <point x="265" y="1233"/>
      <point x="211" y="1125"/>
      <point x="191" y="1024" type="curve"/>
      <point x="144" y="1024" type="line"/>
      <point x="163" y="1129"/>
      <point x="218" y="1249"/>
      <point x="312" y="1346" type="curve" smooth="yes"/>
      <point x="406" y="1443"/>
      <point x="539" y="1510"/>
    </contour>
  </outline>
</glyph>
<glyph name="uni0186" format="2">
  <advance width="1480"/>
  <unicode hex="0186"/>
  <anchor x="706" y="0" name="m.uni030F_1"/>
  <anchor x="722" y="1490" name="m.uni0327_3"/>
  <outline>
    <contour>
      <point x="714" y="1510" type="qcurve" smooth="yes"/>
      <point x="898" y="1510"/>
      <point x="1176" y="1318"/>
      <point x="1332" y="974"/>
      <point x="1332" y="746" type="qcurve" smooth="yes"/>
      <point x="1332" y="518"/>
      <point x="1176" y="173"/>
      <point x="898" y="-20"/>
      <point x="714" y="-20" type="qcurve" smooth="yes"/>
      <point x="583" y="-20"/>
      <point x="382" y="71"/>
      <point x="241" y="217"/>
      <point x="158" y="387"/>
      <point x="144" y="466" type="qcurve"/>
      <point x="191" y="466" type="line"/>
      <point x="206" y="390"/>
      <point x="286" y="234"/>
      <point x="417" y="105"/>
      <point x="598" y="26"/>
      <point x="714" y="26" type="qcurve" smooth="yes"/>
      <point x="867" y="26"/>
      <point x="1128" y="193"/>
      <point x="1286" y="515"/>
      <point x="1286" y="746" type="qcurve" smooth="yes"/>
      <point x="1286" y="980"/>
      <point x="1128" y="1300"/>
      <point x="867" y="1464"/>
      <point x="714" y="1464" type="qcurve" smooth="yes"/>
      <point x="599" y="1464"/>
      <point x="417" y="1385"/>
      <point x="287" y="1255"/>
      <point x="206" y="1100"/>
      <point x="191" y="1024" type="qcurve"/>
      <point x="144" y="1024" type="line"/>
      <point x="158" y="1103"/>
      <point x="241" y="1273"/>
      <point x="382" y="1419"/>
      <point x="583" y="1510"/>
    </contour>
  </outline>
</glyph>
<glyph name="Chook" format="2">
  <advance width="1480"/>
  <unicode hex="0187"/>
  <anchor x="782" y="1490" name="m.uni030F_1"/>
  <anchor x="766" y="0" name="m.uni0327_3"/>
  <outline>
    <contour>
      <point x="1290" y="1024" type="line"/>
      <point x="1290" y="1478" type="line" smooth="yes"/>
      <point x="1290" y="1580"/>
      <point x="1382" y="1676"/>
      <point x="1474" y="1676" type="qcurve" smooth="yes"/>
      <point x="1488" y="1676"/>
      <point x="1529" y="1676"/>
      <point x="1546" y="1676" type="qcurve"/>
      <point x="1546" y="1630" type="line"/>
      <point x="1527" y="1630"/>
      <point x="1487" y="1630"/>
      <point x="1474" y="1630" type="qcurve" smooth="yes"/>
      <point x="1402" y="1630"/>
      <point x="1336" y="1560"/>
      <point x="1336" y="1478" type="qcurve" smooth="yes"/>
      <point x="1336" y="1024" type="line"/>
    </contour>
    <contour>
      <point x="766" y="-20" type="qcurve" smooth="yes"/>
      <point x="583" y="-20"/>
      <point x="304" y="172"/>
      <point x="148" y="516"/>
      <point x="148" y="744" type="qcurve" smooth="yes"/>
      <point x="148" y="973"/>
      <point x="304" y="1317"/>
      <point x="583" y="1510"/>
      <point x="766" y="1510" type="qcurve" smooth="yes"/>
      <point x="897" y="1510"/>
      <point x="1098" y="1420"/>
      <point x="1239" y="1274"/>
      <point x="1322" y="1104"/>
      <point x="1336" y="1024" type="qcurve"/>
      <point x="1289" y="1024" type="line"/>
      <point x="1274" y="1101"/>
      <point x="1194" y="1256"/>
      <point x="1063" y="1385"/>
      <point x="882" y="1464"/>
      <point x="766" y="1464" type="qcurve" smooth="yes"/>
      <point x="613" y="1464"/>
      <point x="353" y="1297"/>
      <point x="194" y="976"/>
      <point x="194" y="744" type="qcurve" smooth="yes"/>
      <point x="194" y="510"/>
      <point x="353" y="190"/>
      <point x="613" y="26"/>
      <point x="766" y="26" type="qcurve" smooth="yes"/>
      <point x="882" y="26"/>
      <point x="1063" y="105"/>
      <point x="1193" y="235"/>
      <point x="1274" y="390"/>
      <point x="1289" y="466" type="qcurve"/>
      <point x="1336" y="466" type="line"/>
      <point x="1322" y="387"/>
      <point x="1239" y="217"/>
      <point x="1098" y="71"/>
      <point x="897" y="-20"/>
    </contour>
  </outline>
</glyph>
<glyph name="chook" format="2">
  <advance width="1028"/>
  <unicode hex="0188"/>
  <anchor x="739" y="0" name="m.uni0326"/>
  <anchor x="739" y="1242" name="m.uni030F_1"/>
  <anchor x="739" y="0" name="m.uni0327_3"/>
  <outline>
    <contour>
      <point x="932" y="886" type="line"/>
      <point x="805" y="1084" type="line" smooth="yes"/>
      <point x="765" y="1146"/>
      <point x="757" y="1198"/>
      <point x="782" y="1241" type="curve" smooth="yes"/>
      <point x="806" y="1283"/>
      <point x="851" y="1304"/>
      <point x="916" y="1304" type="curve" smooth="yes"/>
      <point x="933" y="1304"/>
      <point x="963" y="1304"/>
      <point x="988" y="1304" type="curve"/>
      <point x="988" y="1258" type="line"/>
      <point x="963" y="1258"/>
      <point x="933" y="1258"/>
      <point x="916" y="1258" type="curve" smooth="yes"/>
      <point x="820" y="1258"/>
      <point x="785" y="1199"/>
      <point x="842" y="1106" type="curve" smooth="yes"/>
      <point x="970" y="899" type="line"/>
    </contour>
    <contour>
      <point x="594" y="-16" type="curve" smooth="yes"/>
      <point x="506" y="-16"/>
      <point x="427" y="9"/>
      <point x="357" y="59" type="curve" smooth="yes"/>
      <point x="287" y="109"/>
      <point x="232" y="177"/>
      <point x="191" y="264" type="curve" smooth="yes"/>
      <point x="150" y="351"/>
      <point x="130" y="449"/>
      <point x="130" y="559" type="curve" smooth="yes"/>
      <point x="130" y="669"/>
      <point x="150" y="767"/>
      <point x="191" y="854" type="curve" smooth="yes"/>
      <point x="232" y="941"/>
      <point x="287" y="1009"/>
      <point x="357" y="1059" type="curve" smooth="yes"/>
      <point x="427" y="1109"/>
      <point x="506" y="1134"/>
      <point x="594" y="1134" type="curve" smooth="yes"/>
      <point x="718" y="1134"/>
      <point x="810" y="1083"/>
      <point x="871" y="1024" type="curve" smooth="yes"/>
      <point x="932" y="964"/>
      <point x="965" y="908"/>
      <point x="970" y="899" type="curve"/>
      <point x="930" y="876" type="line"/>
      <point x="925" y="885"/>
      <point x="896" y="937"/>
      <point x="841" y="990" type="curve" smooth="yes"/>
      <point x="785" y="1042"/>
      <point x="705" y="1088"/>
      <point x="594" y="1088" type="curve" smooth="yes"/>
      <point x="515" y="1088"/>
      <point x="445" y="1065"/>
      <point x="382" y="1020" type="curve" smooth="yes"/>
      <point x="319" y="974"/>
      <point x="269" y="911"/>
      <point x="232" y="832" type="curve" smooth="yes"/>
      <point x="195" y="753"/>
      <point x="176" y="662"/>
      <point x="176" y="559" type="curve" smooth="yes"/>
      <point x="176" y="456"/>
      <point x="195" y="365"/>
      <point x="232" y="286" type="curve" smooth="yes"/>
      <point x="269" y="206"/>
      <point x="319" y="143"/>
      <point x="382" y="98" type="curve" smooth="yes"/>
      <point x="445" y="53"/>
      <point x="515" y="30"/>
      <point x="594" y="30" type="curve" smooth="yes"/>
      <point x="705" y="30"/>
      <point x="788" y="76"/>
      <point x="844" y="129" type="curve" smooth="yes"/>
      <point x="900" y="182"/>
      <point x="930" y="234"/>
      <point x="935" y="242" type="curve"/>
      <point x="975" y="220" type="line"/>
      <point x="970" y="211"/>
      <point x="937" y="155"/>
      <point x="874" y="96" type="curve" smooth="yes"/>
      <point x="811" y="36"/>
      <point x="718" y="-16"/>
    </contour>
  </outline>
</glyph>
<glyph name="Dhook" format="2">
  <advance width="1622"/>
  <unicode hex="018A"/>
  <anchor x="1164" y="0" name="m.uni0326"/>
  <anchor x="1103" y="1490" name="m.uni030F_1"/>
  <outline>
    <contour>
      <point x="86" y="1118" type="line"/>
      <point x="86" y="1280" type="line" smooth="yes"/>
      <point x="86" y="1348"/>
      <point x="103" y="1400"/>
      <point x="137" y="1436" type="curve" smooth="yes"/>
      <point x="170" y="1472"/>
      <point x="219" y="1490"/>
      <point x="282" y="1490" type="curve" smooth="yes"/>
      <point x="392" y="1490" type="line"/>
      <point x="392" y="1444" type="line"/>
      <point x="286" y="1444" type="line" smooth="yes"/>
      <point x="181" y="1444"/>
      <point x="132" y="1392"/>
      <point x="132" y="1280" type="curve" smooth="yes"/>
      <point x="132" y="1118" type="line"/>
    </contour>
    <contour>
      <point x="782" y="0" type="curve" smooth="yes"/>
      <point x="416" y="0" type="line"/>
      <point x="416" y="46" type="line"/>
      <point x="782" y="46" type="line" smooth="yes"/>
      <point x="920" y="46"/>
      <point x="1037" y="74"/>
      <point x="1134" y="130" type="curve" smooth="yes"/>
      <point x="1326" y="242"/>
      <point x="1428" y="457"/>
      <point x="1428" y="750" type="curve" smooth="yes"/>
      <point x="1428" y="895"/>
      <point x="1404" y="1020"/>
      <point x="1357" y="1123" type="curve" smooth="yes"/>
      <point x="1261" y="1330"/>
      <point x="1079" y="1444"/>
      <point x="820" y="1444" type="curve" smooth="yes"/>
      <point x="416" y="1444" type="line"/>
      <point x="416" y="1490" type="line"/>
      <point x="820" y="1490" type="line" smooth="yes"/>
      <point x="957" y="1490"/>
      <point x="1075" y="1461"/>
      <point x="1172" y="1402" type="curve" smooth="yes"/>
      <point x="1367" y="1284"/>
      <point x="1474" y="1059"/>
      <point x="1474" y="750" type="curve" smooth="yes"/>
      <point x="1474" y="592"/>
      <point x="1447" y="457"/>
      <point x="1393" y="345" type="curve" smooth="yes"/>
      <point x="1284" y="121"/>
      <point x="1074" y="0"/>
    </contour>
    <contour>
      <point x="438" y="1490" type="line"/>
      <point x="438" y="0" type="line"/>
      <point x="392" y="0" type="line"/>
      <point x="392" y="1490" type="line"/>
    </contour>
  </outline>
</glyph>
<glyph name="Dtopbar" format="2">
  <advance width="1210"/>
  <unicode hex="018B"/>
  <outline>
    <contour>
      <point x="1092" y="0" type="line"/>
      <point x="534" y="0" type="line" smooth="yes"/>
      <point x="406" y="0"/>
      <point x="219" y="98"/>
      <point x="118" y="280"/>
      <point x="118" y="404" type="qcurve" smooth="yes"/>
      <point x="118" y="518"/>
      <point x="221" y="685"/>
      <point x="408" y="776"/>
      <point x="534" y="776" type="qcurve" smooth="yes"/>
      <point x="1046" y="776" type="line"/>
      <point x="1046" y="1442" type="line"/>
      <point x="284" y="1442" type="line"/>
      <point x="284" y="1490" type="line"/>
      <point x="1092" y="1490" type="line"/>
    </contour>
    <contour>
      <point x="1046" y="46" type="line"/>
      <point x="1046" y="730" type="line"/>
      <point x="534" y="730" type="line" smooth="yes"/>
      <point x="366" y="730"/>
      <point x="164" y="554"/>
      <point x="164" y="408" type="qcurve" smooth="yes"/>
      <point x="164" y="294"/>
      <point x="252" y="132"/>
      <point x="418" y="46"/>
      <point x="534" y="46" type="qcurve" smooth="yes"/>
    </contour>
  </outline>
</glyph>
